<svg width="25" height="25" viewBox="0 0 25 25" fill="none" xmlns="http://www.w3.org/2000/svg">
<path d="M22.7375 14.7378C22.6749 14.563 22.6013 14.3924 22.5172 14.2269L18.6181 5.35625C18.5812 5.27081 18.5284 5.19318 18.4625 5.1275C18.1839 4.84885 17.8532 4.62781 17.4891 4.47701C17.1251 4.3262 16.735 4.24858 16.3409 4.24858C15.9469 4.24858 15.5568 4.3262 15.1927 4.47701C14.8287 4.62781 14.498 4.84885 14.2194 5.1275C14.0792 5.26781 14.0003 5.45793 14 5.65625V8H11V5.65625C11.0001 5.55773 10.9807 5.46016 10.9431 5.36911C10.9055 5.27807 10.8503 5.19533 10.7806 5.12563C10.502 4.84698 10.1713 4.62594 9.80727 4.47513C9.44325 4.32432 9.05309 4.2467 8.65906 4.2467C8.26504 4.2467 7.87488 4.32432 7.51085 4.47513C7.14683 4.62594 6.81609 4.84698 6.5375 5.12563C6.47158 5.19131 6.41876 5.26894 6.38188 5.35438L2.48281 14.225C2.39871 14.3905 2.32512 14.5612 2.2625 14.7359C2.04172 15.3537 1.95867 16.0122 2.01918 16.6655C2.07969 17.3187 2.28229 17.9508 2.61279 18.5175C2.94329 19.0842 3.39369 19.5717 3.93245 19.946C4.47121 20.3203 5.08529 20.5723 5.73168 20.6843C6.37806 20.7963 7.04112 20.7657 7.67441 20.5944C8.30769 20.4232 8.89589 20.1156 9.39779 19.6932C9.89968 19.2708 10.3031 18.7437 10.5799 18.1489C10.8567 17.5541 11.0001 16.906 11 16.25V9.5H14V16.25C13.9997 16.9061 14.1428 17.5543 14.4194 18.1493C14.696 18.7442 15.0993 19.2715 15.6011 19.6942C16.103 20.1168 16.6911 20.4246 17.3245 20.596C17.9578 20.7674 18.6209 20.7982 19.2674 20.6864C19.9139 20.5745 20.5281 20.3226 21.067 19.9483C21.6059 19.574 22.0564 19.0865 22.387 18.5197C22.7176 17.953 22.9202 17.3209 22.9808 16.6676C23.0413 16.0143 22.9583 15.3556 22.7375 14.7378ZM7.69156 6.10156C7.94161 5.89102 8.25359 5.76793 8.58004 5.751C8.90648 5.73408 9.22952 5.82426 9.5 6.00781V12.8994C8.91444 12.3736 8.20098 12.0109 7.43111 11.8477C6.66123 11.6845 5.86198 11.7264 5.11344 11.9694L7.69156 6.10156ZM6.5 19.25C5.90666 19.25 5.32664 19.0741 4.83329 18.7444C4.33994 18.4148 3.95542 17.9462 3.72836 17.3981C3.5013 16.8499 3.44189 16.2467 3.55764 15.6647C3.6734 15.0828 3.95912 14.5482 4.37868 14.1287C4.79824 13.7091 5.33279 13.4234 5.91473 13.3076C6.49667 13.1919 7.09987 13.2513 7.64805 13.4784C8.19623 13.7054 8.66476 14.0899 8.99441 14.5833C9.32405 15.0766 9.5 15.6567 9.5 16.25C9.5 17.0456 9.18393 17.8087 8.62132 18.3713C8.05871 18.9339 7.29565 19.25 6.5 19.25ZM15.5 6.00688C15.7705 5.82332 16.0935 5.73314 16.42 5.75006C16.7464 5.76699 17.0584 5.89008 17.3084 6.10063L19.8866 11.9675C19.1379 11.7247 18.3386 11.6829 17.5688 11.8462C16.7989 12.0096 16.0855 12.3725 15.5 12.8984V6.00688ZM18.5 19.25C17.9067 19.25 17.3266 19.0741 16.8333 18.7444C16.3399 18.4148 15.9554 17.9462 15.7284 17.3981C15.5013 16.8499 15.4419 16.2467 15.5576 15.6647C15.6734 15.0828 15.9591 14.5482 16.3787 14.1287C16.7982 13.7091 17.3328 13.4234 17.9147 13.3076C18.4967 13.1919 19.0999 13.2513 19.6481 13.4784C20.1962 13.7054 20.6648 14.0899 20.9944 14.5833C21.3241 15.0766 21.5 15.6567 21.5 16.25C21.5 17.0456 21.1839 17.8087 20.6213 18.3713C20.0587 18.9339 19.2956 19.25 18.5 19.25Z" fill="white"/>
</svg>
