<svg width="24" height="25" viewBox="0 0 24 25" fill="none" xmlns="http://www.w3.org/2000/svg">
<path d="M19.5 3.5H17.25V2.75C17.25 2.55109 17.171 2.36032 17.0303 2.21967C16.8897 2.07902 16.6989 2 16.5 2C16.3011 2 16.1103 2.07902 15.9697 2.21967C15.829 2.36032 15.75 2.55109 15.75 2.75V3.5H8.25V2.75C8.25 2.55109 8.17098 2.36032 8.03033 2.21967C7.88968 2.07902 7.69891 2 7.5 2C7.30109 2 7.11032 2.07902 6.96967 2.21967C6.82902 2.36032 6.75 2.55109 6.75 2.75V3.5H4.5C4.10218 3.5 3.72064 3.65804 3.43934 3.93934C3.15804 4.22064 3 4.60218 3 5V20C3 20.3978 3.15804 20.7794 3.43934 21.0607C3.72064 21.342 4.10218 21.5 4.5 21.5H19.5C19.8978 21.5 20.2794 21.342 20.5607 21.0607C20.842 20.7794 21 20.3978 21 20V5C21 4.60218 20.842 4.22064 20.5607 3.93934C20.2794 3.65804 19.8978 3.5 19.5 3.5ZM6.75 5V5.75C6.75 5.94891 6.82902 6.13968 6.96967 6.28033C7.11032 6.42098 7.30109 6.5 7.5 6.5C7.69891 6.5 7.88968 6.42098 8.03033 6.28033C8.17098 6.13968 8.25 5.94891 8.25 5.75V5H15.75V5.75C15.75 5.94891 15.829 6.13968 15.9697 6.28033C16.1103 6.42098 16.3011 6.5 16.5 6.5C16.6989 6.5 16.8897 6.42098 17.0303 6.28033C17.171 6.13968 17.25 5.94891 17.25 5.75V5H19.5V8H4.5V5H6.75ZM19.5 20H4.5V9.5H19.5V20ZM15.9056 11.9694C15.9754 12.039 16.0307 12.1217 16.0684 12.2128C16.1062 12.3038 16.1256 12.4014 16.1256 12.5C16.1256 12.5986 16.1062 12.6962 16.0684 12.7872C16.0307 12.8783 15.9754 12.961 15.9056 13.0306L11.4056 17.5306C11.336 17.6004 11.2533 17.6557 11.1622 17.6934C11.0712 17.7312 10.9736 17.7506 10.875 17.7506C10.7764 17.7506 10.6788 17.7312 10.5878 17.6934C10.4967 17.6557 10.414 17.6004 10.3444 17.5306L8.09437 15.2806C7.95364 15.1399 7.87458 14.949 7.87458 14.75C7.87458 14.551 7.95364 14.3601 8.09437 14.2194C8.23511 14.0786 8.42598 13.9996 8.625 13.9996C8.82402 13.9996 9.01489 14.0786 9.15563 14.2194L10.875 15.9397L14.8444 11.9694C14.914 11.8996 14.9967 11.8443 15.0878 11.8066C15.1788 11.7688 15.2764 11.7494 15.375 11.7494C15.4736 11.7494 15.5712 11.7688 15.6622 11.8066C15.7533 11.8443 15.836 11.8996 15.9056 11.9694Z" fill="white"/>
</svg>
