<svg width="25" height="24" viewBox="0 0 25 24" fill="none" xmlns="http://www.w3.org/2000/svg">
<g id="caret">
<path id="Vector" d="M17.5307 12.5307L10.0307 20.0307C9.96099 20.1004 9.87827 20.1556 9.78722 20.1933C9.69618 20.2311 9.5986 20.2505 9.50005 20.2505C9.4015 20.2505 9.30392 20.2311 9.21288 20.1933C9.12183 20.1556 9.03911 20.1004 8.96943 20.0307C8.89974 19.961 8.84447 19.8783 8.80676 19.7872C8.76904 19.6962 8.74963 19.5986 8.74963 19.5001C8.74963 19.4015 8.76904 19.3039 8.80676 19.2129C8.84447 19.1218 8.89974 19.0391 8.96943 18.9694L15.9397 12.0001L8.96943 5.03068C8.82869 4.88995 8.74963 4.69907 8.74963 4.50005C8.74963 4.30103 8.82869 4.11016 8.96943 3.96943C9.11016 3.8287 9.30103 3.74963 9.50005 3.74963C9.69907 3.74963 9.88995 3.8287 10.0307 3.96943L17.5307 11.4694C17.6004 11.5391 17.6557 11.6218 17.6935 11.7128C17.7312 11.8039 17.7506 11.9015 17.7506 12.0001C17.7506 12.0986 17.7312 12.1962 17.6935 12.2873C17.6557 12.3783 17.6004 12.461 17.5307 12.5307Z" fill="#3350E9"/>
</g>
</svg>
