<svg width="24" height="24" viewBox="0 0 24 24" fill="none" xmlns="http://www.w3.org/2000/svg">
<g clip-path="url(#clip0_1740_5494)">
<rect width="24" height="24" rx="4" fill="white"/>
<rect x="0.5" y="0.5" width="23" height="23" rx="3.5" fill="#3350E9"/>
<rect x="0.5" y="0.5" width="23" height="23" rx="3.5" stroke="#6F86FF"/>
<path d="M20.1633 8.28828L10.1633 18.2883C10.0762 18.3757 9.97269 18.445 9.85873 18.4923C9.74478 18.5397 9.6226 18.564 9.49922 18.564C9.37583 18.564 9.25365 18.5397 9.1397 18.4923C9.02574 18.445 8.92225 18.3757 8.83515 18.2883L4.46015 13.9133C4.37295 13.8261 4.30377 13.7225 4.25658 13.6086C4.20938 13.4947 4.18509 13.3725 4.18509 13.2492C4.18509 13.1259 4.20938 13.0038 4.25658 12.8898C4.30377 12.7759 4.37295 12.6724 4.46015 12.5852C4.54736 12.4979 4.65089 12.4288 4.76483 12.3816C4.87877 12.3344 5.00089 12.3101 5.12422 12.3101C5.24754 12.3101 5.36966 12.3344 5.4836 12.3816C5.59754 12.4288 5.70107 12.4979 5.78828 12.5852L9.5 16.2969L18.8367 6.96172C19.0128 6.7856 19.2517 6.68665 19.5008 6.68665C19.7498 6.68665 19.9887 6.7856 20.1648 6.96172C20.341 7.13784 20.4399 7.37671 20.4399 7.62578C20.4399 7.87485 20.341 8.11372 20.1648 8.28984L20.1633 8.28828Z" fill="white"/>
</g>
<rect x="1" y="1" width="22" height="22" rx="3" stroke="#6F86FF" stroke-width="2"/>
<defs>
<clipPath id="clip0_1740_5494">
<rect width="24" height="24" rx="4" fill="white"/>
</clipPath>
</defs>
</svg>
