<svg width="68" height="68" viewBox="0 0 68 68" fill="none" xmlns="http://www.w3.org/2000/svg">
<path d="M63.5375 25.8426C63.2801 25.0494 62.7951 24.3495 62.1429 23.8299C61.4906 23.3104 60.6999 22.9942 59.8692 22.9208L44.0938 21.5608L37.91 6.85577C37.5881 6.08417 37.045 5.42508 36.3492 4.96149C35.6535 4.49789 34.8361 4.25052 34 4.25052C33.1639 4.25052 32.3465 4.49789 31.6508 4.96149C30.955 5.42508 30.412 6.08417 30.09 6.85577L23.9248 21.5608L8.13079 22.9287C7.29682 22.9988 6.5021 23.3136 5.8463 23.8335C5.1905 24.3534 4.7028 25.0554 4.44437 25.8514C4.18593 26.6474 4.16827 27.502 4.39359 28.308C4.61891 29.114 5.07718 29.8356 5.71094 30.3822L17.6933 40.8531L14.102 56.4028C13.9121 57.2165 13.9663 58.0682 14.2578 58.8513C14.5493 59.6344 15.0652 60.3142 15.7409 60.8057C16.4167 61.2972 17.2223 61.5786 18.0571 61.6147C18.8919 61.6508 19.7189 61.44 20.4345 61.0087L33.9814 52.7744L47.5575 61.0087C48.2732 61.44 49.1001 61.6508 49.9349 61.6147C50.7697 61.5786 51.5754 61.2972 52.2511 60.8057C52.9269 60.3142 53.4427 59.6344 53.7342 58.8513C54.0257 58.0682 54.0799 57.2165 53.89 56.4028L50.3014 40.8372L62.2811 30.3822C62.9148 29.8337 63.3721 29.1101 63.5957 28.3024C63.8192 27.4947 63.799 26.6389 63.5375 25.8426ZM59.4947 27.1708L47.515 37.6258C46.932 38.1329 46.4982 38.7895 46.2605 39.5248C46.0227 40.26 45.9899 41.0462 46.1656 41.7987L49.7648 57.375L36.1994 49.1406C35.5375 48.7376 34.7776 48.5244 34.0027 48.5244C33.2278 48.5244 32.4678 48.7376 31.8059 49.1406L18.2591 57.375L21.8344 41.8094C22.0101 41.0568 21.9773 40.2707 21.7395 39.5354C21.5018 38.8001 21.0681 38.1436 20.485 37.6364L8.5 27.1867C8.49903 27.1788 8.49903 27.1707 8.5 27.1628L24.2888 25.7975C25.0596 25.7295 25.7973 25.4524 26.4222 24.996C27.0471 24.5396 27.5356 23.9213 27.8348 23.2076L34 8.52124L40.1625 23.2076C40.4618 23.9213 40.9502 24.5396 41.5752 24.996C42.2001 25.4524 42.9377 25.7295 43.7086 25.7975L59.5 27.1628C59.5 27.1628 59.5 27.1787 59.5 27.1814L59.4947 27.1708Z" fill="#292524"/>
<path d="M40.5 24C39.5 22.5 34 8.5 34 8.5C34 8.5 28 23 27.5 24C27 25 26.5 25.5 25 25.5C23.5 25.5 8.5 27 8.5 27L21 38C21 38 22 39 22 41C22 43 18.5 57.5 18.5 57.5C18.5 57.5 31.5 49 32.5 48.5C33.5 48 34.5 48 35.5 48.5C36.5 49 50 57.5 50 57.5L46 41C46 41 45.5 39.5 46.5 38.5C47.5 37.5 59.5 27 59.5 27L43 26C43 26 41.5 25.5 40.5 24Z" fill="#3350E9" stroke="#3350E9"/>
</svg>
