<svg width="21" height="24" viewBox="0 0 21 24" fill="none" xmlns="http://www.w3.org/2000/svg">
<path d="M18.7031 12C18.7031 12.2984 18.5994 12.5845 18.4148 12.7955C18.2302 13.0065 17.9798 13.125 17.7188 13.125H3.28125C3.02018 13.125 2.7698 13.0065 2.58519 12.7955C2.40059 12.5845 2.29688 12.2984 2.29688 12C2.29688 11.7016 2.40059 11.4155 2.58519 11.2045C2.7698 10.9935 3.02018 10.875 3.28125 10.875H17.7188C17.9798 10.875 18.2302 10.9935 18.4148 11.2045C18.5994 11.4155 18.7031 11.7016 18.7031 12ZM3.28125 7.125H17.7188C17.9798 7.125 18.2302 7.00647 18.4148 6.7955C18.5994 6.58452 18.7031 6.29837 18.7031 6C18.7031 5.70163 18.5994 5.41548 18.4148 5.2045C18.2302 4.99353 17.9798 4.875 17.7188 4.875H3.28125C3.02018 4.875 2.7698 4.99353 2.58519 5.2045C2.40059 5.41548 2.29688 5.70163 2.29688 6C2.29688 6.29837 2.40059 6.58452 2.58519 6.7955C2.7698 7.00647 3.02018 7.125 3.28125 7.125ZM17.7188 16.875H3.28125C3.02018 16.875 2.7698 16.9935 2.58519 17.2045C2.40059 17.4155 2.29688 17.7016 2.29688 18C2.29688 18.2984 2.40059 18.5845 2.58519 18.7955C2.7698 19.0065 3.02018 19.125 3.28125 19.125H17.7188C17.9798 19.125 18.2302 19.0065 18.4148 18.7955C18.5994 18.5845 18.7031 18.2984 18.7031 18C18.7031 17.7016 18.5994 17.4155 18.4148 17.2045C18.2302 16.9935 17.9798 16.875 17.7188 16.875Z" fill="white"/>
</svg>
