<svg width="64" height="64" viewBox="0 0 64 64" fill="none" xmlns="http://www.w3.org/2000/svg">
<g id="home">
<path id="Vector" d="M56 28.8875V52C56 53.0609 55.5786 54.0783 54.8284 54.8284C54.0783 55.5786 53.0609 56 52 56H42C40.9391 56 39.9217 55.5786 39.1716 54.8284C38.4214 54.0783 38 53.0609 38 52V42C38 41.4696 37.7893 40.9609 37.4142 40.5858C37.0391 40.2107 36.5304 40 36 40H28C27.4696 40 26.9609 40.2107 26.5858 40.5858C26.2107 40.9609 26 41.4696 26 42V52C26 53.0609 25.5786 54.0783 24.8284 54.8284C24.0783 55.5786 23.0609 56 22 56H12C10.9391 56 9.92172 55.5786 9.17157 54.8284C8.42143 54.0783 8 53.0609 8 52V28.8875C7.99992 28.3339 8.11475 27.7863 8.33723 27.2794C8.55971 26.7725 8.88499 26.3172 9.2925 25.9425L29.2925 7.07252L29.32 7.04502C30.0564 6.37535 31.0159 6.00427 32.0112 6.00427C33.0066 6.00427 33.9661 6.37535 34.7025 7.04502C34.711 7.0548 34.7202 7.06399 34.73 7.07252L54.73 25.9425C55.1334 26.3192 55.4545 26.7753 55.6731 27.2822C55.8916 27.789 56.003 28.3356 56 28.8875Z" fill="white"/>
</g>
</svg>
