<svg width="33" height="32" viewBox="0 0 33 32" fill="none" xmlns="http://www.w3.org/2000/svg">
<path d="M30.5 26H28.5V14.4438C28.5 14.167 28.4426 13.8932 28.3314 13.6397C28.2201 13.3862 28.0575 13.1586 27.8538 12.9713L17.8538 3.53626C17.8489 3.532 17.8443 3.5274 17.84 3.52251C17.4718 3.18768 16.992 3.00214 16.4944 3.00214C15.9967 3.00214 15.5169 3.18768 15.1488 3.52251L15.135 3.53626L5.14625 12.9713C4.9425 13.1586 4.77985 13.3862 4.66861 13.6397C4.55737 13.8932 4.49996 14.167 4.5 14.4438V26H2.5C2.23478 26 1.98043 26.1054 1.79289 26.2929C1.60536 26.4804 1.5 26.7348 1.5 27C1.5 27.2652 1.60536 27.5196 1.79289 27.7071C1.98043 27.8947 2.23478 28 2.5 28H30.5C30.7652 28 31.0196 27.8947 31.2071 27.7071C31.3946 27.5196 31.5 27.2652 31.5 27C31.5 26.7348 31.3946 26.4804 31.2071 26.2929C31.0196 26.1054 30.7652 26 30.5 26ZM6.5 14.4438L6.51375 14.4313L16.5 5.00001L26.4875 14.4288L26.5012 14.4413V26H20.5V20C20.5 19.4696 20.2893 18.9609 19.9142 18.5858C19.5391 18.2107 19.0304 18 18.5 18H14.5C13.9696 18 13.4609 18.2107 13.0858 18.5858C12.7107 18.9609 12.5 19.4696 12.5 20V26H6.5V14.4438ZM18.5 26H14.5V20H18.5V26Z" fill="currentColor"/>
</svg>
