<svg width="25" height="25" viewBox="0 0 25 25" fill="none" xmlns="http://www.w3.org/2000/svg">
<path d="M21.5 5H15.5C14.9178 5 14.3437 5.13554 13.8229 5.3959C13.3022 5.65625 12.8493 6.03426 12.5 6.5C12.1507 6.03426 11.6978 5.65625 11.1771 5.3959C10.6563 5.13554 10.0822 5 9.5 5H3.5C3.10218 5 2.72064 5.15804 2.43934 5.43934C2.15804 5.72064 2 6.10218 2 6.5V18.5C2 18.8978 2.15804 19.2794 2.43934 19.5607C2.72064 19.842 3.10218 20 3.5 20H9.5C10.0967 20 10.669 20.2371 11.091 20.659C11.5129 21.081 11.75 21.6533 11.75 22.25C11.75 22.4489 11.829 22.6397 11.9697 22.7803C12.1103 22.921 12.3011 23 12.5 23C12.6989 23 12.8897 22.921 13.0303 22.7803C13.171 22.6397 13.25 22.4489 13.25 22.25C13.25 21.6533 13.4871 21.081 13.909 20.659C14.331 20.2371 14.9033 20 15.5 20H21.5C21.8978 20 22.2794 19.842 22.5607 19.5607C22.842 19.2794 23 18.8978 23 18.5V6.5C23 6.10218 22.842 5.72064 22.5607 5.43934C22.2794 5.15804 21.8978 5 21.5 5ZM9.5 18.5H3.5V6.5H9.5C10.0967 6.5 10.669 6.73705 11.091 7.15901C11.5129 7.58097 11.75 8.15326 11.75 8.75V19.25C11.1015 18.762 10.3116 18.4987 9.5 18.5ZM21.5 18.5H15.5C14.6884 18.4987 13.8985 18.762 13.25 19.25V8.75C13.25 8.15326 13.4871 7.58097 13.909 7.15901C14.331 6.73705 14.9033 6.5 15.5 6.5H21.5V18.5ZM15.5 8.75H19.25C19.4489 8.75 19.6397 8.82902 19.7803 8.96967C19.921 9.11032 20 9.30109 20 9.5C20 9.69891 19.921 9.88968 19.7803 10.0303C19.6397 10.171 19.4489 10.25 19.25 10.25H15.5C15.3011 10.25 15.1103 10.171 14.9697 10.0303C14.829 9.88968 14.75 9.69891 14.75 9.5C14.75 9.30109 14.829 9.11032 14.9697 8.96967C15.1103 8.82902 15.3011 8.75 15.5 8.75ZM20 12.5C20 12.6989 19.921 12.8897 19.7803 13.0303C19.6397 13.171 19.4489 13.25 19.25 13.25H15.5C15.3011 13.25 15.1103 13.171 14.9697 13.0303C14.829 12.8897 14.75 12.6989 14.75 12.5C14.75 12.3011 14.829 12.1103 14.9697 11.9697C15.1103 11.829 15.3011 11.75 15.5 11.75H19.25C19.4489 11.75 19.6397 11.829 19.7803 11.9697C19.921 12.1103 20 12.3011 20 12.5ZM20 15.5C20 15.6989 19.921 15.8897 19.7803 16.0303C19.6397 16.171 19.4489 16.25 19.25 16.25H15.5C15.3011 16.25 15.1103 16.171 14.9697 16.0303C14.829 15.8897 14.75 15.6989 14.75 15.5C14.75 15.3011 14.829 15.1103 14.9697 14.9697C15.1103 14.829 15.3011 14.75 15.5 14.75H19.25C19.4489 14.75 19.6397 14.829 19.7803 14.9697C19.921 15.1103 20 15.3011 20 15.5Z" fill="white"/>
</svg>
