<svg width="25" height="24" viewBox="0 0 25 24" fill="none" xmlns="http://www.w3.org/2000/svg">
<g id="Frame">
<path id="Vector" d="M22.4843 10.7232L18.2562 14.4132L19.5228 19.9069C19.5898 20.1941 19.5707 20.4947 19.4678 20.7711C19.3649 21.0475 19.1828 21.2874 18.9443 21.4609C18.7058 21.6344 18.4215 21.7337 18.1268 21.7464C17.8322 21.7592 17.5404 21.6848 17.2878 21.5326L12.4962 18.6263L7.71495 21.5326C7.46236 21.6848 7.1705 21.7592 6.87586 21.7464C6.58122 21.7337 6.29688 21.6344 6.05838 21.4609C5.81988 21.2874 5.63781 21.0475 5.53493 20.7711C5.43205 20.4947 5.41292 20.1941 5.47995 19.9069L6.74464 14.4188L2.51557 10.7232C2.29189 10.5303 2.13015 10.2756 2.05063 9.99113C1.9711 9.70666 1.97733 9.40504 2.06855 9.1241C2.15976 8.84315 2.33189 8.59539 2.56335 8.41188C2.79481 8.22838 3.07529 8.11729 3.36964 8.09256L8.94401 7.60974L11.1199 2.41974C11.2336 2.14742 11.4252 1.9148 11.6708 1.75117C11.9164 1.58755 12.2049 1.50024 12.4999 1.50024C12.795 1.50024 13.0835 1.58755 13.3291 1.75117C13.5747 1.9148 13.7663 2.14742 13.8799 2.41974L16.0624 7.60974L21.6349 8.09256C21.9293 8.11729 22.2098 8.22838 22.4412 8.41188C22.6727 8.59539 22.8448 8.84315 22.936 9.1241C23.0272 9.40504 23.0335 9.70666 22.954 9.99113C22.8744 10.2756 22.7127 10.5303 22.489 10.7232H22.4843Z" fill="#3350E9"/>
</g>
</svg>
