<svg width="60" height="58" viewBox="0 0 60 58" fill="none" xmlns="http://www.w3.org/2000/svg">
<path id="Vector" d="M59.5377 21.8426C59.2803 21.0494 58.7953 20.3495 58.143 19.8299C57.4907 19.3104 56.7 18.9942 55.8694 18.9207L40.0939 17.5607L33.9102 2.85574C33.5882 2.08414 33.0452 1.42505 32.3494 0.961455C31.6536 0.49786 30.8362 0.250488 30.0002 0.250488C29.1641 0.250488 28.3467 0.49786 27.6509 0.961455C26.9552 1.42505 26.4121 2.08414 26.0902 2.85574L19.925 17.5607L4.13094 18.9287C3.29697 18.9988 2.50225 19.3135 1.84645 19.8335C1.19065 20.3534 0.702952 21.0554 0.44452 21.8514C0.186087 22.6474 0.168423 23.502 0.393743 24.308C0.619063 25.114 1.07734 25.8356 1.71109 26.3821L13.6934 36.8531L10.1022 52.4028C9.91229 53.2165 9.96648 54.0681 10.258 54.8512C10.5495 55.6343 11.0653 56.3141 11.7411 56.8056C12.4168 57.2971 13.2225 57.5785 14.0573 57.6147C14.8921 57.6508 15.719 57.44 16.4347 57.0087L29.9816 48.7743L43.5577 57.0087C44.2733 57.44 45.1003 57.6508 45.9351 57.6147C46.7699 57.5785 47.5755 57.2971 48.2513 56.8056C48.927 56.3141 49.4429 55.6343 49.7344 54.8512C50.0259 54.0681 50.0801 53.2165 49.8902 52.4028L46.3016 36.8371L58.2812 26.3821C58.9149 25.8337 59.3723 25.1101 59.5958 24.3024C59.8194 23.4946 59.7992 22.6389 59.5377 21.8426ZM55.4948 23.1707L43.5152 33.6257C42.9321 34.1329 42.4984 34.7894 42.2606 35.5247C42.0229 36.26 41.9901 37.0462 42.1658 37.7987L45.765 53.375L32.1995 45.1406C31.5377 44.7375 30.7777 44.5243 30.0028 44.5243C29.2279 44.5243 28.4679 44.7375 27.8061 45.1406L14.2592 53.375L17.8345 37.8093C18.0102 37.0568 17.9775 36.2706 17.7397 35.5353C17.5019 34.8001 17.0682 34.1435 16.4852 33.6364L4.50016 23.1867C4.49918 23.1787 4.49918 23.1707 4.50016 23.1628L20.2889 21.7975C21.0598 21.7295 21.7974 21.4524 22.4223 20.996C23.0473 20.5396 23.5357 19.9212 23.835 19.2076L30.0002 4.52121L36.1627 19.2076C36.4619 19.9212 36.9504 20.5396 37.5753 20.996C38.2002 21.4524 38.9379 21.7295 39.7087 21.7975L55.5002 23.1628C55.5002 23.1628 55.5002 23.1787 55.5002 23.1814L55.4948 23.1707Z" fill="#3350E9"/>
</svg>
