<svg width="33" height="32" viewBox="0 0 33 32" fill="none" xmlns="http://www.w3.org/2000/svg">
<g id="store">
<path id="Vector" d="M29.5 12C29.5005 11.907 29.4879 11.8144 29.4625 11.725L27.6688 5.45C27.5482 5.03364 27.2962 4.66745 26.9504 4.40612C26.6045 4.14478 26.1835 4.00232 25.75 4H7.25C6.81655 4.00232 6.39547 4.14478 6.04965 4.40612C5.70382 4.66745 5.45182 5.03364 5.33125 5.45L3.53875 11.725C3.51293 11.8144 3.49988 11.907 3.5 12V14C3.5 14.7762 3.68073 15.5418 4.02786 16.2361C4.375 16.9303 4.87902 17.5343 5.5 18V26C5.5 26.5304 5.71071 27.0391 6.08579 27.4142C6.46086 27.7893 6.96957 28 7.5 28H25.5C26.0304 28 26.5391 27.7893 26.9142 27.4142C27.2893 27.0391 27.5 26.5304 27.5 26V18C28.121 17.5343 28.625 16.9303 28.9721 16.2361C29.3193 15.5418 29.5 14.7762 29.5 14V12ZM7.25 6H25.75L27.1775 11H5.82625L7.25 6ZM13.5 13H19.5V14C19.5 14.7956 19.1839 15.5587 18.6213 16.1213C18.0587 16.6839 17.2957 17 16.5 17C15.7044 17 14.9413 16.6839 14.3787 16.1213C13.8161 15.5587 13.5 14.7956 13.5 14V13ZM11.5 13V14C11.5 14.7956 11.1839 15.5587 10.6213 16.1213C10.0587 16.6839 9.29565 17 8.5 17C7.70435 17 6.94129 16.6839 6.37868 16.1213C5.81607 15.5587 5.5 14.7956 5.5 14V13H11.5ZM25.5 26H7.5V18.9C7.8292 18.9664 8.16418 18.9999 8.5 19C9.27623 19 10.0418 18.8193 10.7361 18.4721C11.4303 18.125 12.0343 17.621 12.5 17C12.9657 17.621 13.5697 18.125 14.2639 18.4721C14.9582 18.8193 15.7238 19 16.5 19C17.2762 19 18.0418 18.8193 18.7361 18.4721C19.4303 18.125 20.0343 17.621 20.5 17C20.9657 17.621 21.5697 18.125 22.2639 18.4721C22.9582 18.8193 23.7238 19 24.5 19C24.8358 18.9999 25.1708 18.9664 25.5 18.9V26ZM24.5 17C23.7044 17 22.9413 16.6839 22.3787 16.1213C21.8161 15.5587 21.5 14.7956 21.5 14V13H27.5V14C27.5 14.7956 27.1839 15.5587 26.6213 16.1213C26.0587 16.6839 25.2956 17 24.5 17Z" fill="#3350E9"/>
</g>
</svg>
