<svg width="68" height="68" viewBox="0 0 68 68" fill="none" xmlns="http://www.w3.org/2000/svg">
<path d="M63.7022 26.2969L60.5147 51.7969C60.3205 53.3378 59.5705 54.7549 58.4055 55.782C57.2405 56.8091 55.7406 57.3755 54.1875 57.375H8.5C7.37283 57.375 6.29183 56.9272 5.4948 56.1302C4.69777 55.3332 4.25 54.2522 4.25 53.125V29.75C4.25 28.6228 4.69777 27.5418 5.4948 26.7448C6.29183 25.9478 7.37283 25.5 8.5 25.5H19.9378L29.9731 5.42406C30.1498 5.07101 30.4213 4.77416 30.7572 4.56679C31.0932 4.35941 31.4802 4.24972 31.875 4.25C34.6929 4.25 37.3954 5.36942 39.388 7.36199C41.3806 9.35456 42.5 12.0571 42.5 14.875V19.125H57.375C58.2796 19.1247 59.174 19.3169 59.9986 19.6889C60.8232 20.0609 61.5592 20.6041 62.1577 21.2825C62.7562 21.9609 63.2034 22.7589 63.4697 23.6234C63.736 24.488 63.8153 25.3993 63.7022 26.2969ZM19.125 29.75H8.5V53.125H19.125V29.75ZM58.9688 24.0948C58.7707 23.867 58.5257 23.6848 58.2507 23.5605C57.9756 23.4363 57.6768 23.373 57.375 23.375H40.375C39.8114 23.375 39.2709 23.1511 38.8724 22.7526C38.4739 22.3541 38.25 21.8136 38.25 21.25V14.875C38.2504 13.4011 37.7401 11.9726 36.8059 10.8326C35.8717 9.69254 34.5713 8.91144 33.1261 8.62219L23.375 28.127V53.125H54.1875C54.7052 53.1252 55.2052 52.9364 55.5935 52.594C55.9818 52.2516 56.2318 51.7793 56.2966 51.2656L59.4841 25.7656C59.5239 25.4664 59.4984 25.1622 59.4095 24.8738C59.3205 24.5854 59.1702 24.3196 58.9688 24.0948Z" fill="#3350E9"/>
</svg>
