<svg width="68" height="68" viewBox="0 0 68 68" fill="none" xmlns="http://www.w3.org/2000/svg">
<path d="M63.7022 41.7031L60.5147 16.2031C60.3205 14.6622 59.5705 13.2451 58.4055 12.218C57.2405 11.1909 55.7406 10.6245 54.1875 10.625H8.5C7.37283 10.625 6.29183 11.0728 5.4948 11.8698C4.69777 12.6668 4.25 13.7478 4.25 14.875V38.25C4.25 39.3772 4.69777 40.4582 5.4948 41.2552C6.29183 42.0522 7.37283 42.5 8.5 42.5H19.9378L29.9731 62.5759C30.1498 62.929 30.4213 63.2258 30.7572 63.4332C31.0932 63.6406 31.4802 63.7503 31.875 63.75C34.6929 63.75 37.3954 62.6306 39.388 60.638C41.3806 58.6454 42.5 55.9429 42.5 53.125V48.875H57.375C58.2796 48.8753 59.174 48.6831 59.9986 48.3111C60.8232 47.9391 61.5592 47.3959 62.1577 46.7175C62.7562 46.0391 63.2034 45.2411 63.4697 44.3766C63.736 43.512 63.8153 42.6007 63.7022 41.7031ZM19.125 38.25H8.5V14.875H19.125V38.25ZM58.9688 43.9052C58.7707 44.133 58.5257 44.3152 58.2507 44.4395C57.9756 44.5637 57.6768 44.627 57.375 44.625H40.375C39.8114 44.625 39.2709 44.8489 38.8724 45.2474C38.4739 45.6459 38.25 46.1864 38.25 46.75V53.125C38.2504 54.5989 37.7401 56.0274 36.8059 57.1674C35.8717 58.3075 34.5713 59.0886 33.1261 59.3778L23.375 39.873V14.875H54.1875C54.7052 14.8748 55.2052 15.0636 55.5935 15.406C55.9818 15.7484 56.2318 16.2207 56.2966 16.7344L59.4841 42.2344C59.5239 42.5336 59.4984 42.8378 59.4095 43.1262C59.3205 43.4146 59.1702 43.6804 58.9688 43.9052Z" fill="#292524"/>
<path d="M54.5 15.0001C53 14.5002 23.5 15.0001 23.5 15.0001C23.5 15.0001 23 38.5002 23.5 40.0001C24 41.5 32 59 33.5 59.5001C35 60.0002 38 56.5 38 53.5001V46.5001C38 46.5001 38 45 39.5 44.5001C41 44.0002 56.7459 44.6025 58 44.5001C59.2542 44.3977 59.4167 44 59.5 42.0001C59.5833 40.0002 56.0785 17.0002 56 16.5001C55.9215 16 56 15.5 54.5 15.0001Z" fill="#3350E9"/>
<path d="M19 15.0001H8.5V38H19V15.0001Z" fill="#3350E9"/>
<path d="M54.5 15.0001C53 14.5002 23.5 15.0001 23.5 15.0001C23.5 15.0001 23 38.5002 23.5 40.0001C24 41.5 32 59 33.5 59.5001C35 60.0002 38 56.5 38 53.5001V46.5001C38 46.5001 38 45 39.5 44.5001C41 44.0002 56.7459 44.6025 58 44.5001C59.2542 44.3977 59.4167 44 59.5 42.0001C59.5833 40.0002 56.0785 17.0002 56 16.5001C55.9215 16 56 15.5 54.5 15.0001Z" stroke="#3350E9"/>
<path d="M19 15.0001H8.5V38H19V15.0001Z" stroke="#3350E9"/>
</svg>
