<svg width="60" height="54" viewBox="0 0 60 54" fill="none" xmlns="http://www.w3.org/2000/svg">
<path d="M59.4522 31.0781L56.2647 5.57813C56.0706 4.03719 55.3206 2.62012 54.1555 1.59303C52.9905 0.565934 51.4906 -0.000532734 49.9375 3.75946e-07H4.25C3.12283 3.75946e-07 2.04183 0.447767 1.2448 1.2448C0.447766 2.04183 0 3.12283 0 4.25V27.625C0 28.7522 0.447766 29.8332 1.2448 30.6302C2.04183 31.4272 3.12283 31.875 4.25 31.875H15.6878L25.7231 51.9509C25.8998 52.304 26.1713 52.6008 26.5072 52.8082C26.8432 53.0156 27.2302 53.1253 27.625 53.125C30.4429 53.125 33.1454 52.0056 35.138 50.013C37.1306 48.0204 38.25 45.3179 38.25 42.5V38.25H53.125C54.0296 38.2503 54.924 38.0581 55.7486 37.6861C56.5732 37.3141 57.3092 36.7709 57.9077 36.0925C58.5062 35.4141 58.9534 34.6161 59.2197 33.7516C59.486 32.887 59.5653 31.9757 59.4522 31.0781ZM14.875 27.625H4.25V4.25H14.875V27.625ZM54.7188 33.2802C54.5207 33.508 54.2758 33.6902 54.0007 33.8145C53.7256 33.9387 53.4268 34.002 53.125 34H36.125C35.5614 34 35.0209 34.2239 34.6224 34.6224C34.2239 35.0209 34 35.5614 34 36.125V42.5C34.0004 43.9739 33.4901 45.4024 32.5559 46.5424C31.6217 47.6825 30.3213 48.4636 28.8761 48.7528L19.125 29.248V4.25H49.9375C50.4552 4.24982 50.9552 4.43864 51.3435 4.78101C51.7318 5.12337 51.9818 5.59573 52.0466 6.10938L55.2341 31.6094C55.2739 31.9086 55.2484 32.2128 55.1595 32.5012C55.0705 32.7896 54.9202 33.0554 54.7188 33.2802Z" fill="#9747FF"/>
</svg>
