<svg width="33" height="32" viewBox="0 0 33 32" fill="none" xmlns="http://www.w3.org/2000/svg">
<g id="tree">
<path id="Vector" d="M29.29 23.3863L23.54 16H26.5C26.6868 16 26.8698 15.9477 27.0284 15.849C27.187 15.7504 27.3148 15.6092 27.3973 15.4416C27.4798 15.2741 27.5137 15.0867 27.4952 14.9008C27.4766 14.715 27.4064 14.538 27.2925 14.39L17.2925 1.39001C17.1991 1.26863 17.0791 1.17034 16.9416 1.1027C16.8042 1.03505 16.6531 0.999878 16.5 0.999878C16.3468 0.999878 16.1957 1.03505 16.0583 1.1027C15.9209 1.17034 15.8009 1.26863 15.7075 1.39001L5.70749 14.39C5.59355 14.538 5.52334 14.715 5.50482 14.9008C5.4863 15.0867 5.5202 15.2741 5.60269 15.4416C5.68519 15.6092 5.81296 15.7504 5.97155 15.849C6.13014 15.9477 6.3132 16 6.49999 16H9.45499L3.70499 23.3863C3.58981 23.5344 3.51865 23.712 3.49963 23.8987C3.48061 24.0853 3.5145 24.2736 3.59742 24.4419C3.68035 24.6103 3.80897 24.7519 3.96858 24.8506C4.12819 24.9493 4.31234 25.001 4.49999 25H15.5V30C15.5 30.2652 15.6053 30.5196 15.7929 30.7071C15.9804 30.8946 16.2348 31 16.5 31C16.7652 31 17.0196 30.8946 17.2071 30.7071C17.3946 30.5196 17.5 30.2652 17.5 30V25H28.5C28.6872 25.0001 28.8707 24.9476 29.0296 24.8486C29.1884 24.7495 29.3163 24.6078 29.3986 24.4397C29.481 24.2715 29.5144 24.0836 29.4952 23.8974C29.476 23.7112 29.4049 23.5341 29.29 23.3863ZM6.54499 23L12.295 15.6138C12.4102 15.4656 12.4813 15.288 12.5003 15.1014C12.5194 14.9147 12.4855 14.7264 12.4026 14.5581C12.3196 14.3897 12.191 14.2481 12.0314 14.1494C11.8718 14.0508 11.6876 13.999 11.5 14H8.53124L16.5 3.64001L24.4687 14H21.5C21.3129 14.0001 21.1295 14.0528 20.9709 14.1519C20.8122 14.2511 20.6845 14.3928 20.6023 14.5609C20.5201 14.729 20.4868 14.9168 20.506 15.1029C20.5253 15.289 20.5964 15.466 20.7112 15.6138L26.455 23H6.54499Z" fill="currentColor"/>
</g>
</svg>
