<svg width="383" height="242" viewBox="0 0 383 242" fill="none" xmlns="http://www.w3.org/2000/svg">
<g filter="url(#filter0_d_2_2406)">
<rect x="20" y="16" width="343" height="202" rx="8" fill="white"/>
<circle cx="74" cy="173" r="12" fill="#FF9DB9"/>
<path d="M72 170C72 170 71.0322 172 69.5774 172C67.8318 172 67 170 67 170" stroke="#5D5D5D" stroke-linecap="round"/>
<path d="M81 170C81 170 80.0322 172 78.5774 172C76.8318 172 76 170 76 170" stroke="#5D5D5D" stroke-linecap="round"/>
<path d="M71 179C71 179 72.355 178 74.3916 178C76.8355 178 78 179 78 179" stroke="#5D5D5D" stroke-linecap="round"/>
<circle cx="133" cy="173" r="12" fill="#FFB876"/>
<path d="M130 176C130 176 131.355 175 133.392 175C135.835 175 137 176 137 176" stroke="#5D5D5D" stroke-linecap="round"/>
<circle cx="130" cy="170" r="0.5" stroke="#5D5D5D"/>
<circle cx="136" cy="170" r="0.5" stroke="#5D5D5D"/>
<circle cx="192" cy="173" r="12" fill="#FFFA82"/>
<circle cx="189" cy="170" r="1" fill="black"/>
<circle cx="195" cy="170" r="1" fill="black"/>
<path d="M189 177.214L195.641 175" stroke="black" stroke-linecap="round"/>
<circle cx="251" cy="173" r="12" fill="#C3CCFF"/>
<path d="M255 176C255 176 253.645 177 251.608 177C249.165 177 248 176 248 176" stroke="#434340" stroke-linecap="round"/>
<circle cx="248" cy="170" r="1" fill="black"/>
<circle cx="254" cy="170" r="1" fill="black"/>
<circle cx="310" cy="173" r="12" fill="#0CCA4A"/>
<path d="M303 172C303 172 303.968 170 305.423 170C307.168 170 308 172 308 172" stroke="#434340" stroke-linecap="round"/>
<path d="M312 172C312 172 312.968 170 314.423 170C316.168 170 317 172 317 172" stroke="#434340" stroke-linecap="round"/>
<path d="M314 178C314 178 312.645 179 310.608 179C308.165 179 307 178 307 178" stroke="#434340" stroke-linecap="round"/>
<rect x="63" y="133" width="256" height="8" rx="4" fill="#ECEFFF"/>
<rect x="302" y="130" width="14" height="14" rx="7" stroke="#3350E9" stroke-width="6"/>
<circle cx="191.5" cy="62.5" r="17.5" fill="#0CCA4A"/>
<path d="M181.292 61.0417C181.292 61.0417 182.703 58.125 184.824 58.125C187.37 58.125 188.583 61.0417 188.583 61.0417" stroke="#5D5D5D" stroke-width="2" stroke-linecap="round"/>
<path d="M194.417 61.0417C194.417 61.0417 195.828 58.125 197.949 58.125C200.495 58.125 201.708 61.0417 201.708 61.0417" stroke="#5D5D5D" stroke-width="2" stroke-linecap="round"/>
<path d="M197.333 69.7917C197.333 69.7917 195.358 71.25 192.387 71.25C188.823 71.25 187.125 69.7917 187.125 69.7917" stroke="#5D5D5D" stroke-width="2" stroke-linecap="round"/>
<path d="M181.034 97.276V95.876H185.752C185.771 96.5947 185.678 97.276 185.472 97.92C185.267 98.5547 184.959 99.1193 184.548 99.614C184.138 100.109 183.624 100.501 183.008 100.79C182.402 101.07 181.711 101.21 180.936 101.21C180.199 101.21 179.518 101.089 178.892 100.846C178.267 100.594 177.721 100.239 177.254 99.782C176.797 99.3247 176.442 98.7833 176.19 98.158C175.938 97.5327 175.812 96.8467 175.812 96.1C175.812 95.3533 175.938 94.672 176.19 94.056C176.452 93.4307 176.811 92.894 177.268 92.446C177.735 91.9887 178.281 91.6387 178.906 91.396C179.541 91.1533 180.227 91.032 180.964 91.032C181.608 91.032 182.192 91.1207 182.714 91.298C183.237 91.466 183.704 91.7133 184.114 92.04C184.534 92.3573 184.889 92.7447 185.178 93.202L183.834 94.098C183.564 93.6313 183.186 93.258 182.7 92.978C182.224 92.698 181.646 92.558 180.964 92.558C180.33 92.558 179.756 92.7073 179.242 93.006C178.729 93.2953 178.318 93.706 178.01 94.238C177.702 94.7607 177.548 95.3813 177.548 96.1C177.548 96.8093 177.698 97.4347 177.996 97.976C178.304 98.508 178.715 98.9233 179.228 99.222C179.742 99.5207 180.32 99.67 180.964 99.67C181.403 99.67 181.795 99.6093 182.14 99.488C182.486 99.3667 182.784 99.194 183.036 98.97C183.288 98.746 183.498 98.4893 183.666 98.2C183.834 97.9107 183.96 97.6027 184.044 97.276H181.034ZM188.818 94.56V101H187.32V94.56H188.818ZM190.736 96.17C190.596 96.058 190.466 95.974 190.344 95.918C190.223 95.862 190.069 95.834 189.882 95.834C189.63 95.834 189.425 95.8993 189.266 96.03C189.108 96.1607 188.991 96.3427 188.916 96.576C188.851 96.8 188.818 97.066 188.818 97.374L188.314 97.08C188.314 96.5667 188.408 96.114 188.594 95.722C188.79 95.3207 189.038 95.0033 189.336 94.77C189.644 94.5367 189.962 94.42 190.288 94.42C190.522 94.42 190.741 94.4573 190.946 94.532C191.152 94.5973 191.324 94.7187 191.464 94.896L190.736 96.17ZM195.097 101.14C194.444 101.14 193.865 101 193.361 100.72C192.866 100.44 192.484 100.048 192.213 99.544C191.942 99.04 191.807 98.452 191.807 97.78C191.807 97.0987 191.942 96.506 192.213 96.002C192.493 95.498 192.885 95.1107 193.389 94.84C193.893 94.56 194.486 94.42 195.167 94.42C195.848 94.42 196.427 94.5507 196.903 94.812C197.379 95.0733 197.743 95.4513 197.995 95.946C198.256 96.4313 198.387 97.0193 198.387 97.71C198.387 97.7847 198.382 97.864 198.373 97.948C198.373 98.032 198.368 98.0927 198.359 98.13H192.703V97.094H197.071L196.609 97.738C196.637 97.682 196.665 97.6073 196.693 97.514C196.73 97.4113 196.749 97.3273 196.749 97.262C196.749 96.9167 196.679 96.618 196.539 96.366C196.408 96.114 196.222 95.918 195.979 95.778C195.746 95.638 195.47 95.568 195.153 95.568C194.77 95.568 194.444 95.652 194.173 95.82C193.902 95.988 193.697 96.2307 193.557 96.548C193.417 96.8653 193.342 97.2573 193.333 97.724C193.333 98.1907 193.403 98.5873 193.543 98.914C193.683 99.2313 193.888 99.474 194.159 99.642C194.439 99.81 194.775 99.894 195.167 99.894C195.578 99.894 195.937 99.81 196.245 99.642C196.553 99.474 196.81 99.2173 197.015 98.872L198.317 99.404C197.981 99.9827 197.547 100.417 197.015 100.706C196.483 100.995 195.844 101.14 195.097 101.14ZM200.782 98.998C200.782 99.2127 200.834 99.3993 200.936 99.558C201.039 99.7073 201.179 99.8193 201.356 99.894C201.543 99.9687 201.753 100.006 201.986 100.006C202.285 100.006 202.556 99.9453 202.798 99.824C203.05 99.7027 203.251 99.5253 203.4 99.292C203.559 99.0493 203.638 98.7693 203.638 98.452L203.862 99.292C203.862 99.7027 203.741 100.048 203.498 100.328C203.265 100.599 202.966 100.804 202.602 100.944C202.248 101.075 201.884 101.14 201.51 101.14C201.109 101.14 200.736 101.061 200.39 100.902C200.045 100.743 199.77 100.51 199.564 100.202C199.359 99.894 199.256 99.5207 199.256 99.082C199.256 98.4567 199.476 97.962 199.914 97.598C200.353 97.2247 200.974 97.038 201.776 97.038C202.206 97.038 202.574 97.0847 202.882 97.178C203.2 97.2713 203.461 97.3833 203.666 97.514C203.872 97.6353 204.016 97.7473 204.1 97.85V98.62C203.811 98.4147 203.503 98.2653 203.176 98.172C202.85 98.0787 202.504 98.032 202.14 98.032C201.823 98.032 201.566 98.074 201.37 98.158C201.174 98.2327 201.025 98.34 200.922 98.48C200.829 98.62 200.782 98.7927 200.782 98.998ZM200.306 96.24L199.69 95.176C199.98 94.9987 200.353 94.826 200.81 94.658C201.277 94.49 201.809 94.406 202.406 94.406C202.938 94.406 203.405 94.4853 203.806 94.644C204.217 94.8027 204.539 95.0313 204.772 95.33C205.006 95.6193 205.122 95.9787 205.122 96.408V101H203.638V96.702C203.638 96.4967 203.601 96.3287 203.526 96.198C203.461 96.0673 203.368 95.96 203.246 95.876C203.125 95.792 202.98 95.7313 202.812 95.694C202.644 95.6567 202.462 95.638 202.266 95.638C201.968 95.638 201.683 95.6753 201.412 95.75C201.151 95.8153 200.922 95.8993 200.726 96.002C200.54 96.0953 200.4 96.1747 200.306 96.24ZM205.989 94.56H209.643V95.89H205.989V94.56ZM207.067 92.32H208.565V101H207.067V92.32Z" fill="#292524"/>
<path d="M64.1338 194.988L63.3428 197H62.376L65.1836 190.12H66.2432L69.0068 197H68.0547L67.2686 194.988H64.1338ZM65.7012 190.823C65.6458 191.006 65.5791 191.209 65.501 191.434C65.4261 191.655 65.3561 191.85 65.291 192.02L64.417 194.261H66.9902L66.1064 191.99C66.0609 191.876 66.0007 191.715 65.9258 191.507C65.8509 191.299 65.776 191.071 65.7012 190.823ZM72.2783 193.265L71.3213 197H70.3057L68.8262 191.717H69.6953L70.6035 195.374C70.6296 195.478 70.6605 195.61 70.6963 195.77C70.7321 195.929 70.7663 196.097 70.7988 196.272C70.8346 196.119 70.8704 195.966 70.9062 195.813C70.9453 195.66 70.9844 195.509 71.0234 195.359L71.9854 191.717H72.9277L73.8506 195.345C73.8896 195.498 73.9271 195.652 73.9629 195.809C74.002 195.965 74.0394 196.119 74.0752 196.272C74.111 196.116 74.1468 195.953 74.1826 195.784C74.2217 195.612 74.2575 195.46 74.29 195.33L75.2275 191.717H76.0869L74.5732 197H73.5527L72.6299 193.265C72.5973 193.128 72.5664 192.991 72.5371 192.854C72.5111 192.715 72.4834 192.576 72.4541 192.439C72.4411 192.511 72.4167 192.633 72.3809 192.806C72.3483 192.975 72.3141 193.128 72.2783 193.265ZM77.8301 192.356V197H76.9512V192.356H76.209V191.717H76.9512V191.121C76.9512 190.639 77.057 190.293 77.2686 190.081C77.4801 189.869 77.804 189.764 78.2402 189.764C78.4844 189.764 78.6911 189.783 78.8604 189.822V190.491C78.7041 190.465 78.5739 190.452 78.4697 190.452C78.2451 190.452 78.0824 190.509 77.9814 190.623C77.8805 190.737 77.8301 190.944 77.8301 191.243V191.717H78.8604V192.356H77.8301ZM82.8643 196.097C82.6624 196.461 82.4281 196.72 82.1611 196.873C81.8975 197.023 81.5687 197.098 81.1748 197.098C80.5954 197.098 80.1706 196.954 79.9004 196.668C79.6335 196.378 79.5 195.901 79.5 195.237V191.717H80.3838V195.066C80.3838 195.594 80.4652 195.952 80.6279 196.141C80.7939 196.326 81.0755 196.419 81.4727 196.419C81.8958 196.419 82.2295 196.274 82.4736 195.984C82.7178 195.695 82.8398 195.293 82.8398 194.778V191.717H83.7188V195.872C83.7188 196.178 83.7204 196.425 83.7236 196.614C83.7301 196.803 83.7383 196.932 83.748 197H82.918C82.9147 196.984 82.9082 196.907 82.8984 196.771C82.8919 196.634 82.8854 196.409 82.8789 196.097H82.8643ZM85.9697 189.754V197H85.0908V189.754H85.9697Z" fill="#4F4F4F"/>
<path d="M300.455 196.341C300.904 196.341 301.323 196.272 301.71 196.136C302.101 195.999 302.416 195.813 302.657 195.579V194.339H300.602V193.558H303.517V195.931C303.152 196.302 302.704 196.59 302.174 196.795C301.646 196.997 301.074 197.098 300.455 197.098C299.739 197.098 299.122 196.953 298.604 196.663C298.087 196.373 297.688 195.962 297.408 195.428C297.128 194.891 296.988 194.257 296.988 193.528C296.988 192.412 297.288 191.548 297.887 190.936C298.486 190.324 299.327 190.018 300.411 190.018C301.173 190.018 301.791 190.146 302.267 190.403C302.742 190.66 303.108 191.072 303.365 191.639L302.477 191.902C302.281 191.512 302.011 191.227 301.666 191.048C301.324 190.869 300.898 190.779 300.387 190.779C299.592 190.779 298.985 191.02 298.565 191.502C298.146 191.98 297.936 192.656 297.936 193.528C297.936 194.397 298.159 195.084 298.604 195.589C299.05 196.09 299.667 196.341 300.455 196.341ZM305.841 194.246V197H304.962V192.947C304.962 192.762 304.959 192.566 304.952 192.361C304.949 192.156 304.942 191.941 304.933 191.717H305.763C305.769 191.867 305.774 192.002 305.777 192.122C305.784 192.243 305.789 192.348 305.792 192.439C305.795 192.527 305.797 192.602 305.797 192.664C305.8 192.723 305.802 192.767 305.802 192.796H305.821C305.919 192.477 306.026 192.229 306.144 192.054C306.257 191.891 306.388 191.779 306.534 191.717C306.681 191.652 306.861 191.619 307.076 191.619C307.197 191.619 307.315 191.635 307.433 191.668V192.474C307.322 192.441 307.166 192.425 306.964 192.425C306.599 192.425 306.321 192.583 306.129 192.898C305.937 193.211 305.841 193.66 305.841 194.246ZM308.946 194.544C308.946 195.149 309.072 195.617 309.322 195.945C309.573 196.274 309.939 196.438 310.421 196.438C310.802 196.438 311.106 196.362 311.334 196.209C311.565 196.056 311.721 195.862 311.803 195.628L312.574 195.848C312.258 196.681 311.541 197.098 310.421 197.098C309.64 197.098 309.044 196.865 308.634 196.399C308.227 195.934 308.023 195.242 308.023 194.324C308.023 193.452 308.227 192.783 308.634 192.317C309.044 191.852 309.628 191.619 310.387 191.619C311.165 191.619 311.747 191.854 312.135 192.322C312.522 192.791 312.716 193.493 312.716 194.427V194.544H308.946ZM311.808 193.87C311.759 193.313 311.617 192.908 311.383 192.654C311.148 192.397 310.812 192.269 310.372 192.269C309.946 192.269 309.607 192.412 309.356 192.698C309.109 192.981 308.976 193.372 308.956 193.87H311.808ZM315.187 197.098C314.656 197.098 314.257 196.958 313.99 196.678C313.723 196.398 313.59 196.014 313.59 195.525C313.59 194.979 313.769 194.559 314.127 194.266C314.488 193.973 315.069 193.816 315.87 193.797L317.057 193.777V193.489C317.057 193.06 316.965 192.752 316.783 192.566C316.601 192.381 316.314 192.288 315.924 192.288C315.53 192.288 315.243 192.355 315.064 192.488C314.885 192.622 314.778 192.835 314.742 193.128L313.824 193.045C313.974 192.094 314.68 191.619 315.943 191.619C316.607 191.619 317.107 191.772 317.442 192.078C317.778 192.381 317.945 192.82 317.945 193.396V195.672C317.945 195.932 317.979 196.129 318.048 196.263C318.116 196.393 318.246 196.458 318.438 196.458C318.53 196.458 318.626 196.447 318.727 196.424V196.971C318.616 196.997 318.504 197.016 318.39 197.029C318.276 197.042 318.162 197.049 318.048 197.049C317.722 197.049 317.485 196.964 317.335 196.795C317.188 196.622 317.105 196.354 317.086 195.989H317.057C316.832 196.393 316.57 196.679 316.271 196.849C315.974 197.015 315.613 197.098 315.187 197.098ZM317.057 194.393L316.095 194.412C315.685 194.415 315.372 194.458 315.157 194.539C314.942 194.617 314.778 194.738 314.664 194.9C314.55 195.063 314.493 195.276 314.493 195.54C314.493 195.826 314.57 196.048 314.723 196.204C314.879 196.36 315.1 196.438 315.387 196.438C315.712 196.438 315.999 196.365 316.246 196.219C316.497 196.072 316.694 195.872 316.837 195.618C316.983 195.361 317.057 195.097 317.057 194.827V194.393ZM321.437 196.961C321.15 197.039 320.854 197.078 320.548 197.078C320.196 197.078 319.933 196.979 319.757 196.78C319.581 196.578 319.493 196.279 319.493 195.882V192.356H318.883V191.717H319.527L319.786 190.535H320.372V191.717H321.349V192.356H320.372V195.691C320.372 195.945 320.413 196.124 320.494 196.229C320.579 196.329 320.724 196.38 320.929 196.38C321.039 196.38 321.209 196.357 321.437 196.312V196.961Z" fill="#4F4F4F"/>
</g>
<defs>
<filter id="filter0_d_2_2406" x="0" y="0" width="383" height="242" filterUnits="userSpaceOnUse" color-interpolation-filters="sRGB">
<feFlood flood-opacity="0" result="BackgroundImageFix"/>
<feColorMatrix in="SourceAlpha" type="matrix" values="0 0 0 0 0 0 0 0 0 0 0 0 0 0 0 0 0 0 127 0" result="hardAlpha"/>
<feOffset dy="4"/>
<feGaussianBlur stdDeviation="10"/>
<feComposite in2="hardAlpha" operator="out"/>
<feColorMatrix type="matrix" values="0 0 0 0 0.9 0 0 0 0 0.9 0 0 0 0 0.9 0 0 0 1 0"/>
<feBlend mode="normal" in2="BackgroundImageFix" result="effect1_dropShadow_2_2406"/>
<feBlend mode="normal" in="SourceGraphic" in2="effect1_dropShadow_2_2406" result="shape"/>
</filter>
</defs>
</svg>
