<svg width="383" height="242" viewBox="0 0 383 242" fill="none" xmlns="http://www.w3.org/2000/svg">
<g filter="url(#filter0_d_2_2403)">
<rect x="20" y="16" width="343" height="202" rx="8" fill="white"/>
<circle cx="74" cy="173" r="12" fill="#FF9DB9"/>
<path d="M72 170C72 170 71.0322 172 69.5774 172C67.8318 172 67 170 67 170" stroke="#5D5D5D" stroke-linecap="round"/>
<path d="M81 170C81 170 80.0322 172 78.5774 172C76.8318 172 76 170 76 170" stroke="#5D5D5D" stroke-linecap="round"/>
<path d="M71 179C71 179 72.355 178 74.3916 178C76.8355 178 78 179 78 179" stroke="#5D5D5D" stroke-linecap="round"/>
<circle cx="133" cy="173" r="12" fill="#FFB876"/>
<path d="M130 176C130 176 131.355 175 133.392 175C135.835 175 137 176 137 176" stroke="#5D5D5D" stroke-linecap="round"/>
<circle cx="130" cy="170" r="0.5" stroke="#5D5D5D"/>
<circle cx="136" cy="170" r="0.5" stroke="#5D5D5D"/>
<circle cx="192" cy="173" r="12" fill="#FFFA82"/>
<circle cx="189" cy="170" r="1" fill="#292524"/>
<circle cx="195" cy="170" r="1" fill="#292524"/>
<path d="M189 177.214L195.641 175" stroke="black" stroke-linecap="round"/>
<circle cx="251" cy="173" r="12" fill="#C3CCFF"/>
<path d="M255 176C255 176 253.645 177 251.608 177C249.165 177 248 176 248 176" stroke="#434340" stroke-linecap="round"/>
<circle cx="248" cy="170" r="1" fill="#292524"/>
<circle cx="254" cy="170" r="1" fill="#292524"/>
<circle cx="310" cy="173" r="12" fill="#0CCA4A"/>
<path d="M303 172C303 172 303.968 170 305.423 170C307.168 170 308 172 308 172" stroke="#434340" stroke-linecap="round"/>
<path d="M312 172C312 172 312.968 170 314.423 170C316.168 170 317 172 317 172" stroke="#434340" stroke-linecap="round"/>
<path d="M314 178C314 178 312.645 179 310.608 179C308.165 179 307 178 307 178" stroke="#434340" stroke-linecap="round"/>
<rect x="63" y="133" width="256" height="8" rx="4" fill="#ECEFFF"/>
<rect x="243" y="130" width="14" height="14" rx="7" stroke="#3350E9" stroke-width="6"/>
<circle cx="191.5" cy="62.5" r="17.5" fill="#C3CCFF"/>
<path d="M197.333 66.875C197.333 66.875 195.358 68.3333 192.387 68.3333C188.823 68.3333 187.125 66.875 187.125 66.875" stroke="#434340" stroke-linecap="round"/>
<circle cx="187.125" cy="58.125" r="1.45833" fill="#292524"/>
<circle cx="195.875" cy="58.125" r="1.45833" fill="#292524"/>
<path d="M180.206 97.276V95.876H184.924C184.943 96.5947 184.849 97.276 184.644 97.92C184.439 98.5547 184.131 99.1193 183.72 99.614C183.309 100.109 182.796 100.501 182.18 100.79C181.573 101.07 180.883 101.21 180.108 101.21C179.371 101.21 178.689 101.089 178.064 100.846C177.439 100.594 176.893 100.239 176.426 99.782C175.969 99.3247 175.614 98.7833 175.362 98.158C175.11 97.5327 174.984 96.8467 174.984 96.1C174.984 95.3533 175.11 94.672 175.362 94.056C175.623 93.4307 175.983 92.894 176.44 92.446C176.907 91.9887 177.453 91.6387 178.078 91.396C178.713 91.1533 179.399 91.032 180.136 91.032C180.78 91.032 181.363 91.1207 181.886 91.298C182.409 91.466 182.875 91.7133 183.286 92.04C183.706 92.3573 184.061 92.7447 184.35 93.202L183.006 94.098C182.735 93.6313 182.357 93.258 181.872 92.978C181.396 92.698 180.817 92.558 180.136 92.558C179.501 92.558 178.927 92.7073 178.414 93.006C177.901 93.2953 177.49 93.706 177.182 94.238C176.874 94.7607 176.72 95.3813 176.72 96.1C176.72 96.8093 176.869 97.4347 177.168 97.976C177.476 98.508 177.887 98.9233 178.4 99.222C178.913 99.5207 179.492 99.67 180.136 99.67C180.575 99.67 180.967 99.6093 181.312 99.488C181.657 99.3667 181.956 99.194 182.208 98.97C182.46 98.746 182.67 98.4893 182.838 98.2C183.006 97.9107 183.132 97.6027 183.216 97.276H180.206ZM186.002 97.78C186.002 97.1173 186.152 96.534 186.45 96.03C186.758 95.526 187.174 95.134 187.696 94.854C188.219 94.5647 188.812 94.42 189.474 94.42C190.137 94.42 190.725 94.5647 191.238 94.854C191.761 95.134 192.176 95.526 192.484 96.03C192.792 96.534 192.946 97.1173 192.946 97.78C192.946 98.4333 192.792 99.0167 192.484 99.53C192.176 100.034 191.761 100.431 191.238 100.72C190.725 101 190.137 101.14 189.474 101.14C188.812 101.14 188.219 101 187.696 100.72C187.174 100.431 186.758 100.034 186.45 99.53C186.152 99.0167 186.002 98.4333 186.002 97.78ZM187.556 97.78C187.556 98.1813 187.64 98.536 187.808 98.844C187.976 99.1427 188.205 99.3807 188.494 99.558C188.784 99.726 189.11 99.81 189.474 99.81C189.829 99.81 190.151 99.726 190.44 99.558C190.739 99.3807 190.972 99.1427 191.14 98.844C191.308 98.536 191.392 98.1813 191.392 97.78C191.392 97.3787 191.308 97.024 191.14 96.716C190.972 96.408 190.739 96.17 190.44 96.002C190.151 95.834 189.829 95.75 189.474 95.75C189.11 95.75 188.784 95.834 188.494 96.002C188.205 96.17 187.976 96.408 187.808 96.716C187.64 97.024 187.556 97.3787 187.556 97.78ZM193.891 97.78C193.891 97.1173 194.04 96.534 194.339 96.03C194.647 95.526 195.062 95.134 195.585 94.854C196.108 94.5647 196.7 94.42 197.363 94.42C198.026 94.42 198.614 94.5647 199.127 94.854C199.65 95.134 200.065 95.526 200.373 96.03C200.681 96.534 200.835 97.1173 200.835 97.78C200.835 98.4333 200.681 99.0167 200.373 99.53C200.065 100.034 199.65 100.431 199.127 100.72C198.614 101 198.026 101.14 197.363 101.14C196.7 101.14 196.108 101 195.585 100.72C195.062 100.431 194.647 100.034 194.339 99.53C194.04 99.0167 193.891 98.4333 193.891 97.78ZM195.445 97.78C195.445 98.1813 195.529 98.536 195.697 98.844C195.865 99.1427 196.094 99.3807 196.383 99.558C196.672 99.726 196.999 99.81 197.363 99.81C197.718 99.81 198.04 99.726 198.329 99.558C198.628 99.3807 198.861 99.1427 199.029 98.844C199.197 98.536 199.281 98.1813 199.281 97.78C199.281 97.3787 199.197 97.024 199.029 96.716C198.861 96.408 198.628 96.17 198.329 96.002C198.04 95.834 197.718 95.75 197.363 95.75C196.999 95.75 196.672 95.834 196.383 96.002C196.094 96.17 195.865 96.408 195.697 96.716C195.529 97.024 195.445 97.3787 195.445 97.78ZM207.114 90.08H208.64V101H207.114V90.08ZM201.78 97.78C201.78 97.0707 201.924 96.4687 202.214 95.974C202.503 95.47 202.886 95.0873 203.362 94.826C203.847 94.5553 204.365 94.42 204.916 94.42C205.457 94.42 205.928 94.5553 206.33 94.826C206.74 95.0967 207.062 95.484 207.296 95.988C207.538 96.4827 207.66 97.08 207.66 97.78C207.66 98.4707 207.538 99.068 207.296 99.572C207.062 100.076 206.74 100.463 206.33 100.734C205.928 101.005 205.457 101.14 204.916 101.14C204.365 101.14 203.847 101.009 203.362 100.748C202.886 100.477 202.503 100.09 202.214 99.586C201.924 99.082 201.78 98.48 201.78 97.78ZM203.348 97.78C203.348 98.2093 203.436 98.578 203.614 98.886C203.791 99.194 204.024 99.4273 204.314 99.586C204.612 99.7447 204.934 99.824 205.28 99.824C205.569 99.824 205.854 99.7447 206.134 99.586C206.423 99.4273 206.656 99.1987 206.834 98.9C207.02 98.592 207.114 98.2187 207.114 97.78C207.114 97.3413 207.02 96.9727 206.834 96.674C206.656 96.366 206.423 96.1327 206.134 95.974C205.854 95.8153 205.569 95.736 205.28 95.736C204.934 95.736 204.612 95.8153 204.314 95.974C204.024 96.1327 203.791 96.366 203.614 96.674C203.436 96.982 203.348 97.3507 203.348 97.78Z" fill="#292524"/>
<path d="M64.1338 194.988L63.3428 197H62.376L65.1836 190.12H66.2432L69.0068 197H68.0547L67.2686 194.988H64.1338ZM65.7012 190.823C65.6458 191.006 65.5791 191.209 65.501 191.434C65.4261 191.655 65.3561 191.85 65.291 192.02L64.417 194.261H66.9902L66.1064 191.99C66.0609 191.876 66.0007 191.715 65.9258 191.507C65.8509 191.299 65.776 191.071 65.7012 190.823ZM72.2783 193.265L71.3213 197H70.3057L68.8262 191.717H69.6953L70.6035 195.374C70.6296 195.478 70.6605 195.61 70.6963 195.77C70.7321 195.929 70.7663 196.097 70.7988 196.272C70.8346 196.119 70.8704 195.966 70.9062 195.813C70.9453 195.66 70.9844 195.509 71.0234 195.359L71.9854 191.717H72.9277L73.8506 195.345C73.8896 195.498 73.9271 195.652 73.9629 195.809C74.002 195.965 74.0394 196.119 74.0752 196.272C74.111 196.116 74.1468 195.953 74.1826 195.784C74.2217 195.612 74.2575 195.46 74.29 195.33L75.2275 191.717H76.0869L74.5732 197H73.5527L72.6299 193.265C72.5973 193.128 72.5664 192.991 72.5371 192.854C72.5111 192.715 72.4834 192.576 72.4541 192.439C72.4411 192.511 72.4167 192.633 72.3809 192.806C72.3483 192.975 72.3141 193.128 72.2783 193.265ZM77.8301 192.356V197H76.9512V192.356H76.209V191.717H76.9512V191.121C76.9512 190.639 77.057 190.293 77.2686 190.081C77.4801 189.869 77.804 189.764 78.2402 189.764C78.4844 189.764 78.6911 189.783 78.8604 189.822V190.491C78.7041 190.465 78.5739 190.452 78.4697 190.452C78.2451 190.452 78.0824 190.509 77.9814 190.623C77.8805 190.737 77.8301 190.944 77.8301 191.243V191.717H78.8604V192.356H77.8301ZM82.8643 196.097C82.6624 196.461 82.4281 196.72 82.1611 196.873C81.8975 197.023 81.5687 197.098 81.1748 197.098C80.5954 197.098 80.1706 196.954 79.9004 196.668C79.6335 196.378 79.5 195.901 79.5 195.237V191.717H80.3838V195.066C80.3838 195.594 80.4652 195.952 80.6279 196.141C80.7939 196.326 81.0755 196.419 81.4727 196.419C81.8958 196.419 82.2295 196.274 82.4736 195.984C82.7178 195.695 82.8398 195.293 82.8398 194.778V191.717H83.7188V195.872C83.7188 196.178 83.7204 196.425 83.7236 196.614C83.7301 196.803 83.7383 196.932 83.748 197H82.918C82.9147 196.984 82.9082 196.907 82.8984 196.771C82.8919 196.634 82.8854 196.409 82.8789 196.097H82.8643ZM85.9697 189.754V197H85.0908V189.754H85.9697Z" fill="#4F4F4F"/>
<path d="M300.455 196.341C300.904 196.341 301.323 196.272 301.71 196.136C302.101 195.999 302.416 195.813 302.657 195.579V194.339H300.602V193.558H303.517V195.931C303.152 196.302 302.704 196.59 302.174 196.795C301.646 196.997 301.074 197.098 300.455 197.098C299.739 197.098 299.122 196.953 298.604 196.663C298.087 196.373 297.688 195.962 297.408 195.428C297.128 194.891 296.988 194.257 296.988 193.528C296.988 192.412 297.288 191.548 297.887 190.936C298.486 190.324 299.327 190.018 300.411 190.018C301.173 190.018 301.791 190.146 302.267 190.403C302.742 190.66 303.108 191.072 303.365 191.639L302.477 191.902C302.281 191.512 302.011 191.227 301.666 191.048C301.324 190.869 300.898 190.779 300.387 190.779C299.592 190.779 298.985 191.02 298.565 191.502C298.146 191.98 297.936 192.656 297.936 193.528C297.936 194.397 298.159 195.084 298.604 195.589C299.05 196.09 299.667 196.341 300.455 196.341ZM305.841 194.246V197H304.962V192.947C304.962 192.762 304.959 192.566 304.952 192.361C304.949 192.156 304.942 191.941 304.933 191.717H305.763C305.769 191.867 305.774 192.002 305.777 192.122C305.784 192.243 305.789 192.348 305.792 192.439C305.795 192.527 305.797 192.602 305.797 192.664C305.8 192.723 305.802 192.767 305.802 192.796H305.821C305.919 192.477 306.026 192.229 306.144 192.054C306.257 191.891 306.388 191.779 306.534 191.717C306.681 191.652 306.861 191.619 307.076 191.619C307.197 191.619 307.315 191.635 307.433 191.668V192.474C307.322 192.441 307.166 192.425 306.964 192.425C306.599 192.425 306.321 192.583 306.129 192.898C305.937 193.211 305.841 193.66 305.841 194.246ZM308.946 194.544C308.946 195.149 309.072 195.617 309.322 195.945C309.573 196.274 309.939 196.438 310.421 196.438C310.802 196.438 311.106 196.362 311.334 196.209C311.565 196.056 311.721 195.862 311.803 195.628L312.574 195.848C312.258 196.681 311.541 197.098 310.421 197.098C309.64 197.098 309.044 196.865 308.634 196.399C308.227 195.934 308.023 195.242 308.023 194.324C308.023 193.452 308.227 192.783 308.634 192.317C309.044 191.852 309.628 191.619 310.387 191.619C311.165 191.619 311.747 191.854 312.135 192.322C312.522 192.791 312.716 193.493 312.716 194.427V194.544H308.946ZM311.808 193.87C311.759 193.313 311.617 192.908 311.383 192.654C311.148 192.397 310.812 192.269 310.372 192.269C309.946 192.269 309.607 192.412 309.356 192.698C309.109 192.981 308.976 193.372 308.956 193.87H311.808ZM315.187 197.098C314.656 197.098 314.257 196.958 313.99 196.678C313.723 196.398 313.59 196.014 313.59 195.525C313.59 194.979 313.769 194.559 314.127 194.266C314.488 193.973 315.069 193.816 315.87 193.797L317.057 193.777V193.489C317.057 193.06 316.965 192.752 316.783 192.566C316.601 192.381 316.314 192.288 315.924 192.288C315.53 192.288 315.243 192.355 315.064 192.488C314.885 192.622 314.778 192.835 314.742 193.128L313.824 193.045C313.974 192.094 314.68 191.619 315.943 191.619C316.607 191.619 317.107 191.772 317.442 192.078C317.778 192.381 317.945 192.82 317.945 193.396V195.672C317.945 195.932 317.979 196.129 318.048 196.263C318.116 196.393 318.246 196.458 318.438 196.458C318.53 196.458 318.626 196.447 318.727 196.424V196.971C318.616 196.997 318.504 197.016 318.39 197.029C318.276 197.042 318.162 197.049 318.048 197.049C317.722 197.049 317.485 196.964 317.335 196.795C317.188 196.622 317.105 196.354 317.086 195.989H317.057C316.832 196.393 316.57 196.679 316.271 196.849C315.974 197.015 315.613 197.098 315.187 197.098ZM317.057 194.393L316.095 194.412C315.685 194.415 315.372 194.458 315.157 194.539C314.942 194.617 314.778 194.738 314.664 194.9C314.55 195.063 314.493 195.276 314.493 195.54C314.493 195.826 314.57 196.048 314.723 196.204C314.879 196.36 315.1 196.438 315.387 196.438C315.712 196.438 315.999 196.365 316.246 196.219C316.497 196.072 316.694 195.872 316.837 195.618C316.983 195.361 317.057 195.097 317.057 194.827V194.393ZM321.437 196.961C321.15 197.039 320.854 197.078 320.548 197.078C320.196 197.078 319.933 196.979 319.757 196.78C319.581 196.578 319.493 196.279 319.493 195.882V192.356H318.883V191.717H319.527L319.786 190.535H320.372V191.717H321.349V192.356H320.372V195.691C320.372 195.945 320.413 196.124 320.494 196.229C320.579 196.329 320.724 196.38 320.929 196.38C321.039 196.38 321.209 196.357 321.437 196.312V196.961Z" fill="#4F4F4F"/>
</g>
<defs>
<filter id="filter0_d_2_2403" x="0" y="0" width="383" height="242" filterUnits="userSpaceOnUse" color-interpolation-filters="sRGB">
<feFlood flood-opacity="0" result="BackgroundImageFix"/>
<feColorMatrix in="SourceAlpha" type="matrix" values="0 0 0 0 0 0 0 0 0 0 0 0 0 0 0 0 0 0 127 0" result="hardAlpha"/>
<feOffset dy="4"/>
<feGaussianBlur stdDeviation="10"/>
<feComposite in2="hardAlpha" operator="out"/>
<feColorMatrix type="matrix" values="0 0 0 0 0.9 0 0 0 0 0.9 0 0 0 0 0.9 0 0 0 1 0"/>
<feBlend mode="normal" in2="BackgroundImageFix" result="effect1_dropShadow_2_2403"/>
<feBlend mode="normal" in="SourceGraphic" in2="effect1_dropShadow_2_2403" result="shape"/>
</filter>
</defs>
</svg>
