<svg width="306" height="905" viewBox="0 0 306 905" fill="none" xmlns="http://www.w3.org/2000/svg">
<path d="M-35.5594 14.8838C-9.89759 66.1792 -26.1591 107.702 -39.2781 141.052C-50.9616 170.737 -60.144 194.235 -44.9407 224.624C-29.7375 255.014 -5.50511 261.6 25.1569 269.851C59.6012 279.128 102.367 290.711 128.105 342.032C153.842 393.353 137.505 434.85 124.41 468.124C112.727 497.808 103.545 521.306 118.748 551.696C133.951 582.086 158.183 588.671 188.845 596.923C223.29 606.2 266.056 617.783 291.718 669.078C317.379 720.373 301.118 761.896 287.999 795.246C276.315 824.931 267.133 848.429 282.336 878.819C288.789 891.592 283.758 907.174 271.139 913.497C258.596 919.845 243.157 914.624 236.78 901.876C211.042 850.556 227.379 809.059 240.474 775.784C252.157 746.1 261.339 722.602 246.136 692.212C230.933 661.823 206.701 655.237 176.039 646.985C141.594 637.709 98.8285 626.126 73.1667 574.83C47.4539 523.433 63.7664 482.012 76.8854 448.662C88.5689 418.978 97.7266 395.556 82.5481 365.09C67.3695 334.624 43.1124 328.115 12.4504 319.863C-21.9183 310.612 -64.7598 299.003 -90.4216 247.708C-116.134 196.311 -99.8219 154.89 -86.7275 121.616C-75.044 91.9316 -65.8617 68.4335 -81.0649 38.0438C-87.4421 25.2964 -82.4107 9.71412 -69.8676 3.36559C-57.2998 -3.05933 -41.9365 2.13645 -35.5594 14.8838Z" fill="#FBE7FF"/>
</svg>
