<svg width="123" height="77" viewBox="0 0 123 77" fill="none" xmlns="http://www.w3.org/2000/svg">
<g clip-path="url(#clip0_1337_48)">
<path d="M2.00512 102.482L2.00634 102.373C2.03267 100.002 2.14416 97.6079 2.33406 95.2511L4.1395 95.3985C3.95014 97.7068 3.84512 100.065 3.81926 102.393L2.00512 102.482ZM2.18542 109.724L3.99372 109.617C4.1373 111.978 4.36555 114.357 4.67311 116.695L2.87548 116.936C2.56839 114.556 2.3346 112.127 2.18542 109.724ZM3.17192 88.0624C3.53793 85.6833 3.98903 83.2869 4.51834 80.946L6.28459 81.3476C5.7618 83.6462 5.31729 85.9941 4.95775 88.3369L3.17192 88.0624ZM4.08789 124.069L5.86262 123.706C6.33422 126.016 6.9027 128.339 7.54448 130.614L5.80472 131.104C5.14523 128.786 4.57113 126.421 4.08789 124.069ZM6.37287 73.9444C7.07155 71.6418 7.8612 69.3401 8.72905 67.0939L10.4137 67.7433C9.56453 69.9473 8.79354 72.2067 8.10746 74.467L6.37287 73.9444ZM8.01428 137.999L9.71301 137.381C10.513 139.603 11.4102 141.821 12.3626 143.972L10.705 144.705C9.74085 142.518 8.83202 140.264 8.01428 137.999ZM11.5623 60.4246C12.581 58.2468 13.6966 56.0761 14.8721 53.9789L16.451 54.8636C15.2942 56.9247 14.2032 59.0532 13.1971 61.1947L11.5623 60.4246ZM13.8952 151.211L15.4874 150.362C16.5982 152.442 17.7941 154.511 19.0575 156.508L17.5187 157.473C16.2436 155.434 15.0178 153.328 13.8952 151.211ZM18.6399 47.7869C19.966 45.7762 21.3767 43.7908 22.8352 41.8786L24.2722 42.98C22.8385 44.85 21.4524 46.8054 20.151 48.78L18.6399 47.7869ZM21.5939 163.461L23.0552 162.386C24.453 164.287 25.93 166.166 27.4623 167.971L26.085 169.139C24.5226 167.302 23.0157 165.393 21.5939 163.461ZM27.4393 36.2841C29.0359 34.4826 30.7111 32.7123 32.4277 31.0334L33.6989 32.3271C32.013 33.976 30.3685 35.7102 28.8025 37.4817L27.4393 36.2841ZM30.9616 174.493L32.2552 173.228C33.9041 174.914 35.6383 176.564 37.4098 178.13L36.2061 179.487C34.4047 177.89 32.6405 176.209 30.9616 174.493ZM37.7698 26.1506C39.6063 24.5943 41.5151 23.0752 43.4471 21.6595L44.5224 23.1208C42.621 24.5186 40.7428 26.0017 38.943 27.5341L37.7698 26.1506ZM41.7945 184.097L42.8959 182.66C44.778 184.1 46.7274 185.486 48.6959 186.788L47.6967 188.299C45.6921 186.972 43.7066 185.562 41.7945 184.097ZM49.4351 17.5843C51.4687 16.3031 53.5744 15.0773 55.6912 13.9486L56.5467 15.5408C54.4665 16.6517 52.3974 17.8597 50.4066 19.1171L49.4351 17.5843ZM53.8826 192.066L54.7734 190.487C56.8405 191.65 58.9689 192.747 61.1045 193.747L60.3343 195.382C58.1565 194.364 55.9919 193.248 53.8826 192.066ZM62.1848 10.7583C64.3787 9.78209 66.6325 8.87326 68.8914 8.04938L69.5092 9.75418C67.287 10.5542 65.0697 11.4513 62.9184 12.4098L62.1848 10.7583ZM66.9913 198.24L67.6407 196.549C69.8507 197.398 72.11 198.181 74.3642 198.867L73.8356 200.602C71.5452 199.897 69.2436 199.101 66.9913 198.24ZM75.7867 5.82768C78.1044 5.17425 80.4697 4.59412 82.8219 4.1048L83.1903 5.8796C80.8868 6.35733 78.5579 6.92574 76.2828 7.56751L75.7867 5.82768ZM80.8372 202.456L81.2388 200.69C83.5374 201.213 85.8913 201.663 88.228 202.023L87.9534 203.815C85.5743 203.449 83.178 202.992 80.8372 202.456ZM89.9607 2.89244C92.3353 2.57317 94.7635 2.33938 97.1665 2.19022L97.2798 3.99856C94.9193 4.14214 92.5396 4.37646 90.2015 4.68402L89.9607 2.89244ZM95.1421 204.659L95.2895 202.853C97.6402 203.049 100.028 203.161 102.393 203.187L102.829 203.192L102.821 205.005L102.373 205C99.9657 204.967 97.5291 204.855 95.1421 204.659ZM104.383 3.81064L104.403 2.00377L104.627 2.00626C106.962 2.03219 109.319 2.13721 111.634 2.32058L111.487 4.12603C109.215 3.94313 106.893 3.84458 104.601 3.81913L104.383 3.8167L104.383 3.81064ZM109.945 202.986C112.299 202.836 114.679 202.602 117.017 202.282L117.258 204.074C114.877 204.393 112.455 204.639 110.052 204.788L109.945 202.986ZM118.56 4.94442L118.835 3.15251C121.214 3.51245 123.61 3.96355 125.951 4.49287L125.55 6.25912C123.245 5.73627 120.897 5.29783 118.56 4.94442ZM124.029 201.074C126.332 200.597 128.655 200.022 130.93 199.368L131.426 201.108C129.109 201.774 126.737 202.354 124.397 202.849L124.029 201.074ZM132.424 8.06979L132.947 6.33521C135.25 7.0339 137.551 7.82353 139.798 8.67926L139.148 10.37C136.944 9.52685 134.685 8.74982 132.424 8.06979ZM137.692 197.169C139.902 196.363 142.113 195.466 144.271 194.495L145.01 196.141C142.816 197.129 140.563 198.044 138.31 198.868L137.692 197.169ZM145.703 13.1534L146.473 11.5125C148.657 12.5313 150.827 13.6469 152.925 14.8224L152.04 16.4014C149.979 15.2506 147.85 14.1596 145.703 13.1534ZM150.649 191.358C152.729 190.241 154.792 189.033 156.783 187.77L157.754 189.303C155.727 190.59 153.621 191.822 151.504 192.957L150.649 191.358ZM158.124 20.0952L159.117 18.5842C161.122 19.8981 163.113 21.3089 165.031 22.7734L163.93 24.2105C162.048 22.7706 160.098 21.3846 158.124 20.0952ZM162.649 183.748C164.551 182.344 166.423 180.855 168.216 179.322L169.39 180.7C167.565 182.256 165.656 183.775 163.718 185.203L162.649 183.748ZM169.428 28.7226L170.626 27.3654C172.427 28.956 174.198 30.6312 175.883 32.3478L174.589 33.6191C172.94 31.9271 171.2 30.2826 169.428 28.7226ZM173.461 174.517C175.147 172.856 176.791 171.116 178.351 169.344L179.708 170.542C178.124 172.343 176.449 174.114 174.732 175.805L173.461 174.517ZM179.4 38.8633L180.778 37.6901C182.334 39.5205 183.847 41.4232 185.275 43.3614L183.814 44.4367C182.416 42.5292 180.927 40.657 179.4 38.8633ZM182.857 163.846C184.285 161.969 185.671 160.014 186.966 158.039L188.484 159.026C187.163 161.043 185.759 163.035 184.3 164.947L182.857 163.846ZM187.829 50.3089L189.356 49.3374C190.643 51.3771 191.869 53.4767 193.004 55.5936L191.406 56.449C190.295 54.3688 189.093 52.3058 187.829 50.3089ZM190.648 151.943C191.799 149.876 192.89 147.742 193.89 145.606L195.531 146.37C194.518 148.548 193.409 150.713 192.233 152.822L190.648 151.943ZM194.543 62.8269L196.194 62.0872C197.177 64.2751 198.092 66.535 198.909 68.7878L197.205 69.4056C196.398 67.1954 195.501 64.9781 194.543 62.8269ZM196.668 139.045C197.511 136.841 198.282 134.576 198.962 132.315L200.696 132.844C200.004 135.147 199.214 137.455 198.358 139.695L196.668 139.045ZM199.397 76.1732L201.137 75.6771C201.797 78.0009 202.377 80.3662 202.866 82.7124L201.091 83.0808C200.62 80.7773 200.045 78.4544 199.397 76.1732ZM200.766 125.441C201.283 123.142 201.722 120.788 202.075 118.451L203.867 118.72C203.507 121.099 203.062 123.495 202.533 125.836L200.766 125.441ZM202.299 90.0921L204.091 89.8513C204.41 92.2319 204.65 94.6602 204.799 97.0572L202.991 97.1705C202.847 94.81 202.613 92.4242 202.299 90.0921ZM202.881 111.383C203.058 109.148 203.156 106.869 203.181 104.607L203.185 104.274L204.998 104.294L204.994 104.627C204.968 106.925 204.864 109.247 204.687 111.525L202.881 111.383Z" fill="#3350E9"/>
</g>
<defs>
<clipPath id="clip0_1337_48">
<rect width="203" height="203" fill="white" transform="translate(206.121 3.13354) rotate(90.6364)"/>
</clipPath>
</defs>
</svg>
