<svg width="319" height="223" viewBox="0 0 319 223" fill="none" xmlns="http://www.w3.org/2000/svg">
<path fill-rule="evenodd" clip-rule="evenodd" d="M104.316 54.776C105.128 55.7738 103.963 56.7678 104.449 60.0988C104.783 62.3979 104.536 61.9464 105.102 64.6287C105.398 66.0248 105.151 65.763 105.049 65.9376C103.746 65.1484 103.754 62.4662 103.56 60.5768C103.378 58.7785 102.789 55.0947 104.316 54.776ZM103.146 41.782C98.9274 52.2038 99.3792 62.1513 104.441 72.1216C104.976 73.1763 105.918 74.3448 106.613 75.3502C113.798 85.734 127.1 76.0444 124.468 58.9986C122.702 47.5335 121.138 30.7229 125.11 20.6995C123.944 21.0333 116.554 25.2673 115.104 26.8493L109.833 32.3391C108.979 33.261 108.31 34.4257 107.46 35.34C105.759 37.1724 104.179 39.2211 103.146 41.782ZM119.459 30.9733C119.345 32.6843 119.801 34.9872 118.502 35.6056C118.206 34.2284 118.43 29.0232 118.757 27.7599C119.068 26.5534 118.977 26.3372 119.968 26.4434C120.401 27.1263 119.532 29.8768 119.459 30.9733ZM107.433 61.7567C107.441 64.1089 109.191 70.1184 109.203 70.3005C108.565 70.0691 108.933 70.4788 108.436 69.6404L107.175 65.7896C106.962 64.7766 106.093 60.4782 106.928 59.9812C107.862 59.4273 107.433 61.1118 107.433 61.7567ZM114.417 72.6793C114.686 73.4229 114.629 73.4608 114.344 73.9312C113.748 73.3508 113.547 72.7703 113.896 71.837C114.071 72.0647 114.291 72.3226 114.417 72.6793ZM111.971 71.4614C112.317 72.1443 112.358 72.114 112.1 72.6717C111.307 72.4782 111.272 72.1481 110.722 70.5547C110.399 69.629 109.978 68.6122 110.479 67.6941C111.018 68.3429 111.208 69.9553 111.971 71.4614ZM118.867 40.1355L118.127 39.5284C118.218 38.8 118.582 38.9404 119.171 39.0846C119.175 39.7561 119.137 39.7788 118.867 40.1355ZM119.968 51.1453C119.144 50.5648 117.496 44.6881 118.502 43.7434C119.194 44.1342 119.19 45.4469 119.471 47.3286C119.6 48.1898 120.257 50.6559 119.968 51.1453Z" fill="#A920C9" stroke="#A920C9" stroke-width="0.287999"/>
<path fill-rule="evenodd" clip-rule="evenodd" d="M104.635 77.3419C102.353 73.8819 99.8805 67.3868 99.2501 63.168C97.4844 51.2818 99.721 55.6561 95.2933 52.4465C93.2846 50.9897 88.4582 48.9296 85.9026 47.6435C80.7914 45.075 77.4384 44.4301 70.5235 44.1076C70.9336 44.9878 71.1387 45.0333 71.8564 45.8073L75.0727 50.6406C76.565 53.2622 77.2599 55.144 78.5131 57.959C79.1548 59.4007 79.4928 60.5692 80.0548 62.0336C80.5636 63.3653 81.2129 64.4731 81.7218 65.7403C82.2724 67.106 82.5952 68.4339 83.161 69.6821C83.7685 71.0327 84.1976 72.1595 84.733 73.4646C86.7608 78.3662 90.2125 83.2603 94.4541 85.5594C96.8161 86.8418 100.177 87.4753 103.328 86.4624C106.362 85.4836 107.783 83.4728 109.674 82.0273C107.623 80.0242 106.621 80.3618 104.635 77.3419ZM85.9823 60.315C85.1887 59.8332 83.0432 56.2518 83.1572 55.4399C83.2597 54.7229 83.3736 55.0757 83.5255 54.9505L85.9823 60.315ZM76.7777 49.1383C77.5523 48.7323 77.6852 49.5556 78.008 50.1588C78.8814 51.7826 82.4319 62.1323 82.3028 62.3713C81.1864 61.567 79.3409 54.7949 77.9169 52.2303C76.9258 50.4396 75.8815 49.6049 76.7777 49.1383ZM87.0342 70.9341C87.3646 71.4918 87.6304 71.9584 87.9987 72.4402C89.6961 74.6596 88.8607 73.4001 88.6101 73.7643C87.9342 73.8591 85.2305 69.6745 84.9419 68.0773C85.7697 68.4415 86.3051 69.7048 87.0342 70.9341ZM84.4179 65.4785L83.9318 65.8047C83.4875 65.414 83.2673 65.4785 83.4457 64.6097C84.1141 64.6476 84.1938 64.8525 84.4179 65.4785Z" fill="#A920C9" stroke="#A920C9" stroke-width="0.287999"/>
<path fill-rule="evenodd" clip-rule="evenodd" d="M197.137 67.5347C196.78 68.1607 196.332 69.4317 195.641 69.7238C195.728 68.7829 197.509 65.3229 198.029 64.4731C198.553 63.6195 199.013 62.9631 199.533 62.0602C199.841 61.5252 199.955 61.309 200.312 60.8765C200.646 60.4706 200.767 59.8408 201.382 60.5047C201.785 60.941 200.475 62.1588 200.129 62.69C199.609 63.4867 199.157 64.2265 198.607 65.0801C198.026 65.9755 197.676 66.5977 197.137 67.5347ZM198.838 59.689C195.06 64.0899 192.216 70.1108 189.254 75.5284C187.477 78.776 186.918 81.8983 187.906 85.9957C188.441 88.2075 191.547 92.3884 192.987 93.4127C195.728 95.3552 200.881 94.3991 203.448 92.8854C206.266 91.2275 207.937 88.7842 209.862 86.5724C213.853 81.978 211.992 84.2923 215.425 79.4171C217.384 76.64 220.555 70.3688 222.074 66.9846C222.795 65.3722 223.187 63.8774 223.874 62.4434C226.718 56.5022 227.014 52.7311 226.726 46.6078C226.589 43.7016 226.308 43.4133 225.738 41.156C224.743 37.2331 222.769 34.1032 222.298 32.0924C221.011 32.7487 220.183 34.1942 219.169 35.5183L210.086 45.4999C206.186 49.3204 202.639 55.2616 198.838 59.689ZM203.437 80.3315C203.6 80.0204 206.452 77.9413 206.923 77.5278C209.296 75.4336 209.862 75.646 209.338 74.5724C209.782 74.3296 210.344 73.7832 210.99 73.7719C213.697 73.7187 209.129 76.7728 208.981 76.8904C207.549 77.9982 204.568 80.9423 203.437 80.3315ZM199.556 89.3609C199.769 88.2037 199.579 89.2471 201.846 87.8699C202.738 87.3274 203.33 86.9783 204.287 86.561C203.953 87.4032 200.437 89.3229 199.556 89.3609ZM202.719 84.2467C203 83.6359 206.042 81.9211 206.664 81.4393C207.45 80.8323 207.883 80.5932 208.639 79.9862C209.516 79.2768 209.531 78.9391 210.196 78.1917C210.777 79.4892 210.177 79.8231 209.376 80.468C208.271 81.3558 203.873 84.8613 202.719 84.2467ZM216.473 50.8531C216.302 52.549 211.571 50.9935 211.058 50.4282C208.153 47.211 217.544 43.2957 217.16 45.5682C217.035 46.308 216.515 46.0197 215.869 46.0576C213.895 46.1715 210.99 47.7801 211.779 49.6884C212.976 51.1149 215 50.174 216.473 50.8531ZM206.019 55.3678C205.316 56.0848 204.428 57.6555 203.619 57.978C203 57.2761 203.334 57.1092 203.881 56.3959C204.576 55.493 207.067 52.6893 208.012 52.5376C208.643 53.8389 206.919 54.4459 206.019 55.3678Z" fill="#A920C9" stroke="#A920C9" stroke-width="0.287999"/>
<path fill-rule="evenodd" clip-rule="evenodd" d="M220.058 74.7772L217.878 79.2123C215.88 82.5812 210.667 89.4633 208.123 91.9217C204.739 95.1921 204.5 102.507 212.178 102.859C214.977 102.988 215.653 102.594 217.593 101.638C219.518 100.686 223.513 97.5708 224.838 95.9091C225.845 94.6457 226.471 93.3141 227.409 91.8838C228.244 90.6053 229.205 89.4102 230.06 88.1848L237.852 76.4086C238.774 75.2059 239.648 73.9009 240.438 72.6337C242.465 69.3786 243.817 67.7396 245.951 65.1977C249.752 60.664 251.135 58.6988 255.669 55.3792C257.18 54.2714 258.817 53.3343 259.261 52.3858C252.597 52.1885 240.369 52.2948 235.095 54.0931C229.627 55.9596 229.27 57.9211 227.234 59.1806C226.574 59.5904 226.965 58.8354 226.433 60.1329C226.24 60.6071 226.194 60.9448 226.027 61.4456C224.8 65.1446 224.367 65.524 223.316 68.2708C222.651 70.0159 221.987 71.1199 221.208 72.7551C220.84 73.5328 220.392 74.0336 220.058 74.7772ZM227.291 67.8269C228.305 68.229 223.783 71.192 223.714 71.2072C223.479 70.4712 223.513 70.6685 223.999 70.1753C224.508 69.6631 226.646 67.5689 227.291 67.8269ZM213.936 96.7096C214.548 96.3492 214.962 96.3719 215.736 96.1178C216.435 95.8863 216.974 95.6511 217.635 95.3286C220.901 93.7238 218.732 93.3672 220.357 93.2079C221.694 94.953 217.517 96.2088 216.26 96.5882C215.334 96.8689 214.574 97.1649 213.936 96.7096ZM230.83 63.2742C230.022 63.665 229.585 63.8737 228.958 64.3555C228.218 64.917 228.226 65.395 227.17 65.4064C227.371 64.4693 229.486 63.0959 230.352 62.5989C230.986 62.2385 233.811 60.6223 234.225 61.0283C234.92 61.7112 233.211 62.1588 232.824 62.3296C232.049 62.6596 231.601 62.9024 230.83 63.2742ZM240.312 55.6485C241.265 56.6577 238.9 56.7905 238.224 56.984L232.847 59.4197C232.27 59.7725 231.123 60.6109 230.66 60.6565C230.868 59.302 239.462 54.7456 240.312 55.6485ZM224.614 87.039C225.237 87.9496 224.273 89.8123 223.676 90.0552C223.46 89.6454 223.547 87.6802 224.614 87.039ZM227.284 84.425C227.443 82.972 226.919 82.8392 228.112 82.6002C228.75 83.7915 228.157 86.1778 227.102 86.6786C226.71 86.0147 227.193 85.2938 227.284 84.425Z" fill="#A920C9" stroke="#A920C9" stroke-width="0.287999"/>
<path fill-rule="evenodd" clip-rule="evenodd" d="M194.559 177.599C196.883 174.594 192.542 156.053 186.349 151.349C183.144 148.913 180.634 144.941 177.516 147.597C175.181 149.589 173.024 152.76 172.694 156.82C172.356 160.932 173.833 165.147 175.337 168.444C176.84 171.745 187.074 180.391 191.285 181.169C192.816 177.792 193.811 178.57 194.559 177.599ZM179.821 154.312C179.256 154.953 178.777 155.488 178.23 156.141C176.476 158.22 176.282 159.84 175.504 160.219C174.832 158.413 177.881 155.12 179.225 153.458C179.818 152.726 180.304 151.823 181.287 152.457C181.059 153.128 180.311 153.762 179.821 154.312ZM180.858 166.088C181.101 167.044 181.101 166.376 181.348 167.348C179.939 167.181 179.358 166.035 180.383 164.961C181.15 165.694 180.642 165.238 180.858 166.088ZM179.111 161.202C178.602 162.355 179.183 161.68 178.428 161.911C177.357 161.039 179.153 158.113 180.509 158.17C180.607 159.35 180.011 159.316 179.54 160.147C179.301 160.568 179.309 160.758 179.111 161.202Z" fill="#A920C9" stroke="#A920C9" stroke-width="0.287999"/>
<path fill-rule="evenodd" clip-rule="evenodd" d="M230.633 184.796C223.559 180.361 214.813 183.043 205.601 183.935L205.028 189.39C208.776 191.287 214.236 194.11 218.63 195.13C223.149 196.177 232.554 196.204 233.253 191.522C233.762 188.108 232.813 186.162 230.633 184.796Z" fill="#A920C9" stroke="#A920C9" stroke-width="0.287999"/>
<path fill-rule="evenodd" clip-rule="evenodd" d="M190.997 211.876C193.476 205.002 192.618 200.02 193.389 193.48C193.643 191.333 193.845 190.259 191.695 191.818C186.637 195.483 180.585 205.529 180.482 212.051C180.44 214.839 179.969 219.726 183.315 219.969C185.32 220.113 185.802 219.115 186.744 218.167C188.396 216.505 190.059 214.468 190.997 211.876Z" fill="#A920C9" stroke="#A920C9" stroke-width="0.287999"/>
<path fill-rule="evenodd" clip-rule="evenodd" d="M85.1545 176.263C90.9644 176.851 96.573 175.831 101.939 175.034C113.004 173.384 108.554 173.376 115.977 170.899C115.784 165.417 112.252 159.969 107.783 157.503C103.036 154.885 97.997 152.821 91.1011 153.102C83.9963 153.39 80.9319 156.057 74.8524 157.916C72.8854 158.516 69.5248 160.215 67.611 161.194C65.4313 162.313 62.272 163.288 60.3278 164.445C61.6112 165.841 63.7529 167.382 65.2339 168.751C71.7804 174.81 76.4587 175.379 85.1545 176.263ZM105.011 167.355C104.065 166.813 103.522 167.025 102.907 166.357C103.328 166.069 102.33 166.202 103.59 166.134C104.456 166.084 107.042 166.722 106.924 168.694C105.751 168.6 106.157 168.008 105.011 167.355ZM94.7389 157.711C93.7174 157.855 95.7528 157.745 94.7389 157.711V157.711ZM95.1148 157.635C95.0845 157.643 94.9933 157.677 94.9516 157.681C94.868 157.692 94.7997 157.7 94.7389 157.711C94.6971 157.707 94.6516 157.707 94.5984 157.704L92.5745 157.506C91.7201 157.529 90.6796 157.707 89.6885 157.817C85.4051 158.295 88.0367 157.912 84.3191 158.736C84.3229 157.673 84.2736 157.981 86.5443 157.449C87.5696 157.214 88.6063 157.089 89.6771 156.949C90.8733 156.786 95.9541 155.769 95.2781 157.582C95.225 157.605 95.149 157.632 95.1148 157.635ZM73.3981 169.776C74.074 169.396 75.9575 168.584 76.7739 168.691C76.7055 169.62 76.079 169.647 75.1145 169.92C73.9715 170.242 73.7322 170.796 73.3981 169.776ZM77.5219 171.312C78.4029 170.88 78.9004 170.921 79.8801 170.295C80.6054 169.829 81.5661 169.066 81.5243 170.512C81.2927 170.705 78.4029 172.712 77.5219 171.312ZM80.3395 173.198C80.5598 172.625 80.2142 172.982 80.7876 172.678L81.5547 172.488C83.1989 172.094 83.6014 171.46 85.7013 171.513C85.6975 173.418 84.8583 172.405 83.1761 172.826C82.2382 173.061 81.2737 173.604 80.3395 173.198ZM112.055 167.238C110.304 167.522 111.663 166.077 106.112 162.347C101.612 159.324 106.754 160.61 110.912 164.897C111.603 165.61 112.161 165.963 112.055 167.238ZM99.6678 158.868C99.2235 158.269 99.2349 158.254 99.421 157.844C99.4362 157.833 100.207 156.748 100.522 158.705L99.6678 158.868Z" fill="#A920C9"/>
<path d="M94.7389 157.711C93.7174 157.855 95.7528 157.745 94.7389 157.711ZM94.7389 157.711C94.7997 157.7 94.868 157.692 94.9516 157.681C94.9933 157.677 95.0845 157.643 95.1148 157.635C95.149 157.632 95.225 157.605 95.2781 157.582C95.9541 155.769 90.8733 156.786 89.6771 156.949C88.6063 157.089 87.5696 157.214 86.5443 157.449C84.2735 157.981 84.3229 157.673 84.3191 158.736C88.0367 157.912 85.4051 158.295 89.6885 157.817C90.6796 157.707 91.7201 157.529 92.5745 157.506L94.5984 157.704C94.6516 157.707 94.6971 157.707 94.7389 157.711ZM85.1545 176.263C90.9644 176.851 96.573 175.831 101.939 175.034C113.004 173.384 108.554 173.376 115.977 170.899C115.784 165.417 112.252 159.969 107.783 157.503C103.036 154.885 97.997 152.821 91.1011 153.102C83.9963 153.39 80.9319 156.057 74.8524 157.916C72.8854 158.516 69.5248 160.215 67.611 161.194C65.4313 162.313 62.272 163.288 60.3278 164.445C61.6112 165.841 63.7529 167.382 65.2339 168.751C71.7804 174.81 76.4587 175.379 85.1545 176.263ZM105.011 167.355C104.065 166.813 103.522 167.025 102.907 166.357C103.328 166.069 102.33 166.202 103.59 166.134C104.456 166.084 107.042 166.722 106.924 168.694C105.751 168.6 106.157 168.008 105.011 167.355ZM73.3981 169.776C74.074 169.396 75.9575 168.584 76.7739 168.691C76.7055 169.62 76.079 169.647 75.1145 169.92C73.9715 170.242 73.7322 170.796 73.3981 169.776ZM77.5219 171.312C78.4029 170.88 78.9004 170.921 79.8801 170.295C80.6054 169.829 81.5661 169.066 81.5243 170.512C81.2927 170.705 78.4029 172.712 77.5219 171.312ZM80.3395 173.198C80.5598 172.625 80.2142 172.982 80.7876 172.678L81.5547 172.488C83.1989 172.094 83.6014 171.46 85.7013 171.513C85.6975 173.418 84.8583 172.405 83.1761 172.826C82.2382 173.061 81.2737 173.604 80.3395 173.198ZM112.055 167.238C110.304 167.522 111.663 166.077 106.112 162.347C101.612 159.324 106.754 160.61 110.912 164.897C111.603 165.61 112.161 165.963 112.055 167.238ZM99.6678 158.868C99.2235 158.269 99.2349 158.254 99.421 157.844C99.4362 157.833 100.207 156.748 100.522 158.705L99.6678 158.868Z" stroke="#A920C9" stroke-width="0.287999"/>
<path fill-rule="evenodd" clip-rule="evenodd" d="M96.3528 179.902C95.0199 181.305 93.687 182.102 92.2972 183.426C89.7113 185.885 86.6544 188.271 83.8824 190.407C80.0775 193.336 79.0257 193.503 75.1828 195.358C74.9512 195.472 74.7499 195.589 74.5259 195.794C74.3816 195.923 74.3132 195.969 74.2828 195.976C74.2525 196.041 74.1955 196.155 74.0892 196.337C78.5738 199.125 81.023 199.698 87.9379 199.652C96.2009 199.603 106.795 195.028 110.543 187.96C111.982 185.251 114.587 178.395 114.671 174.89C112.438 175.482 110.946 176.206 108.447 176.578C107.156 176.772 106.488 177.071 105.276 177.295C102.998 177.713 98.1603 178.001 96.3528 179.902ZM108.257 184.082C108.25 184.071 106.249 181.537 106.769 181.025C107.612 180.198 108.603 182.986 108.907 183.529L108.257 184.082ZM107.221 178.562C107.331 178.505 106.902 178.13 107.878 178.433C108.272 178.555 109.708 180.88 110.555 181.772L109.943 182.413C109.94 182.413 106.959 179.397 107.221 178.562ZM103.093 190.999C102.428 189.253 103.89 187.744 103.959 189.003C104.095 191.606 103.389 190.976 103.093 190.999ZM105.785 187.546C105.516 187.099 105.5 186.48 105.345 185.873C105.106 184.932 104.821 184.963 105.785 184.682C106.127 184.97 107.429 187.296 105.785 187.546Z" fill="#A920C9" stroke="#A920C9" stroke-width="0.287999"/>
<path fill-rule="evenodd" clip-rule="evenodd" d="M12.8159 117.978C18.1018 125.737 26.7558 118.335 21.3219 113.403C20.0954 112.291 15.812 109.047 13.5868 110.106C10.6704 111.491 11.0274 115.349 12.8159 117.978Z" fill="#A920C9" stroke="#A920C9" stroke-width="0.287999"/>
<path fill-rule="evenodd" clip-rule="evenodd" d="M18.3941 143.272C10.3249 146.417 10.2831 155.128 16.2031 154.13C20.0346 153.481 23.6572 147.783 22.1117 144.653C21.5383 143.496 19.7802 142.729 18.3941 143.272Z" fill="#A920C9" stroke="#A920C9" stroke-width="0.287999"/>
<path fill-rule="evenodd" clip-rule="evenodd" d="M44.9031 129.462C39.8109 133.138 44.2994 137.729 50.2155 134.322C53.5078 132.429 51.5522 129.675 51.4573 128.48C49.7067 128.176 48.0283 127.205 44.9031 129.462Z" fill="#A920C9" stroke="#A920C9" stroke-width="0.287999"/>
<path fill-rule="evenodd" clip-rule="evenodd" d="M32.2543 132.452C33.0745 130.175 30.9936 128.184 28.8367 128.81C22.6357 130.623 23.8699 136.003 28.176 135.768C30.1734 135.657 31.7303 133.909 32.2543 132.452Z" fill="#A920C9" stroke="#A920C9" stroke-width="0.287999"/>
<path fill-rule="evenodd" clip-rule="evenodd" d="M280.518 129.565C279.227 132.171 279.098 132.634 281.232 134.273C284.832 137.042 288.379 132.232 289.715 129.432C292.335 123.953 293.794 122.22 292.183 117.898C286.985 117.61 282.5 125.57 280.518 129.565Z" fill="#A920C9" stroke="#A920C9" stroke-width="0.287999"/>
<path fill-rule="evenodd" clip-rule="evenodd" d="M264.277 160.056L260.427 162.51C258.604 163.929 254.697 166.646 253.804 168.622C252.756 170.937 254.021 171.786 256.056 172.136C260.165 172.841 262.808 170.242 264.573 168.11C266.662 165.587 268.447 161.642 264.277 160.056Z" fill="#A920C9" stroke="#A920C9" stroke-width="0.287999"/>
<path fill-rule="evenodd" clip-rule="evenodd" d="M251.074 152.464C259.109 153.257 261.467 145.453 259.5 144.478C258.247 143.856 255.467 144.065 254.233 144.292C251.868 144.725 245.306 144.482 244.842 146.811C244.224 149.945 248.332 152.191 251.074 152.464Z" fill="#A920C9" stroke="#A920C9" stroke-width="0.287999"/>
<path fill-rule="evenodd" clip-rule="evenodd" d="M261.03 131.412C261.528 134.398 270.155 134.61 266.848 126.431C266.434 125.41 266.043 124.283 265.124 123.961C261.516 122.698 260.73 129.614 261.03 131.412Z" fill="#A920C9" stroke="#A920C9" stroke-width="0.287999"/>
<path fill-rule="evenodd" clip-rule="evenodd" d="M298.255 142.316C295.423 142.744 289.085 143.492 288.644 145.836C288.272 147.817 289.913 149.6 290.832 150.336C292.316 151.523 294.337 151.277 296.573 151.205C301.248 151.049 303.496 149.991 305.261 146.933C306.685 144.471 306.177 143.701 303.955 142.832C301.551 141.898 300.963 141.902 298.255 142.316Z" fill="#A920C9" stroke="#A920C9" stroke-width="0.287999"/>
<path fill-rule="evenodd" clip-rule="evenodd" d="M281.973 174.602C286.601 178.058 288.614 165.037 282.162 162.143C280.83 161.547 279.235 160.318 278.418 162.18C278.107 162.898 278.058 166.342 278.187 167.333C278.54 170.019 280.355 173.391 281.973 174.602Z" fill="#A920C9" stroke="#A920C9" stroke-width="0.287999"/>
<path fill-rule="evenodd" clip-rule="evenodd" d="M109.142 13.1155C114.705 11.8901 117.659 1.30137 109.913 2.75063C108.17 3.0769 107.217 3.35765 106.347 4.41235C101.802 9.93243 106.252 13.7529 109.142 13.1155Z" fill="#B8DE1F" stroke="#B8DE1F" stroke-width="0.287999"/>
<path fill-rule="evenodd" clip-rule="evenodd" d="M92.3542 20.9423C92.7871 17.0346 89.2936 16.6135 87.9569 16.9815C81.9534 18.6242 82.2534 26.8417 87.8582 25.07C90.3227 24.2923 92.0276 23.9205 92.3542 20.9423Z" fill="#B8DE1F" stroke="#B8DE1F" stroke-width="0.287999"/>
<path fill-rule="evenodd" clip-rule="evenodd" d="M72.2019 26.0033C72.9424 23.3855 70.7096 21.7769 68.5641 22.0653C66.8629 22.2929 66.7072 22.1829 65.9136 23.4121C62.3175 28.9815 67.4743 31.4058 70.0526 29.2433C70.9336 28.5072 70.2919 28.7349 70.5197 28.1203C70.8121 27.3311 71.9589 26.8607 72.2019 26.0033Z" fill="#B8DE1F" stroke="#B8DE1F" stroke-width="0.287999"/>
<path fill-rule="evenodd" clip-rule="evenodd" d="M68.2945 75.7371C65.4503 74.0602 57.4076 70.3878 54.0318 70.8392C45.131 72.0267 34.7036 75.3615 29.6683 75.9382C29.9835 76.181 29.7329 76.0254 30.2151 76.2113L30.9822 76.439C32.6872 76.8373 33.3327 76.6552 35.1137 77.6492C36.6744 78.518 38.0414 79.3527 39.5831 80.2822C41.4172 81.3862 46.2588 85.3925 48.3055 85.7833C49.8206 85.4949 53.9825 79.0074 55.6305 77.8996C56.4013 77.3799 55.7216 77.6796 56.9558 77.8199C57.6962 80.9802 57.3393 83.4083 57.8367 86.4169C64.425 84.6186 70.5767 86.1778 76.8118 88.291C79.0067 89.0384 80.3168 90.1197 82.3331 90.6356C81.9306 89.3116 75.8739 81.4772 73.7702 79.8193C71.8564 78.3094 70.7931 77.2053 68.2945 75.7371ZM46.3955 78.6394C47.1397 77.8844 48.8713 79.2958 49.065 80.3467C48.1004 80.2898 46.5891 79.1516 46.3955 78.6394ZM43.6728 80.0925C44.1399 78.2562 47.5726 81.8339 47.5764 81.8377L47.2309 82.4105L43.6728 80.0925Z" fill="#B8DE1F" stroke="#B8DE1F" stroke-width="0.287999"/>
<path fill-rule="evenodd" clip-rule="evenodd" d="M82.1699 118.32L71.5526 117.159C66.8553 116.988 65.306 116.187 61.1366 115.656C61.7594 117.17 63.1606 118.395 64.1592 120.201C65.3212 122.314 65.7085 122.811 67.1591 124.526C69.3578 127.129 71.9095 129.299 75.4486 130.938C78.7979 132.49 83.7495 132.93 88.0481 132.277C92.6884 131.571 96.6566 131.644 100.951 130.524C106.032 129.2 107.312 128.54 112.043 126.939C114.033 126.264 115.715 125.862 117.762 125.331L133.749 119.306C135.378 118.642 137.208 117.705 138.962 117.178C140.177 116.81 140.675 116.62 141.723 116.256C142.668 115.922 143.166 115.793 144.036 115.023C142.725 114.567 141.131 113.387 139.729 113.084C138.556 112.83 135.594 113.365 134.356 113.479C130.779 113.801 127.259 114.18 123.898 114.768C120.807 115.307 117.595 116.316 114.113 116.965L104.103 118.672C99.3906 119.461 86.9089 118.976 82.1699 118.32ZM85.8191 128.749C84.5811 127.322 83.8065 127.527 83.8786 126.112C84.3457 125.919 90.5429 126.381 92.0884 126.385C93.4858 126.389 100.048 126.01 100.549 126.279C100.097 127.596 95.6085 127.152 94.044 127.178C91.4619 127.22 88.7544 127.474 86.2975 127.33C86.7266 128.21 86.1266 127.55 87 128.199C87.9494 128.908 88.9215 128.275 89.043 129.86C85.7203 131.245 76.7283 128.43 74.2335 127.22C72.6918 126.473 73.1133 125.103 74.7917 126.18C77.5333 127.941 82.5534 129.181 86.0963 129.113L85.8191 128.749ZM114.124 123.373C113.266 123.601 113.236 123.35 113.144 122.614C113.144 122.614 123.769 119.439 124.282 119.606C122.497 120.436 120.481 121.195 118.514 121.855L114.124 123.373ZM104.946 125.903C102.713 125.008 106.279 123.684 104.946 125.903V125.903ZM108.109 125.418C108.033 125.107 107.954 125.198 108.011 124.815C108.079 124.363 108.079 124.53 108.231 124.283C109.552 124.522 109.119 125.319 108.109 125.418Z" fill="#B8DE1F" stroke="#B8DE1F" stroke-width="0.287999"/>
<path fill-rule="evenodd" clip-rule="evenodd" d="M149.959 71.7763C149.53 78.1614 150.544 83.2679 151.687 88.9511C152.716 94.0653 154.622 98.9594 155.511 103.421C156.198 106.881 157.33 109.973 158.025 113.608L160.265 123.965L161.032 122.792C163.28 117.644 166.614 111.525 167.165 106.232C167.678 101.277 164.621 90.3587 163.352 85.8933C160.869 77.1522 160.55 74.3865 159.65 65.1788C159.179 60.3568 159.027 55.4513 159.065 50.7279L158.936 45.1471C158.97 44.2669 159.084 43.0681 158.522 42.3624C157.96 44.009 157.307 45.2192 156.737 46.9606C156.156 48.7437 155.689 50.1247 155.112 51.6916C153.927 54.8784 152.682 57.61 151.972 61.0434C151.247 64.5717 150.233 67.6637 149.959 71.7763ZM155.925 87.2022C156.559 87.6499 156.475 87.7068 156.343 88.8639L155.739 92.6691C155.594 93.6859 155.803 93.9439 155.192 94.3954C154.938 93.9401 155.348 89.0422 155.526 87.9192C155.64 87.2136 155.484 87.5512 155.925 87.2022ZM153.939 74.2309L154.733 74.2082C155.154 75.2818 154.303 76.2986 153.855 77.3305C153.517 78.1007 152.936 79.9255 152.5 80.506C152.078 79.77 152.629 78.2411 152.925 77.3078C153.069 76.8525 153.286 76.4579 153.491 75.942C153.734 75.3236 153.734 74.7773 153.939 74.2309ZM154.922 80.0431C155.264 79.2237 154.896 79.5461 155.674 79.4209C156.346 80.6274 155.541 80.6729 155.082 83.488C154.957 84.243 154.759 84.6565 154.611 85.4039C154.395 86.4813 154.714 86.948 153.969 87.3236C153.521 86.47 154.357 82.0387 154.649 80.9764L154.922 80.0431ZM162.285 110.808C162.054 110.14 162.771 107.856 163.014 106.938C163.333 105.716 162.961 106.05 163.812 105.743C164.078 106.524 163.375 108.694 163.033 109.723C162.733 110.626 162.897 110.523 162.285 110.808ZM163.265 99.8813C162.916 98.5041 164.07 99.5626 164.378 99.8889C164.484 101.065 164.34 101.809 163.751 102.529C163.542 102.139 163.44 100.579 163.265 99.8813Z" fill="#B8DE1F" stroke="#B8DE1F" stroke-width="0.287999"/>
<path fill-rule="evenodd" clip-rule="evenodd" d="M178.542 50.0375C178.883 51.0656 179.195 50.5193 179.529 51.2591C178.204 52.678 176.062 49.6391 178.496 48.6679C179.134 48.4137 180.93 48.1215 181.006 49.0814C181.055 49.6998 180.706 49.6467 180.152 49.6846C179.362 49.7339 179.324 49.4722 178.542 50.0375ZM171.676 57.4924C170.594 64.7425 174.486 77.3571 177.269 78.924C177.596 73.2104 177.702 70.6458 178.917 65.3912C179.745 61.8212 181.196 57.0637 182.852 54.1879C184.64 51.0884 186.683 47.5904 188.961 45.1623C191.6 42.3549 194.988 40.3555 196.59 37.2142C194.76 38.1057 192.903 39.2022 190.07 39.6612C187.572 40.0634 185.415 40.8259 183.235 41.8617C177.778 44.4567 176.601 45.4848 173.757 50.5155C172.094 53.4595 172.253 53.6227 171.676 57.4924ZM175.375 56.0697C175.428 54.4573 177.376 53.137 178.667 53.9451C178.105 54.8633 177.942 54.1386 176.4 55.2996C176.666 56.377 176.78 55.9104 176.932 56.6008C176.02 56.5857 175.868 56.4187 175.375 56.0697Z" fill="#B8DE1F" stroke="#B8DE1F" stroke-width="0.287999"/>
<path fill-rule="evenodd" clip-rule="evenodd" d="M229.118 18.9277C228.742 22.0766 230.523 22.8582 233.546 23.1389C237.301 23.4842 241.854 13.0055 233.846 14.7241C231.301 15.2704 229.452 16.1392 229.118 18.9277Z" fill="#B8DE1F" stroke="#B8DE1F" stroke-width="0.287999"/>
<path fill-rule="evenodd" clip-rule="evenodd" d="M248.108 23.3324C242.917 25.8098 245.097 31.3602 249.445 30.1083C250.88 29.6947 252.513 27.8585 252.43 25.8364C252.354 24.0419 250.014 22.4257 248.108 23.3324Z" fill="#B8DE1F" stroke="#B8DE1F" stroke-width="0.287999"/>
<path fill-rule="evenodd" clip-rule="evenodd" d="M261.118 34.8506C259.922 35.0782 259.675 34.9378 259.071 35.799C257.882 37.4987 259.549 41.1939 262.185 40.401C265.557 39.388 264.999 34.1032 261.118 34.8506Z" fill="#B8DE1F" stroke="#B8DE1F" stroke-width="0.287999"/>
<path fill-rule="evenodd" clip-rule="evenodd" d="M246.699 117.011C241.083 120.167 232.877 123.172 225.628 124.784C202.423 129.948 192.652 122 179.943 124.378C178.819 124.587 178.344 124.974 177.486 125.573C176.051 126.567 176.009 125.482 175.386 127.125C176.347 127.357 177.801 127.406 179.009 127.675C181.959 128.339 185.57 129.439 188.274 130.631C189.387 131.12 190.101 131.317 191.236 131.829C193.871 133.021 199.537 136.06 203.125 136.287C204.678 136.39 205.483 136.458 206.919 136.701C213.048 137.744 224.075 137.486 229.999 136.788C238.159 135.832 247.406 130.449 252.392 126.385C258.661 121.275 261.573 114.81 264.095 105.39C263.195 105.682 257.1 110.497 255.612 111.483C252.642 113.444 249.957 115.182 246.699 117.011ZM246.088 123.991C247.364 122.542 246.775 122.132 247.763 122.038C248.765 123.415 245.61 125.406 244.767 126.196C244.379 125.247 245.424 124.746 246.088 123.991ZM248.974 124.246C249.236 123.293 250.151 122.474 250.789 121.594C252.585 119.116 251.45 119.196 252.813 118.938C253.565 120.641 250.121 124.113 248.974 124.246ZM241.626 127.918C241.714 127.019 242.01 127.243 242.389 126.385C242.724 125.642 242.564 125.293 243.396 125.164C244.125 126.256 242.803 127.899 241.626 127.918ZM234.256 130.191C234.654 129.003 237.423 129.204 239.196 128.142C239.386 129.864 234.32 130.213 234.256 130.191ZM213.648 131.625C214.175 132.114 214.331 132.858 213.465 132.713C213.272 132.683 212.995 132.543 213.029 132.201C213.12 131.272 213.283 131.773 213.648 131.625ZM217.669 131.754C219.173 131.898 223.657 131.249 224.371 131.655C224.295 132.607 224.075 132.649 223.152 132.763C222.374 132.854 221.538 132.782 220.737 132.793C219.017 132.823 217.491 133.537 217.669 131.754ZM206.794 131.852C207.352 131.701 207.796 131.848 208.392 132.065C208.969 132.273 208.742 132.22 208.947 132.387C208.161 133.286 207.063 132.918 206.778 132.622C206.186 132 206.782 131.867 206.794 131.852Z" fill="#B8DE1F" stroke="#B8DE1F" stroke-width="0.287999"/>
<path fill-rule="evenodd" clip-rule="evenodd" d="M286.282 194C284.41 196.268 282.299 200.028 278.202 200.324C276.273 200.461 273.994 199.387 273.281 197.949C272.1 195.57 272.521 193.928 273.189 191.613C263.666 192.676 259.663 189.045 254.757 185.149C245.735 177.974 244.759 172.982 243.248 171.73C243.388 173.057 244.075 176.123 244.459 177.576C245.507 181.544 245.872 187.008 246.658 189.811C247.307 192.141 247.641 193.146 248.583 195.221C250.318 199.045 252.354 200.578 255.247 202.999C258.509 205.723 261.516 205.453 266.035 206.895C271.651 208.682 279.227 208.272 284.448 205.833C286.074 205.074 288.044 204.509 289.647 203.685C292.943 201.993 296.042 200.282 298.665 198.275L306.366 191.257C305.011 191.507 303.568 192.205 301.996 192.531C300.496 192.842 298.517 192.93 296.866 193.275C294.625 193.749 288.606 194.394 286.282 194ZM260.26 200.237C261.27 200.191 261.558 200.29 261.562 201.25C260.457 201.098 260.681 200.98 260.26 200.237ZM257.875 199.561C257.795 199.637 257.974 200.119 257.093 199.22C256.443 198.556 255.904 197.71 255.953 196.652C255.999 195.722 256.132 195.745 256.861 195.714C256.838 196.94 256.618 197.198 257.18 198.116C257.742 199.038 258.338 199.121 257.875 199.561ZM290.911 198.894C291.185 197.922 291.12 198.199 291.952 197.676C292.563 197.293 292.783 196.963 293.463 197.069C293.425 198.093 292.111 198.704 290.911 198.894ZM253.766 196.633C254.112 198.552 254.013 197.475 253.728 197.911C252.562 197.885 252.054 192.816 254.165 192.346C254.408 193.852 253.367 194.402 253.766 196.633Z" fill="#B8DE1F" stroke="#B8DE1F" stroke-width="0.287999"/>
<path fill-rule="evenodd" clip-rule="evenodd" d="M276.672 150.427C281.836 148.674 281.878 139.527 274.86 141.663C272.62 142.346 270.452 143.75 271.048 146.811C271.234 147.76 271.959 149.71 272.472 150.105C273.208 150.666 275.506 150.825 276.672 150.427Z" fill="#B8DE1F" stroke="#B8DE1F" stroke-width="0.287999"/>
<path fill-rule="evenodd" clip-rule="evenodd" d="M142.368 137.938C145.004 137.646 146.553 136.158 146.739 133.374C146.986 129.606 145.429 128.726 141.985 129.371C134.914 130.695 136.988 138.541 142.368 137.938Z" fill="#B8DE1F" stroke="#B8DE1F" stroke-width="0.287999"/>
<path fill-rule="evenodd" clip-rule="evenodd" d="M104.073 108.292C106.07 108.114 108.405 105.716 108.865 104.172C109.537 101.922 108.204 100.716 106.746 99.9003C105.812 99.3805 105.781 99.665 104.798 99.7978C102.915 100.052 102.759 99.9989 101.585 101.069C97.3857 104.897 100.659 108.6 104.073 108.292Z" fill="#B8DE1F" stroke="#B8DE1F" stroke-width="0.287999"/>
<path fill-rule="evenodd" clip-rule="evenodd" d="M86.1836 108.683C88.1316 107.97 89.9923 106.676 89.0582 104.168C88.5152 102.719 88.781 102.583 87.319 101.949C86.2178 101.467 84.79 101.35 83.685 101.725C78.3384 103.546 80.6547 110.717 86.1836 108.683Z" fill="#B8DE1F" stroke="#B8DE1F" stroke-width="0.287999"/>
<path fill-rule="evenodd" clip-rule="evenodd" d="M36.6782 118.369C39.0097 117.508 41.926 113.391 40.3729 109.563C39.9173 108.436 38.1857 108.152 37.2971 108.675C31.8898 111.843 31.7986 120.171 36.6782 118.369Z" fill="#B8DE1F" stroke="#B8DE1F" stroke-width="0.287999"/>
<path fill-rule="evenodd" clip-rule="evenodd" d="M12.7817 135.271C16.9891 132.125 12.7058 127.922 6.45162 129.591C3.96439 130.255 0.205058 131.465 2.28218 134.861C4.48462 138.457 9.00721 138.093 12.7817 135.271Z" fill="#B8DE1F" stroke="#B8DE1F" stroke-width="0.287999"/>
<path fill-rule="evenodd" clip-rule="evenodd" d="M31.4645 143.181C30.8797 146.22 30.2911 147.43 31.0847 150.757C31.6847 153.288 34.2213 154.49 35.9187 152.267C39.2148 147.95 38.2123 142.741 31.4645 143.181Z" fill="#B8DE1F" stroke="#B8DE1F" stroke-width="0.287999"/>
<path fill-rule="evenodd" clip-rule="evenodd" d="M60.229 188.73C61.5467 180.383 47.8802 182.295 48.7688 187.861C48.9207 188.813 50.2383 190.631 50.7965 191.465C51.5066 192.531 52.8167 193.074 54.3318 193.362C58.3456 194.121 59.6974 192.106 60.229 188.73Z" fill="#B8DE1F" stroke="#B8DE1F" stroke-width="0.287999"/>
<path fill-rule="evenodd" clip-rule="evenodd" d="M179.893 182.925C173.742 183.043 154.584 187.114 158.898 194.39C160.736 197.486 162.111 198.04 166.686 198.017C170.317 197.998 173.149 197.149 175.834 196.056C181.052 193.931 187.598 192.524 191.16 189.083C190.932 188.127 190.378 187.607 190.089 186.48C189.801 185.346 190.101 184.526 190.18 183.475C189.242 183.676 182.271 182.88 179.893 182.925ZM173.654 191.909C173.579 192.971 172.215 193.4 171.448 192.748C171.885 192.273 172.766 191.773 173.654 191.909ZM168.471 192.08L168.577 194.671C167.226 194.766 167.305 193.522 167.734 192.569C168.152 191.644 167.583 192.251 168.471 192.08ZM167.028 191.943L166.197 194.436C165.65 194.337 165.669 194.349 165.373 194.087C165.433 193.366 166.079 191.621 166.686 191.302C166.747 191.359 167.085 191.204 167.028 191.943ZM164.522 193.074C164.325 194.322 164.647 194.793 163.633 194.808C163.482 194.201 163.58 189.967 164.45 190.54C164.678 190.839 164.602 190.528 164.712 191.063L164.522 193.074Z" fill="#B8DE1F" stroke="#B8DE1F" stroke-width="0.287999"/>
<path fill-rule="evenodd" clip-rule="evenodd" d="M202.81 169.468C201.382 171.726 199.746 175.011 198.686 177.424C200.167 177.925 200.885 177.853 202.366 178.631C203.676 179.317 203.881 180.349 204.842 181.157C207.09 180.019 209.816 178.137 212.224 176.673C215.018 174.973 217.373 174.272 219.552 172.01C221.212 170.292 223.54 167.947 224.31 164.995C225.833 159.168 222.879 155.811 217.35 154.79C214.065 154.183 208.768 158.314 206.858 161.79C206.129 163.121 205.48 164.366 204.781 165.572C203.987 166.942 203.634 168.167 202.81 169.468ZM216.575 160.712C215.212 161.638 214.419 162.681 213.458 162.935C213.606 162.203 216.048 158.952 217.532 160.003L216.575 160.712ZM216.64 158.599C212.778 160.697 212.155 162.56 210.648 162.985C210.845 161.683 212.592 160.31 213.594 159.472C215.015 158.284 216.56 156.391 217.297 158.049C217.008 158.588 217.221 158.288 216.64 158.599Z" fill="#B8DE1F" stroke="#B8DE1F" stroke-width="0.287999"/>
<path fill-rule="evenodd" clip-rule="evenodd" d="M199.233 182.975C198.588 183.521 196.738 183.331 195.884 185.296L195.812 185.479L195.679 186.078C195.584 186.488 195.671 186.363 195.55 186.628C193.651 186.139 195.337 184.155 196.017 183.441C196.526 182.903 197.866 181.696 198.762 182.208C199.366 182.553 199.077 182.307 199.233 182.975ZM202.761 185.418C204.253 177.747 193.169 177.151 192.527 184.431C192.219 187.941 194.24 190.566 197.258 190.866C201.113 191.249 202.149 188.555 202.761 185.418ZM199.172 185.171C199.013 185.653 198.975 185.683 198.584 186.006C198.147 186.363 198.382 186.279 197.748 186.347C197.35 185.403 198.17 184.014 199.172 185.171Z" fill="#B8DE1F" stroke="#B8DE1F" stroke-width="0.287999"/>
<path fill-rule="evenodd" clip-rule="evenodd" d="M203.213 191.947C201.937 192.012 200.209 192.683 198.99 192.994C196.833 193.548 196.598 192.74 196.45 195.669C196.112 202.46 201.409 211.895 207.219 215.071C210.986 217.127 212.072 215.655 212.755 212.104C214.343 203.871 207.097 196.686 203.213 191.947Z" fill="#B8DE1F" stroke="#B8DE1F" stroke-width="0.287999"/>
<path fill-rule="evenodd" clip-rule="evenodd" d="M48.7688 187.861C47.8802 182.296 61.5467 180.383 60.229 188.73C59.6974 192.107 58.3456 194.121 54.3318 193.362C52.8167 193.074 51.5066 192.531 50.7965 191.465C50.2383 190.631 48.9207 188.813 48.7688 187.861ZM74.0892 196.337C74.636 195.392 73.9183 196.344 74.5259 195.794C74.7499 195.589 74.9512 195.472 75.1828 195.358C79.0257 193.503 80.0775 193.336 83.8824 190.407C86.6545 188.271 89.7113 185.885 92.2972 183.426C93.6871 182.102 95.0199 181.305 96.3528 179.902C98.1603 178.001 102.998 177.713 105.276 177.295C106.488 177.071 107.156 176.772 108.447 176.578C110.946 176.206 112.438 175.482 114.671 174.89C114.587 178.395 111.982 185.251 110.543 187.96C106.795 195.028 96.2009 199.603 87.9379 199.653C81.0231 199.698 78.5738 199.125 74.0892 196.337ZM60.3278 164.445C62.272 163.288 65.4313 162.313 67.611 161.194C69.5248 160.215 72.8854 158.516 74.8524 157.916C80.9319 156.057 83.9963 153.39 91.1011 153.102C97.997 152.821 103.036 154.885 107.783 157.503C112.252 159.969 115.784 165.417 115.977 170.899C108.554 173.376 113.004 173.384 101.939 175.034C96.573 175.831 90.9644 176.851 85.1545 176.263C76.4587 175.379 71.7804 174.81 65.2339 168.751C63.7529 167.382 61.6112 165.842 60.3278 164.445ZM61.1366 115.656C65.306 116.187 66.8553 116.988 71.5526 117.159L82.1698 118.32C86.9089 118.976 99.3906 119.462 104.103 118.672L114.113 116.965C117.595 116.316 120.807 115.307 123.898 114.768C127.259 114.18 130.779 113.801 134.356 113.479C135.594 113.365 138.556 112.83 139.729 113.084C141.131 113.388 142.725 114.567 144.035 115.023C143.166 115.793 142.668 115.922 141.723 116.256C140.675 116.62 140.177 116.81 138.962 117.178C137.208 117.705 135.378 118.642 133.749 119.306L117.762 125.331C115.715 125.862 114.033 126.264 112.043 126.939C107.312 128.54 106.032 129.2 100.951 130.524C96.6566 131.644 92.6884 131.572 88.0481 132.277C83.7495 132.93 78.7978 132.49 75.4486 130.938C71.9095 129.299 69.3577 127.129 67.1591 124.526C65.7085 122.811 65.3212 122.314 64.1592 120.201C63.1605 118.395 61.7593 117.17 61.1366 115.656ZM175.386 127.125C176.009 125.482 176.051 126.567 177.486 125.573C178.344 124.974 178.819 124.587 179.943 124.378C192.652 122 202.423 129.948 225.628 124.784C232.877 123.172 241.083 120.167 246.699 117.011C249.957 115.182 252.642 113.444 255.612 111.483C257.1 110.497 263.195 105.682 264.095 105.39C261.573 114.81 258.661 121.275 252.392 126.385C247.406 130.449 238.159 135.832 229.999 136.788C224.075 137.486 213.048 137.744 206.919 136.701C205.483 136.458 204.678 136.39 203.125 136.287C199.537 136.06 193.871 133.021 191.236 131.83C190.101 131.317 189.387 131.12 188.274 130.631C185.57 129.439 181.959 128.339 179.009 127.675C177.801 127.406 176.347 127.357 175.386 127.125ZM229.946 54.0362C230.53 53.4595 230.113 54.2563 230.124 54.2714C230.128 54.2752 230.071 54.2335 230.071 54.2031C230.071 54.1348 229.896 54.0855 229.946 54.0362ZM259.261 52.3859C258.817 53.3343 257.18 54.2714 255.669 55.3792C251.135 58.6989 249.752 60.6641 245.951 65.1978C243.817 67.7397 242.465 69.3786 240.438 72.6338C239.648 73.9009 238.774 75.206 237.852 76.4087L230.06 88.1848C229.205 89.4103 228.244 90.6053 227.409 91.8839C226.471 93.3141 225.845 94.6458 224.838 95.9092C223.513 97.5709 219.518 100.686 217.593 101.638C215.653 102.594 214.977 102.989 212.178 102.86C204.5 102.507 204.739 95.1921 208.123 91.9218C210.667 89.4634 215.88 82.5813 217.878 79.2123L220.057 74.7773C220.392 74.0337 220.84 73.5329 221.208 72.7552C221.987 71.12 222.651 70.016 223.316 68.2708C224.367 65.524 224.8 65.1447 226.027 61.4456C226.194 60.9448 226.24 60.6072 226.433 60.133C226.965 58.8355 226.574 59.5904 227.234 59.1807C229.27 57.9211 229.627 55.9597 235.095 54.0931C240.369 52.2948 252.597 52.1886 259.261 52.3859ZM222.298 32.0925C222.769 34.1032 224.743 37.2332 225.738 41.156C226.308 43.4134 226.589 43.7017 226.726 46.6078C227.014 52.7311 226.718 56.5022 223.874 62.4434C223.186 63.8775 222.795 65.3723 222.074 66.9847C220.555 70.3688 217.384 76.6401 215.425 79.4172C211.992 84.2923 213.853 81.9781 209.862 86.5724C207.937 88.7843 206.266 91.2275 203.448 92.8854C200.881 94.3992 195.728 95.3552 192.987 93.4128C191.547 92.3884 188.441 88.2076 187.906 85.9958C186.918 81.8984 187.477 78.776 189.254 75.5285C192.216 70.1108 195.06 64.09 198.838 59.6891C202.639 55.2616 206.186 49.3204 210.086 45.5L219.169 35.5183C220.183 34.1943 221.011 32.7488 222.298 32.0925ZM160.265 123.965L158.025 113.608C157.33 109.973 156.198 106.881 155.511 103.421C154.622 98.9594 152.716 94.0653 151.687 88.9512C150.544 83.268 149.53 78.1614 149.959 71.7763C150.233 67.6638 151.247 64.5718 151.972 61.0435C152.682 57.61 153.927 54.8784 155.112 51.6916C155.689 50.1247 156.156 48.7438 156.737 46.9606C157.307 45.2193 157.96 44.009 158.522 42.3625C159.084 43.0681 158.97 44.267 158.936 45.1472L159.065 50.728C159.027 55.4513 159.179 60.3568 159.65 65.1788C160.55 74.3865 160.869 77.1523 163.352 85.8933C164.621 90.3587 167.678 101.277 167.165 106.232C166.614 111.525 163.28 117.644 161.032 122.793L160.265 123.965ZM70.5235 44.1077C77.4384 44.4301 80.7914 45.0751 85.9026 47.6435C88.4582 48.9297 93.2845 50.9897 95.2933 52.4466C99.721 55.6562 97.4844 51.2819 99.2501 63.1681C99.8805 67.3868 102.353 73.8819 104.635 77.342C106.621 80.3619 107.623 80.0242 109.674 82.0274C107.783 83.4728 106.362 85.4836 103.328 86.4624C100.177 87.4754 96.816 86.8418 94.4541 85.5595C90.2125 83.2604 86.7608 78.3663 84.733 73.4646C84.1976 72.1595 83.7685 71.0328 83.1609 69.6821C82.5951 68.434 82.2724 67.1061 81.7218 65.7403C81.2129 64.4732 80.5636 63.3653 80.0547 62.0337C79.4927 60.5693 79.1548 59.4007 78.513 57.9591C77.2599 55.144 76.565 53.2623 75.0727 50.6407L71.8564 45.8073C71.1387 45.0334 70.9336 44.9878 70.5235 44.1077ZM261.118 34.8506C264.999 34.1032 265.557 39.3881 262.185 40.401C259.549 41.194 257.882 37.4987 259.071 35.7991C259.675 34.9379 259.922 35.0782 261.118 34.8506ZM248.108 23.3324C250.014 22.4257 252.354 24.0419 252.43 25.8364C252.513 27.8585 250.88 29.6947 249.445 30.1083C245.097 31.3602 242.917 25.8098 248.108 23.3324ZM68.5641 22.0653C70.7096 21.7769 72.9424 23.3855 72.2019 26.0033C71.9589 26.8607 70.8121 27.3312 70.5197 28.1203C70.2919 28.7349 70.9336 28.5073 70.0527 29.2433C67.4743 31.4058 62.3175 28.9815 65.9136 23.4121C66.7072 22.1829 66.8629 22.2929 68.5641 22.0653ZM87.9569 16.9815C89.2936 16.6135 92.7871 17.0346 92.3542 20.9423C92.0276 23.9205 90.3227 24.2923 87.8582 25.07C82.2534 26.8417 81.9534 18.6242 87.9569 16.9815ZM125.11 20.6995C121.138 30.7229 122.702 47.5335 124.468 58.9986C127.1 76.0444 113.798 85.734 106.613 75.3502C105.918 74.3448 104.976 73.1763 104.441 72.1216C99.3792 62.1513 98.9273 52.2038 103.146 41.782C104.179 39.2211 105.759 37.1725 107.46 35.34C108.31 34.4257 108.979 33.261 109.833 32.3391L115.104 26.8493C116.554 25.2673 123.944 21.0333 125.11 20.6995ZM233.846 14.7241C241.854 13.0055 237.301 23.4842 233.546 23.1389C230.523 22.8582 228.742 22.0766 229.118 18.9277C229.452 16.1392 231.301 15.2704 233.846 14.7241ZM109.913 2.75068C117.659 1.30142 114.705 11.8901 109.142 13.1155C106.252 13.7529 101.802 9.93247 106.347 4.41239C107.217 3.3577 108.17 3.07695 109.913 2.75068ZM108.276 30.2335C107.916 26.9252 109.15 15.8775 110.984 14.3903C113.767 12.1367 113.763 13.7719 115.529 9.69346C116.615 7.17812 117.09 4.7159 115.392 2.5496C110.479 -3.71028 99.6602 2.44717 102.721 11.3362C103.025 12.2202 104.076 13.6201 104.616 14.0526C105.447 14.7203 106.731 14.9518 107.551 15.5815C107.585 17.4974 107.24 18.4839 106.917 20.0507C106.583 21.6669 106.632 23.0403 106.446 24.7665C106.287 26.2537 106.256 28.2037 106.514 29.5468C107.354 33.8756 104.927 33.2003 101.532 39.1718C100.883 40.3176 100.249 41.2585 99.7741 42.537C99.364 43.641 99.0792 45.4469 98.6843 46.3688C98.0464 45.8414 95.2705 37.7984 94.7313 36.3644C94.0516 34.5509 93.4858 33.0333 92.6238 31.4058C91.7352 29.7251 90.972 27.1794 90.6302 26.5838C91.8871 25.1724 92.5517 25.2825 93.4858 23.101C94.006 21.8907 94.5642 19.364 93.8503 17.9603C89.4227 9.24199 74.3892 20.4984 83.2445 26.8569C85.0178 28.1317 85.5001 27.7371 87.4329 27.9609C87.5468 27.9761 87.843 28.1241 87.8886 28.052C88.7202 26.7621 97.2489 49.237 97.5033 51.0732C96.6641 50.709 95.0275 49.3356 94.1238 48.7438C92.9352 47.966 91.8074 47.3135 90.5505 46.6951C90.0872 46.4674 86.8785 44.9992 86.7456 44.874C86.1988 44.3656 86.5899 44.7678 86.2064 43.9104C85.9671 43.3754 86.0013 43.4703 85.6899 42.9695C85.2798 42.3094 85.1355 41.9262 84.7558 41.2205C82.9749 37.9161 76.7511 31.3716 73.8955 29.5961C74.1006 27.3539 76.022 25.2711 74.412 22.2056C73.4854 20.4415 71.1805 19.2616 68.3932 19.5575C63.3276 20.0925 60.491 26.8455 63.1454 30.0817C64.2845 31.4703 66.7186 32.9233 69.4375 32.229C71.0931 31.8079 71.1121 30.9998 72.6804 31.7662C75.7372 33.2648 81.9002 40.4617 82.8875 43.5158C78.5776 42.9088 74.3474 41.4178 69.5932 41.304C68.3553 41.2736 62.8492 40.2038 64.8124 42.3018C65.2567 42.776 66.2781 43.4399 66.9503 44.1114C76.3828 53.5202 76.6713 66.1918 83.2976 77.3989C85.6596 81.3824 87.1519 82.8203 90.2239 85.624C92.7263 87.9041 96.4211 89.8655 101.145 89.7934C103.214 89.7631 105.079 88.7198 106.852 87.98C108.478 87.3047 110.228 85.2825 111.409 84.8424L111.796 86.1361C112.339 88.549 113.612 91.2313 114.952 93.1738C116.619 95.5905 118.347 97.476 120.462 99.3843C124.054 102.621 128.721 107.833 133.593 109.745C132.921 110.432 133.699 109.833 132.917 110.151L130.939 110.436C125.212 111.035 119.957 112.652 114.477 114.234C108.155 116.058 102.068 117.322 94.7883 117.511C85.9823 117.747 68.5755 114.882 58.8848 113.084C57.3355 112.796 55.2963 111.688 54.7419 112.208C53.7394 113.293 55.2773 113.668 56.0102 114.169C61.0568 117.625 62.7922 125.391 67.0566 129.542C69.616 132.031 72.3842 133.734 76.8081 134.922C80.1725 135.828 86.8823 136.314 90.4973 135.654C92.715 135.252 94.6174 134.758 96.854 134.425L114.709 129.557C118.426 128.267 122.129 126.814 125.486 125.179C128.869 123.532 144.579 116.358 147.525 117.033C149.523 117.492 154.945 121.958 156.472 123.29C158.697 125.232 161.499 128.707 162.608 132.323C164.362 138.044 161.146 139.603 159.153 143.173C157.068 146.906 156.734 148.431 155.477 150.985L151.774 158.5L148.106 169.954C146.682 176.248 146.048 184.208 146.078 190.745C145.642 190.619 140.876 184.682 140.512 184.204C139.539 182.941 135.716 179.2 134.428 178.308C131.239 176.096 122.953 170.739 118.681 169.821C118.582 163.319 113.182 157.339 109.34 155.014C103.617 151.554 97.6932 150.454 89.5936 151.417C80.9015 152.449 77.67 154.062 70.8957 156.945C69.5742 157.506 68.1388 158.246 66.711 158.868L58.4215 162.556C57.3621 163.057 55.0153 163.789 54.3128 164.282C54.7381 166.096 55.4558 165.455 57.2406 166.194C60.7796 167.666 62.4542 170.762 65.2301 173.141C68.4882 175.933 74.4955 178.088 79.8915 178.551C79.0143 179.204 72.1829 180.956 70.4552 181.647C67.1515 182.971 63.6162 185.353 62.2454 185.896C61.4594 184.879 62.0897 184.435 61.0303 183.456C56.5494 179.314 44.6221 181.184 47.1853 189.25C47.9561 191.682 48.4498 192.023 50.3257 193.415C51.7914 194.5 52.5851 195.327 55.0913 195.703C59.9556 196.428 62.0441 193.408 62.2758 188.821C67.6186 184.367 87.1519 179.078 94.306 179.067C93.8693 179.765 84.5546 187.319 83.2445 188.316C80.3547 190.513 76.9941 192.562 73.3487 193.624C72.726 193.806 70.0754 194.573 69.6995 194.781C69.4185 196.466 71.1842 197.001 72.145 197.763C73.1512 198.56 74.0664 199.262 75.2056 200.077C82.0066 204.941 95.2895 202.046 102.003 199.948C105.178 198.954 107.126 198.237 108.964 196.17C113.942 190.578 114.079 188.332 115.867 181.605C116.733 178.342 116.513 175.713 117.99 172.932C128.163 176.047 136.418 182.77 141.617 189.455C146.701 195.995 145.965 195.927 146.599 204.493C146.735 206.337 147.707 219.95 149.564 221.38C151.478 221.077 150.385 218.705 150.218 217.176C150.012 215.295 149.8 213.697 149.731 211.816C149.595 207.961 149.272 204.74 149.249 200.567C149.131 179.78 152.819 161.209 162.49 144.091C165.217 139.269 168.372 134.55 172.128 130.498C173.415 129.113 173.647 128.521 176.4 129.049C177.596 129.28 179.563 129.997 180.888 130.38C186.842 132.114 194.103 135.904 197.612 136.902C200.915 137.835 203.463 138.438 207.105 138.867C220.745 140.472 234.176 140.191 246.179 133.355C254.104 128.84 259.451 123.191 262.887 115.144C264.137 112.219 264.881 109.613 265.663 106.445C265.944 105.299 267.098 102.427 265.705 102.12C264.714 101.9 262.899 103.725 262.075 104.29L251.727 111.305C246.821 114.67 246.02 115.061 240.905 117.845C237.529 119.685 227.174 122.747 223.114 123.327C217.422 124.136 201.713 124.01 195.588 122.868C192.223 122.242 182.817 122.478 179.43 122.607L203.11 98.2007C203.911 101.126 203.759 101.699 205.897 103.478C207.264 104.62 209.102 105.587 211.438 105.773C222.587 106.657 230.496 90.7874 235.687 83.0631C237.89 79.789 239.678 76.5642 241.93 73.4077C246.156 67.5007 255.729 58.6268 261.668 53.7782C262.758 52.8905 265.693 51.6537 265.602 50.1399C262.971 48.4744 249.98 50.2727 245.796 50.3334C246.46 48.831 248.621 47.9698 249.885 46.8924C251.154 45.8073 257.02 40.9587 258.387 41.0308C260.035 41.1143 260.176 43.4399 263.294 42.1917C266.643 40.8563 267.888 35.8598 263.89 33.5721C262.151 32.5819 260.058 32.6084 258.517 33.7807C256.77 35.1048 256.8 36.2961 256.998 38.8531C254.415 39.9268 252.862 41.7668 251.165 43.5348C249.904 44.8399 246.893 47.0707 245.348 48.2316C242.294 50.5231 243.096 51.0011 238.083 51.4678C235.41 51.7144 231.628 54.1121 230.276 54.1993C230.306 51.813 237.085 43.2768 238.512 41.1712C239.617 39.5474 243.624 32.6729 245.568 32.3011C246.992 32.028 247.269 33.3862 249.79 32.8474C252.065 32.3618 254.26 29.5733 254.943 27.316C255.919 24.1064 253.576 21.3293 251.492 20.8171C249.574 20.3466 248.871 20.1038 247.231 20.8133C244.634 21.9363 242.811 23.4386 242.557 26.5762C242.332 29.4026 242.739 29.1446 243.289 30.9771C242.382 32.4074 240.871 34.145 239.712 35.7422C238.448 37.4911 237.514 38.9821 236.287 40.6438L228.966 50.1589C229.182 46.9606 232.718 27.445 233.648 25.7833C234.696 24.7665 238.824 24.0646 239.83 19.2654C240.13 17.8351 240.411 14.8493 239.484 13.715C239.01 13.1307 236.329 11.8142 235.182 11.8218C227.276 11.8749 223.908 21.3975 230.789 25.0738C230.967 26.8569 228.92 39.8585 228.613 43.0226C228.142 42.4004 228.096 41.4444 227.869 40.697C227.253 38.6976 226.103 37.0093 225.332 35.1693C224.683 33.6214 224.295 32.6464 223.638 31.2351C223.008 29.8844 222.712 28.678 220.992 28.5945C220.008 30.0741 219.184 31.6372 217.992 33.113C215.102 36.6868 210.264 41.9983 208.031 45.151C204.006 50.838 199.336 55.6979 195.364 62.0564C193.321 65.3268 191.297 67.3261 189.664 71.249C188.194 74.7735 186.045 77.2585 185.829 82.0577C185.525 88.7122 188.399 93.4052 193.059 96.7552C195.128 98.2424 196.29 97.9768 199.32 97.8061C198.614 99.1415 190.898 105.834 190.085 106.411C185.377 109.753 181.431 115.918 177.14 119.864C175.697 121.192 174.501 123.096 173.081 124.602C171.528 126.249 170.351 127.357 168.893 129.216C168.209 130.088 165.703 134.011 165.221 134.402C165.179 134.349 165.141 134.269 165.118 134.227L162.965 128.768C161.701 126.165 161.826 125.539 162.851 122.709C164.332 118.615 166.485 116.908 167.924 112.394C170.677 103.766 167.909 93.8453 165.923 85.9464C162.559 72.5655 160.493 59.1921 160.736 44.9044C160.782 42.4308 161.552 31.9255 160.808 30.5104L159.566 30.7115C159.046 32.984 159.16 34.2019 158.348 36.5427C157.736 38.3144 157.011 40.033 156.46 41.7403C155.367 45.1434 153.73 48.3758 152.53 52.0141C151.983 53.6682 151.193 55.5234 150.536 57.0903C149.01 60.7476 147.442 70.4144 146.944 74.5155C146.219 80.5023 149.405 91.679 151.524 97.4684C154.152 104.654 156.107 112.147 157.486 119.833C156.259 119.374 155.5 118.255 154.459 117.496C145.144 110.701 132.533 108.031 120.511 95.9243C117.587 92.9803 113.562 87.2895 113.555 82.7065C116.494 81.796 118.362 81.6101 121.092 79.4969C122.36 78.5143 124.707 74.8114 125.569 73.2484C128.421 68.0697 126.921 60.5882 126.124 54.6394C125.562 50.4472 124.814 38.2272 125.095 34.1487C125.398 29.7934 128.656 17.2015 128.543 16.788C126.894 16.2796 119.114 21.7048 117.747 22.6533C116.049 23.8218 114.492 25.0131 112.829 26.2992C111.2 27.5626 109.788 29.0725 108.276 30.2335Z" fill="#3350E9"/>
<path fill-rule="evenodd" clip-rule="evenodd" d="M203.213 191.947C207.097 196.686 214.343 203.871 212.755 212.104C212.072 215.655 210.986 217.127 207.219 215.071C201.409 211.895 196.112 202.46 196.45 195.669C196.598 192.74 196.833 193.548 198.99 192.994C200.209 192.683 201.937 192.012 203.213 191.947ZM209.645 195.043L209.877 194.884C209.926 194.925 209.733 194.982 209.714 194.997C209.706 195.005 209.649 195.043 209.645 195.043ZM193.389 193.48C192.618 200.02 193.476 205.002 190.997 211.876C190.059 214.468 188.396 216.505 186.744 218.167C185.802 219.115 185.32 220.113 183.315 219.969C179.969 219.726 180.44 214.839 180.482 212.051C180.585 205.529 186.637 195.483 191.695 191.818C193.845 190.259 193.643 191.333 193.389 193.48ZM205.601 183.934C214.813 183.043 223.559 180.361 230.633 184.796C232.813 186.161 233.762 188.108 233.253 191.522C232.554 196.204 223.149 196.177 218.63 195.13C214.236 194.11 208.776 191.287 205.028 189.39L205.601 183.934ZM202.761 185.418C202.149 188.555 201.113 191.249 197.258 190.866C194.24 190.566 192.219 187.941 192.527 184.431C193.169 177.151 204.253 177.747 202.761 185.418ZM191.16 189.083C187.598 192.524 181.052 193.931 175.834 196.056C173.149 197.149 170.317 197.998 166.686 198.017C162.111 198.04 160.736 197.486 158.898 194.39C154.584 187.114 173.742 183.043 179.893 182.925C182.271 182.88 189.242 183.676 190.18 183.475C190.101 184.526 189.801 185.346 190.089 186.48C190.378 187.607 190.932 188.127 191.16 189.083ZM211.946 180.471C211.905 180.88 211.081 180.213 211.935 180.228C212.569 180.239 211.95 180.429 211.95 180.44L211.946 180.471ZM198.686 177.424C199.746 175.011 201.382 171.726 202.81 169.468C203.634 168.167 203.987 166.942 204.781 165.572C205.48 164.366 206.129 163.121 206.858 161.79C208.768 158.314 214.065 154.183 217.35 154.79C222.879 155.811 225.833 159.168 224.31 164.995C223.54 167.947 221.212 170.292 219.552 172.01C217.373 174.271 215.018 174.973 212.224 176.673C209.816 178.137 207.09 180.019 204.842 181.157C203.881 180.349 203.676 179.317 202.366 178.631C200.885 177.853 200.167 177.925 198.686 177.424ZM191.285 181.169C187.074 180.391 176.84 171.745 175.337 168.444C173.833 165.147 172.356 160.932 172.694 156.82C173.024 152.76 175.181 149.589 177.516 147.597C180.634 144.941 183.144 148.913 186.349 151.349C192.542 156.053 196.883 174.594 194.559 177.599C193.811 178.57 192.816 177.792 191.285 181.169ZM198.117 172.086C197.752 170.705 197.38 167.955 197.137 166.418C196.389 161.725 193.989 156.099 191.221 152.593L184.625 146.026C182.225 144.292 178.614 141.963 175.64 144.994C171.239 149.494 168.802 158.542 171.053 164.958C175.097 176.483 180.858 177.014 182.445 179.883C173.837 180.22 165.354 181.597 158.803 186.833C156.536 188.646 155.351 189.549 156.035 193.396C156.586 196.481 157.922 198.196 160.425 199.224C162.874 200.233 165.847 200.791 169.048 200.415C172.193 200.051 174.3 199.212 177.045 198.188C178.215 197.752 183.751 195.764 184.477 195.707C181.036 200.582 180.547 201.17 178.485 207.889C177.042 212.597 177.304 219.419 180.6 221.85C185.069 225.143 188.464 220.724 191.289 216.611C195.261 210.825 194.935 204.402 195.774 203.029C196.214 203.943 196.526 204.975 196.959 206.019C197.585 207.517 200.786 212.392 201.675 213.511C203.718 216.069 207.306 219.817 212.626 218.804C215.607 218.235 216.135 209.353 215.212 205.81C213.792 200.343 209.835 196.947 209.729 195.183C211.407 195.176 218.193 200.62 232.615 196.299C235.881 195.32 235.744 194.516 236.397 191.075C237.453 185.513 233.052 182.542 228.666 181.195C225.567 180.243 224.546 179.989 220.741 180.015C218.626 180.027 213.781 180.63 212.212 180.315L215.626 177.842C218.432 176.005 223.445 172.659 225.055 170.189C226.441 168.065 226.995 163.838 226.577 160.739C225.696 154.206 219.978 150.393 213.203 152.992C211.498 153.648 207.488 156.323 206.395 157.396C204.952 158.808 200.57 165.944 199.92 167.993C199.499 169.336 199.169 170.5 198.394 171.714C198.364 171.764 198.284 171.942 198.257 171.9C198.234 171.855 198.174 172.033 198.117 172.086Z" fill="#3350E9"/>
<path fill-rule="evenodd" clip-rule="evenodd" d="M301.996 192.531C303.568 192.205 305.011 191.507 306.366 191.257L298.665 198.275C296.042 200.282 292.943 201.993 289.647 203.685C288.044 204.509 286.074 205.074 284.448 205.833C279.227 208.272 271.651 208.682 266.035 206.895C261.516 205.453 258.509 205.723 255.247 202.999C252.354 200.578 250.318 199.045 248.583 195.221C247.641 193.146 247.307 192.141 246.658 189.811C245.872 187.007 245.507 181.544 244.459 177.576C244.075 176.123 243.388 173.057 243.248 171.73C244.759 172.982 245.735 177.974 254.757 185.148C259.663 189.045 263.666 192.675 273.189 191.613C272.521 193.927 272.1 195.57 273.281 197.949C273.994 199.387 276.273 200.461 278.202 200.324C282.299 200.028 284.41 196.268 286.282 194C288.606 194.394 294.625 193.749 296.866 193.275C298.517 192.93 300.496 192.842 301.996 192.531ZM283.416 192.034C282.66 193.013 284.023 194.918 281.76 196.538C276.789 200.108 273.611 197.228 275.377 193.582C276.501 191.26 278.213 192.748 278.373 190.547C278.008 190.13 277.579 189.83 277.116 189.454C275.699 188.316 273.805 189.28 270.638 189.143C267.706 189.018 264.733 188.783 262.428 187.774C258.095 185.884 254.34 183.134 251.226 179.886C242.602 170.902 244.888 163.599 236.04 156.949C235.497 156.539 233.595 155.147 233.158 154.926C231.86 154.274 230.519 155.389 231.886 156.417C233.261 157.449 233.204 157.078 234.647 158.565C236.424 160.401 238.421 165.492 239.416 168.004C240.441 170.591 240.654 172.834 241.44 175.497C244.087 184.447 242.116 195.847 251.385 203.666C254.154 206.003 260.187 208.845 264.767 209.573C271.64 210.662 274.75 211.061 281.547 209.228C293.577 205.977 307.536 195.214 315.37 185.884C316.836 184.139 320.067 181.309 318.647 180.455C317.679 179.871 317.751 180.914 316 182.352C313.76 184.192 309.936 186.526 307.232 187.781C299.96 191.158 298.931 190.331 291.899 191.564C290.52 191.807 283.716 191.833 283.416 192.034Z" fill="#3350E9"/>
<path fill-rule="evenodd" clip-rule="evenodd" d="M29.6683 75.9382C34.7036 75.3615 45.131 72.0267 54.0318 70.8392C57.4076 70.3878 65.4503 74.0602 68.2945 75.7371C70.7931 77.2054 71.8564 78.3094 73.7702 79.8193C75.8739 81.4773 81.9306 89.3116 82.3331 90.6357C80.3168 90.1197 79.0067 89.0384 76.8119 88.291C70.5767 86.1779 64.4251 84.6186 57.8367 86.4169C57.3393 83.4083 57.6962 80.9803 56.9558 77.82C55.7216 77.6796 56.4014 77.3799 55.6305 77.8996C53.9825 79.0074 49.8206 85.495 48.3055 85.7833C46.2588 85.3925 41.4172 81.3862 39.5831 80.2822C38.0414 79.3527 36.6744 78.518 35.1137 77.6492C33.3327 76.6552 32.6872 76.8373 30.9822 76.439C30.9518 76.4314 30.2266 76.2189 30.2152 76.2114C29.7329 76.0255 29.9835 76.181 29.6683 75.9382ZM86.1153 94.2664C85.952 92.7185 82.3142 87.6461 81.5243 86.2386C79.732 83.0479 78.1675 81.5797 76.0334 79.0264C73.8765 76.4466 72.669 74.69 69.4337 72.9297C57.0165 66.169 51.4231 67.6107 39.0363 71.0934L23.9344 75.0884C22.0358 75.5057 19.8827 74.7962 20.9118 77.2774C23.0876 77.949 27.0596 78.3245 29.5278 78.7798C32.8277 79.383 34.5479 79.9407 37.13 81.2269C40.9881 83.1541 45.7917 86.5459 46.5967 86.9063C48.7194 87.8585 48.5713 88.3859 49.7713 88.5187C51.2598 87.3084 54.3432 82.4637 55.5356 81.7883L55.3989 89.3685C56.7469 89.8693 58.1519 87.8737 63.4681 87.8396C67.2844 87.8168 68.8907 88.1241 72.1754 88.9398C74.0816 89.414 77.5561 90.7267 79.2611 91.6676C80.1953 92.1836 85.0292 94.7824 85.5381 94.8089L86.1153 94.2664Z" fill="#3350E9"/>
<path fill-rule="evenodd" clip-rule="evenodd" d="M177.27 78.924C174.486 77.3571 170.594 64.7425 171.676 57.4924C172.253 53.6226 172.094 53.4595 173.757 50.5154C176.601 45.4848 177.778 44.4566 183.235 41.8616C185.415 40.8259 187.572 40.0633 190.07 39.6612C192.903 39.2021 194.76 38.1057 196.59 37.2141C194.988 40.3555 191.601 42.3548 188.961 45.1623C186.683 47.5904 184.64 51.0883 182.852 54.1879C181.196 57.0637 179.745 61.8212 178.918 65.3912C177.702 70.6457 177.596 73.2104 177.27 78.924ZM178.918 85.6353C180.566 84.831 179.65 83.2376 179.461 81.5038C179.301 80.0545 179.335 77.672 179.377 76.1734C179.461 73.3659 180.269 69.5683 180.812 66.867C182.707 57.4165 187.629 48.9638 194.141 42.518C195.113 41.5505 196.222 41.0687 197.107 40.1165C197.885 39.2818 201.257 34.9796 201.333 33.5986C201.47 31.2502 199.715 33.1206 198.88 33.5834L187.215 38.322L178.815 40.6817C176.924 41.4102 174.441 44.2973 173.309 45.8831C168.247 52.9625 168.281 64.3289 171.023 72.1253C171.991 74.8835 172.891 77.414 174.509 79.3792C176.161 81.3824 178.648 85.3735 178.918 85.6353Z" fill="#3350E9"/>
<path fill-rule="evenodd" clip-rule="evenodd" d="M298.255 142.316C300.963 141.902 301.551 141.898 303.955 142.832C306.176 143.7 306.685 144.471 305.261 146.933C303.496 149.991 301.248 151.049 296.573 151.205C294.337 151.277 292.316 151.523 290.832 150.336C289.913 149.6 288.272 147.817 288.644 145.836C289.085 143.492 295.423 142.744 298.255 142.316ZM308.295 144.85C310.179 136.302 289.423 139.254 287.034 144.353C286.567 145.343 286.423 146.781 286.681 148.181C287.805 154.263 292.324 154.46 298.897 153.504C304.16 152.737 307.236 149.649 308.295 144.85Z" fill="#3350E9"/>
<path fill-rule="evenodd" clip-rule="evenodd" d="M264.277 160.056C268.447 161.642 266.662 165.587 264.573 168.11C262.808 170.242 260.165 172.841 256.056 172.135C254.021 171.786 252.756 170.937 253.804 168.622C254.697 166.646 258.604 163.929 260.427 162.51L264.277 160.056ZM268.667 163.914C268.955 161.979 267.357 158.895 265.857 158.201C262.227 156.516 257.723 160.909 254.727 163.417C245.108 171.475 254.081 177.595 260.624 173.441C262.576 172.2 264.372 171.286 265.686 169.726C266.707 168.512 268.371 165.917 268.667 163.914Z" fill="#3350E9"/>
<path fill-rule="evenodd" clip-rule="evenodd" d="M254.233 144.292C255.467 144.065 258.247 143.856 259.5 144.478C261.467 145.453 259.109 153.257 251.074 152.464C248.332 152.191 244.224 149.945 244.842 146.811C245.306 144.482 251.867 144.725 254.233 144.292ZM262.314 146.318C263.571 137.801 247.098 141.777 245.135 143.568C244.554 144.099 244.713 144.091 244.06 144.694C238.949 149.391 247.037 154.699 253.747 154.297C256.458 154.134 258.213 153.307 259.584 151.891C262.014 149.38 261.942 148.853 262.314 146.318Z" fill="#3350E9"/>
<path fill-rule="evenodd" clip-rule="evenodd" d="M278.187 167.332C278.058 166.342 278.107 162.897 278.418 162.18C279.235 160.318 280.83 161.547 282.162 162.142C288.614 165.037 286.601 178.058 281.973 174.601C280.355 173.391 278.54 170.018 278.187 167.332ZM276.129 165.379C276.436 170.174 277.849 174.818 280.518 177.253C282.379 178.949 285.204 177.948 286.609 176.692C291.413 172.409 288.47 164.115 283.571 160.041C282.022 158.751 279.622 157.688 277.849 159.153C277.074 159.79 276.698 160.591 276.55 161.956C276.485 162.582 276.11 165.128 276.129 165.379Z" fill="#3350E9"/>
<path fill-rule="evenodd" clip-rule="evenodd" d="M104.798 99.7978C105.781 99.665 105.812 99.3805 106.746 99.9003C108.204 100.716 109.537 101.922 108.865 104.172C108.405 105.716 106.07 108.114 104.073 108.292C100.659 108.6 97.3857 104.897 101.585 101.069C102.759 99.9989 102.915 100.052 104.798 99.7978ZM111.584 105.997C113.319 101.82 109.689 97.8781 105.797 97.6998C101.521 97.5101 97.8641 99.0087 97.0895 103.341C96.3034 107.735 98.373 111.601 102.846 111.559C106.275 111.525 110.634 108.281 111.584 105.997Z" fill="#3350E9"/>
<path fill-rule="evenodd" clip-rule="evenodd" d="M18.3942 143.272C19.7802 142.729 21.5383 143.496 22.1117 144.653C23.6572 147.783 20.0346 153.481 16.2031 154.13C10.2831 155.128 10.3249 146.417 18.3942 143.272ZM24.5572 148.762C25.7647 143.01 20.0764 137.277 12.3109 143.833C9.50468 146.201 8.24398 151.307 11.0616 154.942C12.3792 156.641 13.8792 157.317 16.5525 156.364C20.2169 155.056 23.6952 152.851 24.5572 148.762Z" fill="#3350E9"/>
<path fill-rule="evenodd" clip-rule="evenodd" d="M28.8367 128.81C30.9936 128.184 33.0745 130.175 32.2543 132.452C31.7303 133.909 30.1734 135.657 28.176 135.768C23.8699 136.003 22.6357 130.623 28.8367 128.81ZM35.558 132.387C37.1604 123.233 24.0066 124.025 22.5142 131.993C21.7851 135.881 24.8875 138.966 28.7266 138.7C32.2999 138.454 35.0036 135.547 35.558 132.387Z" fill="#3350E9"/>
<path fill-rule="evenodd" clip-rule="evenodd" d="M292.183 117.898C293.794 122.22 292.335 123.953 289.715 129.432C288.379 132.232 284.832 137.042 281.232 134.273C279.098 132.634 279.227 132.171 280.518 129.565C282.5 125.57 286.985 117.61 292.183 117.898ZM294.587 121.635C295.487 114.575 289.427 114.829 285.166 119.78C282.74 122.595 279.022 127.155 277.773 131.442C276.402 136.143 283.894 139.402 288.28 134.379C290.573 131.75 294.01 126.15 294.587 121.635Z" fill="#3350E9"/>
<path fill-rule="evenodd" clip-rule="evenodd" d="M37.2971 108.676C38.1857 108.152 39.9173 108.437 40.3729 109.563C41.926 113.391 39.0097 117.508 36.6782 118.369C31.7986 120.171 31.8898 111.843 37.2971 108.676ZM43.426 112.352C44.1664 108.524 40.4375 104.426 36.6022 106.062C31.21 108.357 28.6772 116.138 32.1214 119.48C33.2188 120.547 36.0592 121.188 37.5933 120.679C40.7906 119.613 42.6703 116.271 43.426 112.352Z" fill="#3350E9"/>
<path fill-rule="evenodd" clip-rule="evenodd" d="M13.5868 110.106C15.812 109.047 20.0953 112.291 21.3219 113.403C26.7558 118.335 18.1017 125.737 12.8159 117.978C11.0274 115.349 10.6704 111.491 13.5868 110.106ZM9.25783 115.038C9.91097 119.534 12.645 122.493 16.8752 123.419C19.5751 124.01 21.4738 122.755 22.7496 121.522C24.1167 120.205 25.7077 119.344 25.028 116.498C24.4394 114.036 20.494 109.389 17.1448 108.3C14.088 107.306 13.2146 107.609 11.2742 109.32C9.70591 110.701 8.8819 112.454 9.25783 115.038Z" fill="#3350E9"/>
<path fill-rule="evenodd" clip-rule="evenodd" d="M51.4573 128.479C51.5522 129.675 53.5078 132.429 50.2156 134.322C44.2994 137.729 39.8109 133.138 44.9031 129.462C48.0283 127.205 49.7067 128.176 51.4573 128.479ZM53.9749 132.144C54.4192 130.672 53.3293 128.062 52.6686 127.049C50.5763 123.862 45.6284 126.093 43.0804 127.671C40.7717 129.102 40.6767 128.59 40.1527 131.571C39.3515 136.177 41.5197 138.397 46.3537 138.279C50.7624 138.173 52.9534 135.54 53.9749 132.144Z" fill="#3350E9"/>
<path fill-rule="evenodd" clip-rule="evenodd" d="M274.86 141.663C281.878 139.527 281.836 148.674 276.672 150.427C275.506 150.825 273.208 150.666 272.472 150.105C271.959 149.71 271.234 147.76 271.048 146.811C270.452 143.75 272.62 142.346 274.86 141.663ZM268.511 146.072C269.153 149.562 268.545 148.553 270.622 150.977C273.322 154.118 277.283 152.935 280.264 150.298C284.783 146.299 281.581 137.915 275.153 138.882C273.239 139.171 271.169 139.884 270.155 140.95C269.274 141.879 268.147 144.099 268.511 146.072Z" fill="#3350E9"/>
<path fill-rule="evenodd" clip-rule="evenodd" d="M31.4645 143.181C38.2123 142.741 39.2148 147.95 35.9187 152.267C34.2213 154.49 31.6847 153.288 31.0847 150.757C30.2911 147.43 30.8797 146.22 31.4645 143.181ZM38.1553 142.775C36.1503 141.796 30.0481 138.545 28.7152 142.096C27.4925 145.355 28.157 150.875 29.6114 153.269C31.8974 157.036 36.3554 155.959 38.0642 152.961C38.6641 151.91 39.6325 149.088 39.6514 147.76C39.678 145.427 38.4591 145.184 38.1553 142.775Z" fill="#3350E9"/>
<path fill-rule="evenodd" clip-rule="evenodd" d="M6.45164 129.591C12.7058 127.922 16.9892 132.125 12.7817 135.271C9.00723 138.093 4.48464 138.457 2.2822 134.861C0.205077 131.465 3.96441 130.255 6.45164 129.591ZM15.9563 134.098C16.4347 132.99 16.1765 132.053 15.8917 131.029C15.3943 129.276 15.5234 129.902 14.3766 128.901C13.1615 127.838 11.6805 126.567 9.27683 126.863C7.04022 127.136 5.05044 127.558 3.25811 128.229C1.07846 129.049 0.812645 129.823 0.163306 132.156C-1.29106 137.361 7.31743 142.111 12.6261 137.793C13.6931 136.928 15.3449 135.517 15.9563 134.098Z" fill="#3350E9"/>
<path fill-rule="evenodd" clip-rule="evenodd" d="M141.985 129.371C145.429 128.726 146.986 129.606 146.739 133.374C146.553 136.158 145.004 137.645 142.369 137.938C136.988 138.541 134.914 130.695 141.985 129.371ZM149.253 134.345C150.669 131.056 147.267 126.389 143.736 126.609C140.462 126.814 136.638 129.436 135.83 132.308C133.813 139.448 144.844 144.596 149.253 134.345Z" fill="#3350E9"/>
<path fill-rule="evenodd" clip-rule="evenodd" d="M261.03 131.412C260.73 129.614 261.516 122.698 265.124 123.961C266.043 124.283 266.434 125.41 266.848 126.431C270.155 134.61 261.528 134.398 261.03 131.412ZM258.786 129.701C259.443 133.427 260.696 136.67 265.39 135.399C267.216 134.902 268.112 133.931 269.084 132.55C270.235 130.915 269.65 129.322 269.126 127.512C268.348 124.815 266.635 119.651 263.229 121.093C260.848 122.098 258.133 126.006 258.786 129.701Z" fill="#3350E9"/>
<path fill-rule="evenodd" clip-rule="evenodd" d="M140.971 149.433C143.675 148.329 146.291 152.366 142.061 155.45C141.662 155.738 142.034 155.511 141.658 155.78C138.734 157.874 133.502 152.483 140.971 149.433ZM146.659 152.673C147.051 150.423 146.511 149.755 145.649 148.261C143.747 144.964 136.065 146.686 135.435 152.202C134.474 160.629 145.342 160.185 146.659 152.673Z" fill="#3350E9"/>
<path fill-rule="evenodd" clip-rule="evenodd" d="M138.362 165.576C142.6 164.225 143.147 172.056 139.004 172.712C134.812 173.376 133.718 167.052 138.362 165.576ZM143.925 170.022C145.585 162.211 134.918 160.701 133.27 167.905C132.435 171.574 134.69 174.473 137.584 174.825C140.948 175.235 143.375 172.629 143.925 170.022Z" fill="#3350E9"/>
<path fill-rule="evenodd" clip-rule="evenodd" d="M83.685 101.725C84.79 101.35 86.2178 101.467 87.319 101.949C88.781 102.583 88.5152 102.719 89.0582 104.168C89.9923 106.676 88.1316 107.97 86.1836 108.683C80.6547 110.717 78.3384 103.546 83.685 101.725ZM78.1789 106.486C79.0067 110.159 83.309 111.722 85.5419 111.157C95.43 108.638 91.1809 98.5459 84.1141 99.9799C81.8737 100.435 77.5296 103.599 78.1789 106.486Z" fill="#3350E9"/>
<path fill-rule="evenodd" clip-rule="evenodd" d="M83.8786 126.112C83.8065 127.527 84.5811 127.322 85.8191 128.749L86.0963 129.113C82.5534 129.181 77.5333 127.941 74.7917 126.18C73.1133 125.103 72.6918 126.473 74.2335 127.22C76.7283 128.43 85.7203 131.245 89.043 129.86C88.9215 128.275 87.9493 128.908 87 128.199C86.1266 127.55 86.7266 128.21 86.2975 127.33C88.7544 127.474 91.4618 127.22 94.044 127.178C95.6085 127.152 100.097 127.596 100.549 126.279C100.048 126.01 93.4858 126.389 92.0884 126.385C90.5429 126.381 84.3457 125.919 83.8786 126.112Z" fill="#3350E9"/>
<path fill-rule="evenodd" clip-rule="evenodd" d="M216.473 50.8531C215 50.174 212.976 51.1149 211.779 49.6884C210.99 47.7801 213.894 46.1715 215.869 46.0577C216.515 46.0197 217.035 46.3081 217.16 45.5683C217.544 43.2957 208.153 47.211 211.058 50.4282C211.571 50.9935 216.302 52.549 216.473 50.8531Z" fill="#3350E9"/>
<path fill-rule="evenodd" clip-rule="evenodd" d="M105.049 65.9376C105.151 65.763 105.398 66.0248 105.102 64.6287C104.536 61.9464 104.783 62.3979 104.449 60.0988C103.963 56.7678 105.128 55.7738 104.316 54.776C102.789 55.0947 103.378 58.7785 103.56 60.5768C103.754 62.4662 103.746 65.1484 105.049 65.9376Z" fill="#3350E9"/>
<path fill-rule="evenodd" clip-rule="evenodd" d="M82.3027 62.3713C82.4319 62.1323 78.8814 51.7826 78.008 50.1588C77.6852 49.5556 77.5523 48.7324 76.7777 49.1383C75.8815 49.6049 76.9258 50.4396 77.9169 52.2303C79.3409 54.795 81.1863 61.567 82.3027 62.3713Z" fill="#3350E9"/>
<path fill-rule="evenodd" clip-rule="evenodd" d="M112.055 167.238C112.161 165.963 111.603 165.61 110.912 164.897C106.754 160.61 101.612 159.324 106.112 162.347C111.664 166.077 110.304 167.522 112.055 167.238Z" fill="#3350E9"/>
<path fill-rule="evenodd" clip-rule="evenodd" d="M84.3192 158.736C88.0367 157.912 85.4052 158.295 89.6885 157.817C90.6796 157.707 91.7201 157.529 92.5745 157.506L94.5985 157.704C95.9997 157.738 93.4099 157.874 94.9516 157.681C94.9934 157.677 95.0845 157.643 95.1149 157.635C95.1491 157.632 95.225 157.605 95.2782 157.582C95.9541 155.769 90.8733 156.785 89.6771 156.949C88.6063 157.089 87.5696 157.214 86.5444 157.449C84.2736 157.981 84.323 157.673 84.3192 158.736Z" fill="#3350E9"/>
<path fill-rule="evenodd" clip-rule="evenodd" d="M118.502 35.6056C119.801 34.9872 119.345 32.6843 119.459 30.9733C119.532 29.8768 120.401 27.1263 119.968 26.4434C118.977 26.3372 119.068 26.5534 118.757 27.7599C118.43 29.0232 118.206 34.2284 118.502 35.6056Z" fill="#3350E9"/>
<path fill-rule="evenodd" clip-rule="evenodd" d="M209.338 74.5724C209.862 75.6461 209.296 75.4336 206.923 77.5279C206.452 77.9414 203.6 80.0204 203.437 80.3315C204.568 80.9423 207.549 77.9983 208.981 76.8905C209.129 76.7729 213.697 73.7188 210.99 73.7719C210.344 73.7833 209.782 74.3296 209.338 74.5724Z" fill="#3350E9"/>
<path fill-rule="evenodd" clip-rule="evenodd" d="M230.66 60.6565C231.123 60.611 232.27 59.7725 232.847 59.4197L238.224 56.984C238.9 56.7905 241.265 56.6578 240.312 55.6486C239.462 54.7456 230.868 59.3021 230.66 60.6565Z" fill="#3350E9"/>
<path fill-rule="evenodd" clip-rule="evenodd" d="M175.504 160.219C176.282 159.84 176.476 158.22 178.23 156.141C178.777 155.488 179.255 154.953 179.821 154.312C180.311 153.762 181.059 153.128 181.287 152.457C180.304 151.823 179.817 152.726 179.225 153.458C177.881 155.12 174.832 158.413 175.504 160.219Z" fill="#3350E9"/>
<path fill-rule="evenodd" clip-rule="evenodd" d="M109.203 70.3005C109.191 70.1184 107.441 64.1089 107.433 61.7567C107.433 61.1117 107.862 59.4272 106.928 59.9811C106.093 60.4781 106.962 64.7766 107.175 65.7896L108.436 69.6403C108.933 70.4788 108.565 70.069 109.203 70.3005Z" fill="#3350E9"/>
<path fill-rule="evenodd" clip-rule="evenodd" d="M195.641 69.7238C196.332 69.4317 196.78 68.1607 197.137 67.5347C197.676 66.5977 198.026 65.9755 198.607 65.0801C199.157 64.2265 199.609 63.4867 200.129 62.69C200.475 62.1588 201.785 60.941 201.382 60.5047C200.767 59.8408 200.646 60.4706 200.312 60.8765C199.955 61.309 199.841 61.5253 199.533 62.0602C199.013 62.9631 198.553 63.6195 198.029 64.4731C197.509 65.3229 195.728 68.7829 195.641 69.7238Z" fill="#3350E9"/>
<path fill-rule="evenodd" clip-rule="evenodd" d="M113.144 122.614C113.236 123.35 113.266 123.601 114.124 123.373L118.514 121.855C120.481 121.195 122.497 120.436 124.282 119.606C123.769 119.439 113.144 122.614 113.144 122.614Z" fill="#3350E9"/>
<path fill-rule="evenodd" clip-rule="evenodd" d="M202.719 84.2468C203.873 84.8614 208.271 81.3559 209.376 80.4681C210.177 79.8231 210.777 79.4893 210.196 78.1918C209.531 78.9392 209.516 79.2768 208.639 79.9863C207.883 80.5933 207.45 80.8323 206.664 81.4393C206.042 81.9211 203 83.636 202.719 84.2468Z" fill="#3350E9"/>
<path fill-rule="evenodd" clip-rule="evenodd" d="M210.648 162.985C212.155 162.56 212.778 160.697 216.64 158.599C217.221 158.288 217.008 158.588 217.297 158.049C216.56 156.391 215.015 158.284 213.595 159.472C212.592 160.31 210.845 161.683 210.648 162.985Z" fill="#3350E9"/>
<path fill-rule="evenodd" clip-rule="evenodd" d="M217.669 131.754C217.49 133.537 219.017 132.823 220.737 132.793C221.538 132.782 222.374 132.854 223.152 132.763C224.075 132.649 224.295 132.607 224.371 131.655C223.657 131.249 219.173 131.898 217.669 131.754Z" fill="#3350E9"/>
<path fill-rule="evenodd" clip-rule="evenodd" d="M153.969 87.3236C154.714 86.948 154.395 86.4814 154.611 85.4039C154.759 84.6565 154.957 84.243 155.082 83.488C155.541 80.6729 156.346 80.6274 155.674 79.421C154.896 79.5462 155.264 79.2237 154.922 80.0432C154.915 80.0621 154.66 80.9271 154.649 80.9764C154.357 82.0387 153.521 86.47 153.969 87.3236Z" fill="#3350E9"/>
<path fill-rule="evenodd" clip-rule="evenodd" d="M203.619 57.978C204.428 57.6555 205.316 56.0849 206.019 55.3678C206.919 54.4459 208.643 53.8389 208.012 52.5376C207.067 52.6894 204.576 55.493 203.881 56.396C203.334 57.1092 203 57.2761 203.619 57.978Z" fill="#3350E9"/>
<path fill-rule="evenodd" clip-rule="evenodd" d="M195.55 186.628C195.671 186.363 195.584 186.488 195.679 186.078L195.812 185.479C195.835 185.418 195.857 185.353 195.884 185.296C196.738 183.331 198.588 183.521 199.233 182.975C199.077 182.307 199.366 182.553 198.762 182.208C197.866 181.696 196.526 182.903 196.017 183.441C195.337 184.154 193.651 186.139 195.55 186.628Z" fill="#3350E9"/>
<path fill-rule="evenodd" clip-rule="evenodd" d="M227.17 65.4064C228.225 65.395 228.218 64.917 228.958 64.3555C229.585 63.8737 230.022 63.665 230.83 63.2743C231.601 62.9025 232.049 62.6597 232.824 62.3296C233.211 62.1589 234.92 61.7112 234.225 61.0283C233.811 60.6224 230.986 62.2385 230.352 62.599C229.486 63.096 227.371 64.4693 227.17 65.4064Z" fill="#3350E9"/>
<path fill-rule="evenodd" clip-rule="evenodd" d="M179.529 51.2591C179.195 50.5193 178.883 51.0656 178.542 50.0375C179.324 49.4722 179.362 49.7339 180.152 49.6846C180.706 49.6467 181.055 49.6998 181.006 49.0814C180.93 48.1216 179.134 48.4137 178.496 48.6679C176.062 49.6391 178.204 52.678 179.529 51.2591Z" fill="#3350E9"/>
<path fill-rule="evenodd" clip-rule="evenodd" d="M119.968 51.1452C120.257 50.6558 119.6 48.1898 119.471 47.3286C119.19 45.4469 119.194 44.1342 118.502 43.7434C117.496 44.6881 119.144 50.5648 119.968 51.1452Z" fill="#3350E9"/>
<path fill-rule="evenodd" clip-rule="evenodd" d="M213.936 96.7096C214.574 97.1649 215.334 96.869 216.26 96.5882C217.517 96.2088 221.694 94.9531 220.358 93.2079C218.732 93.3672 220.901 93.7239 217.635 95.3287C216.974 95.6511 216.435 95.8864 215.736 96.1178C214.962 96.372 214.548 96.3492 213.936 96.7096Z" fill="#3350E9"/>
<path fill-rule="evenodd" clip-rule="evenodd" d="M248.974 124.246C250.121 124.113 253.565 120.641 252.813 118.938C251.45 119.196 252.585 119.116 250.789 121.594C250.151 122.474 249.236 123.293 248.974 124.246Z" fill="#3350E9"/>
<path fill-rule="evenodd" clip-rule="evenodd" d="M152.5 80.506C152.936 79.9256 153.517 78.1007 153.855 77.3305C154.303 76.2986 155.154 75.2819 154.732 74.2082L153.939 74.231C153.734 74.7773 153.734 75.3236 153.491 75.942C153.286 76.458 153.069 76.8525 152.925 77.3078C152.629 78.2411 152.078 79.77 152.5 80.506Z" fill="#3350E9"/>
<path fill-rule="evenodd" clip-rule="evenodd" d="M155.192 94.3954C155.803 93.9439 155.594 93.6859 155.739 92.6692L156.343 88.8639C156.475 87.7068 156.559 87.6499 155.925 87.2022C155.484 87.5512 155.64 87.2136 155.526 87.9193C155.348 89.0422 154.938 93.9401 155.192 94.3954Z" fill="#3350E9"/>
<path fill-rule="evenodd" clip-rule="evenodd" d="M253.728 197.911C254.013 197.475 254.112 198.552 253.766 196.633C253.367 194.402 254.408 193.852 254.165 192.345C252.054 192.816 252.562 197.885 253.728 197.911Z" fill="#3350E9"/>
<path fill-rule="evenodd" clip-rule="evenodd" d="M80.3396 173.198C81.2737 173.604 82.2382 173.061 83.1762 172.826C84.8584 172.405 85.6976 173.418 85.7014 171.513C83.6015 171.46 83.1989 172.094 81.5547 172.488C81.456 172.511 80.7877 172.674 80.7877 172.678C80.2143 172.981 80.5598 172.625 80.3396 173.198Z" fill="#3350E9"/>
<path fill-rule="evenodd" clip-rule="evenodd" d="M107.221 178.562C106.959 179.397 109.94 182.413 109.943 182.413L110.555 181.772C109.708 180.88 108.273 178.555 107.878 178.433C106.902 178.13 107.331 178.505 107.221 178.562Z" fill="#3350E9"/>
<path fill-rule="evenodd" clip-rule="evenodd" d="M178.428 161.911C179.183 161.68 178.602 162.355 179.111 161.202C179.309 160.758 179.301 160.568 179.54 160.147C180.011 159.316 180.607 159.35 180.509 158.17C179.153 158.113 177.357 161.038 178.428 161.911Z" fill="#3350E9"/>
<path fill-rule="evenodd" clip-rule="evenodd" d="M244.767 126.196C245.61 125.406 248.765 123.415 247.763 122.038C246.775 122.132 247.364 122.542 246.088 123.991C245.423 124.746 244.379 125.247 244.767 126.196Z" fill="#3350E9"/>
<path fill-rule="evenodd" clip-rule="evenodd" d="M88.6101 73.7643C88.8607 73.4001 89.6961 74.6596 87.9987 72.4402C87.6304 71.9584 87.3646 71.4918 87.0342 70.9341C86.3051 69.7048 85.7697 68.4415 84.9419 68.0773C85.2305 69.6745 87.9342 73.8591 88.6101 73.7643Z" fill="#3350E9"/>
<path fill-rule="evenodd" clip-rule="evenodd" d="M77.5219 171.312C78.4029 172.712 81.2927 170.705 81.5243 170.512C81.5661 169.066 80.6054 169.829 79.8801 170.295C78.9004 170.921 78.4029 170.88 77.5219 171.312Z" fill="#3350E9"/>
<path fill-rule="evenodd" clip-rule="evenodd" d="M223.714 71.2072C223.783 71.1921 228.305 68.2291 227.291 67.8269C226.646 67.5689 224.508 69.6631 223.999 70.1753C223.513 70.6685 223.479 70.4712 223.714 71.2072Z" fill="#3350E9"/>
<path fill-rule="evenodd" clip-rule="evenodd" d="M175.375 56.0697C175.868 56.4187 176.02 56.5856 176.932 56.6008C176.78 55.9103 176.666 56.377 176.4 55.2995C177.942 54.1386 178.105 54.8632 178.667 53.9451C177.376 53.137 175.428 54.4573 175.375 56.0697Z" fill="#3350E9"/>
<path fill-rule="evenodd" clip-rule="evenodd" d="M43.6728 80.0925L47.2309 82.4105L47.5764 81.8376C47.5726 81.8339 44.1399 78.2562 43.6728 80.0925Z" fill="#3350E9"/>
<path fill-rule="evenodd" clip-rule="evenodd" d="M112.1 72.6716C112.358 72.114 112.317 72.1443 111.971 71.4614C111.208 69.9552 111.018 68.3428 110.479 67.6941C109.978 68.6122 110.399 69.629 110.722 70.5547C111.272 72.1481 111.307 72.4782 112.1 72.6716Z" fill="#3350E9"/>
<path fill-rule="evenodd" clip-rule="evenodd" d="M102.907 166.357C103.522 167.025 104.065 166.813 105.011 167.355C106.157 168.008 105.751 168.6 106.924 168.694C107.042 166.722 104.456 166.084 103.59 166.134C102.33 166.202 103.328 166.069 102.907 166.357Z" fill="#3350E9"/>
<path fill-rule="evenodd" clip-rule="evenodd" d="M227.101 86.6786C228.157 86.1778 228.75 83.7915 228.112 82.6002C226.919 82.8392 227.443 82.972 227.284 84.4251C227.193 85.2939 226.71 86.0147 227.101 86.6786Z" fill="#3350E9"/>
<path fill-rule="evenodd" clip-rule="evenodd" d="M162.285 110.808C162.897 110.523 162.733 110.626 163.033 109.723C163.375 108.694 164.078 106.524 163.812 105.743C162.961 106.05 163.333 105.716 163.014 106.938C162.771 107.856 162.054 110.14 162.285 110.808Z" fill="#3350E9"/>
<path fill-rule="evenodd" clip-rule="evenodd" d="M163.633 194.808C164.647 194.792 164.325 194.322 164.522 193.074L164.712 191.063C164.602 190.528 164.678 190.839 164.45 190.54C163.58 189.967 163.482 194.201 163.633 194.808Z" fill="#3350E9"/>
<path fill-rule="evenodd" clip-rule="evenodd" d="M234.256 130.191C234.32 130.213 239.386 129.864 239.196 128.142C237.423 129.204 234.654 129.003 234.256 130.191Z" fill="#3350E9"/>
<path fill-rule="evenodd" clip-rule="evenodd" d="M213.458 162.935C214.419 162.681 215.212 161.638 216.575 160.712L217.532 160.003C216.048 158.952 213.606 162.203 213.458 162.935Z" fill="#3350E9"/>
<path fill-rule="evenodd" clip-rule="evenodd" d="M257.093 199.22C257.974 200.119 257.795 199.637 257.875 199.561C258.338 199.121 257.742 199.038 257.18 198.116C256.618 197.198 256.838 196.94 256.861 195.714C256.132 195.745 255.999 195.722 255.953 196.651C255.904 197.71 256.443 198.556 257.093 199.22Z" fill="#3350E9"/>
<path fill-rule="evenodd" clip-rule="evenodd" d="M108.257 184.082L108.907 183.528C108.603 182.986 107.612 180.197 106.769 181.024C106.249 181.537 108.25 184.071 108.257 184.082Z" fill="#3350E9"/>
<path fill-rule="evenodd" clip-rule="evenodd" d="M85.9823 60.315L83.5255 54.9505C83.3736 55.0757 83.2597 54.7229 83.1571 55.4399C83.0432 56.2518 85.1887 59.8332 85.9823 60.315Z" fill="#3350E9"/>
<path fill-rule="evenodd" clip-rule="evenodd" d="M165.373 194.087C165.669 194.349 165.65 194.337 166.197 194.436L167.028 191.943C167.085 191.203 166.747 191.359 166.686 191.302C166.079 191.621 165.433 193.366 165.373 194.087Z" fill="#3350E9"/>
<path fill-rule="evenodd" clip-rule="evenodd" d="M73.3981 169.776C73.7323 170.796 73.9715 170.242 75.1145 169.92C76.079 169.647 76.7056 169.62 76.7739 168.691C75.9575 168.584 74.074 169.396 73.3981 169.776Z" fill="#3350E9"/>
<path fill-rule="evenodd" clip-rule="evenodd" d="M105.785 187.546C107.43 187.296 106.127 184.97 105.785 184.682C104.821 184.963 105.106 184.932 105.345 185.873C105.5 186.48 105.516 187.099 105.785 187.546Z" fill="#3350E9"/>
<path fill-rule="evenodd" clip-rule="evenodd" d="M241.626 127.918C242.803 127.899 244.125 126.256 243.396 125.164C242.564 125.293 242.724 125.642 242.389 126.385C242.01 127.243 241.714 127.019 241.626 127.918Z" fill="#3350E9"/>
<path fill-rule="evenodd" clip-rule="evenodd" d="M163.751 102.529C164.34 101.809 164.484 101.065 164.378 99.8889C164.07 99.5626 162.916 98.5041 163.265 99.8813C163.44 100.579 163.542 102.139 163.751 102.529Z" fill="#3350E9"/>
<path fill-rule="evenodd" clip-rule="evenodd" d="M199.556 89.3609C200.437 89.323 203.953 87.4033 204.287 86.561C203.33 86.9784 202.738 87.3274 201.846 87.8699C199.579 89.2471 199.768 88.2038 199.556 89.3609Z" fill="#3350E9"/>
<path fill-rule="evenodd" clip-rule="evenodd" d="M168.577 194.671L168.471 192.08C167.583 192.251 168.152 191.644 167.734 192.569C167.305 193.522 167.226 194.766 168.577 194.671Z" fill="#3350E9"/>
<path fill-rule="evenodd" clip-rule="evenodd" d="M46.3954 78.6394C46.5891 79.1516 48.1004 80.2898 49.065 80.3467C48.8713 79.2958 47.1397 77.8845 46.3954 78.6394Z" fill="#3350E9"/>
<path fill-rule="evenodd" clip-rule="evenodd" d="M223.676 90.0552C224.272 89.8124 225.237 87.9496 224.614 87.0391C223.547 87.6802 223.46 89.6455 223.676 90.0552Z" fill="#3350E9"/>
<path fill-rule="evenodd" clip-rule="evenodd" d="M103.093 190.999C103.389 190.976 104.095 191.606 103.959 189.003C103.89 187.743 102.428 189.253 103.093 190.999Z" fill="#3350E9"/>
<path fill-rule="evenodd" clip-rule="evenodd" d="M290.911 198.894C292.111 198.704 293.425 198.093 293.463 197.069C292.783 196.963 292.563 197.293 291.952 197.676C291.12 198.199 291.185 197.922 290.911 198.894Z" fill="#3350E9"/>
<path fill-rule="evenodd" clip-rule="evenodd" d="M208.392 132.065C207.796 131.848 207.352 131.7 206.794 131.852C206.782 131.867 206.186 132 206.778 132.622C207.063 132.918 208.161 133.286 208.947 132.387C208.742 132.22 208.969 132.273 208.392 132.065Z" fill="#3350E9"/>
<path fill-rule="evenodd" clip-rule="evenodd" d="M181.348 167.348C181.101 166.376 181.101 167.044 180.858 166.088C180.642 165.238 181.15 165.693 180.383 164.961C179.358 166.035 179.939 167.181 181.348 167.348Z" fill="#3350E9"/>
<path fill-rule="evenodd" clip-rule="evenodd" d="M197.748 186.347C198.382 186.279 198.147 186.362 198.584 186.006C198.975 185.683 199.013 185.653 199.172 185.171C198.17 184.014 197.35 185.403 197.748 186.347Z" fill="#3350E9"/>
<path fill-rule="evenodd" clip-rule="evenodd" d="M171.448 192.748C172.215 193.4 173.579 192.971 173.654 191.909C172.766 191.773 171.885 192.273 171.448 192.748Z" fill="#3350E9"/>
<path fill-rule="evenodd" clip-rule="evenodd" d="M99.421 157.844C99.2349 158.254 99.2235 158.269 99.6678 158.868L100.522 158.705C100.207 156.748 99.4362 157.833 99.421 157.844Z" fill="#3350E9"/>
<path fill-rule="evenodd" clip-rule="evenodd" d="M114.344 73.9313C114.629 73.4608 114.686 73.4229 114.417 72.6793C114.291 72.3227 114.071 72.0647 113.896 71.837C113.547 72.7703 113.748 73.3508 114.344 73.9313Z" fill="#3350E9"/>
<path fill-rule="evenodd" clip-rule="evenodd" d="M213.465 132.713C214.331 132.858 214.175 132.114 213.648 131.625C213.283 131.773 213.12 131.272 213.029 132.201C212.995 132.543 213.272 132.683 213.465 132.713Z" fill="#3350E9"/>
<path fill-rule="evenodd" clip-rule="evenodd" d="M104.946 125.903C102.713 125.008 106.279 123.684 104.946 125.903V125.903Z" fill="#3350E9"/>
<path fill-rule="evenodd" clip-rule="evenodd" d="M260.26 200.237C260.681 200.98 260.457 201.098 261.562 201.25C261.558 200.29 261.27 200.191 260.26 200.237Z" fill="#3350E9"/>
<path fill-rule="evenodd" clip-rule="evenodd" d="M108.109 125.418C109.119 125.319 109.552 124.522 108.231 124.283C108.079 124.53 108.079 124.363 108.01 124.815C107.954 125.198 108.033 125.107 108.109 125.418Z" fill="#3350E9"/>
<path fill-rule="evenodd" clip-rule="evenodd" d="M118.127 39.5284L118.867 40.1354C119.137 39.7788 119.175 39.756 119.171 39.0845C118.582 38.9404 118.218 38.8 118.127 39.5284Z" fill="#3350E9"/>
<path fill-rule="evenodd" clip-rule="evenodd" d="M83.9318 65.8047L84.4179 65.4785C84.1938 64.8525 84.1141 64.6476 83.4458 64.6097C83.2673 65.4785 83.4875 65.414 83.9318 65.8047Z" fill="#3350E9"/>
</svg>
