<svg width="236" height="360" viewBox="0 0 236 360" fill="none" xmlns="http://www.w3.org/2000/svg">
<path fill-rule="evenodd" clip-rule="evenodd" d="M244.21 266.192C247.095 262.671 246.344 257.387 250.086 254.066C250.433 253.762 250.58 252.853 250.353 252.453C249.077 250.17 250.682 248.757 251.842 247.074C252.606 245.961 253.838 244.169 251.615 243.452C249.282 242.702 250.731 241.936 251.446 241.577C256.656 239.015 256.913 233.177 260.545 229.464C261.989 227.984 263.327 224.759 263.185 222.63C262.989 219.742 264.732 218.867 266.252 217.363C266.656 216.963 266.652 216.058 266.59 215.408C266.439 213.862 265.639 212.516 264.839 211.187L264.852 210.887C264.923 209.775 264.634 207.874 265.127 207.674C268.777 206.199 267.394 202.553 269.008 200.228C269.626 199.336 269.634 196.99 267.465 197.378C265.55 197.724 262.932 197.711 261.936 199.857C259.211 205.741 254.082 210.325 251.775 216.388C250.78 219 248.219 219.563 246.197 220.813C245.499 221.242 245.077 220.517 244.841 219.588C243.877 215.754 245.699 213.212 248.784 211.096C250.139 210.166 251.411 209.166 252.295 207.758C256.038 201.791 257.362 195.198 258.105 188.448C257.816 188.085 257.527 187.719 257.238 187.356C258.976 185.635 260.9 183.977 259.509 181.239C259.207 180.643 259.549 180.493 260.091 180.397C262.269 180.005 262.274 178.422 262.269 176.847C262.265 175.797 263.403 171.338 263.967 170.163C264.065 169.963 264.27 169.655 264.194 169.559C262.189 167.104 265.363 165.838 265.647 163.917C266.141 163.179 266.016 162.396 265.847 161.608L265.981 161.579C266.145 161.562 266.31 161.546 266.474 161.529C266.305 161.487 266.132 161.446 265.963 161.404C265.856 161.229 265.812 161.041 265.825 160.841C265.945 159.82 266.07 158.804 266.19 157.783C266.959 155.728 269.119 153.837 266.745 151.453C266.012 150.715 266.888 150.061 267.656 149.657C268.785 149.574 269.297 150.386 269.972 151.007C270.528 151.516 269.568 152.753 270.999 152.795C271.572 152.811 271.875 152.545 271.919 152.024C272.004 151.057 271.737 150.507 270.572 150.099C269.857 149.849 269.701 148.665 268.763 148.007C267.977 147.457 267.63 145.015 269.203 144.494C271.412 143.765 270.821 141.936 272.186 140.71C270.63 140.29 268.928 142.873 268.345 140.119C267.625 139.34 266.896 138.344 266.212 140.081C266.212 140.077 266.207 140.077 266.207 140.073C263.901 137.394 264.358 134.36 266.163 131.993C270.083 126.859 273.075 121.259 276.564 115.929C280.929 109.258 285.636 102.736 290.241 96.1776C291.347 94.5983 292.014 92.819 292.01 90.8646C289.285 93.5357 287.738 96.886 285.071 99.4695C281.809 98.9653 279.177 97.5402 277.6 94.7441C277.133 93.9191 276.782 93.1107 275.662 93.1023C275.435 93.0982 275.133 93.4899 274.99 93.7607C274.364 94.9233 275.173 95.6567 275.982 96.3276C276.644 96.8735 277.951 96.9735 277.564 98.2111C277.182 99.4279 276.004 99.407 274.928 99.4612C274.893 99.2654 274.853 99.0653 274.813 98.8695C274.706 98.9195 274.604 98.9737 274.497 99.0237C274.639 99.1695 274.782 99.3154 274.924 99.4612C277.782 101.824 275.63 103.749 274.461 105.712C273.11 105.937 273.915 103.637 272.568 104.403C271.648 104.928 272.141 105.916 272.595 106.787C273.461 108.449 275.897 108.595 276.466 110.479C274.013 113.687 272.35 117.621 267.719 118.825C265.514 118.567 263.443 118.029 261.878 116.413C262.829 115.533 263.003 114.608 262.376 113.429C261.412 111.616 260.069 113.508 259.002 113.021C258.989 112.791 258.976 112.558 258.962 112.329C258.487 110.92 259.66 110.191 260.58 109.787C262.763 108.82 262.727 107.57 261.612 105.949C263.327 105.483 264.398 104.591 263.336 102.874C262.158 100.978 263.127 99.6279 264.336 98.2611C265.83 97.9944 267.759 97.8861 267.136 95.8442C266.852 94.9025 265.519 93.6524 264.598 93.6024C262.825 93.5024 263.158 95.515 262.474 96.5568C262.247 96.8985 262.629 97.5944 262.736 98.1278C260.758 99.232 258.785 100.332 256.807 101.436C257.762 99.282 260.616 97.7319 259.202 94.8233C260.558 94.7566 261.603 93.9316 261.554 92.8565C261.478 91.1813 259.86 93.7566 259.331 92.3898C259.242 92.1606 258.767 92.0647 258.469 91.9064C258.456 90.973 259.154 90.4813 259.838 89.9812C262.874 89.5687 261.34 87.1352 261.789 85.1975C262.803 86.5351 263.301 88.4061 264.95 86.4559C266.514 86.9018 266.101 88.2603 266.421 89.2728C266.012 90.1062 264.323 90.4104 265.034 91.623C265.439 92.3106 266.403 93.1107 267.15 93.144C269.617 93.2523 268.408 91.0105 269.163 89.9771C271.79 88.2269 269.114 86.3601 269.306 84.5558C268.537 84.7725 267.563 85.9559 267.074 84.7225C266.176 82.4723 264.718 83.7766 263.412 83.8974C262.709 83.7182 262.007 83.5349 261.305 83.3557C263.674 78.8886 265.679 74.2299 268.768 70.1296C270.297 68.1002 270.701 65.8876 270.559 63.5082C271.643 62.5123 270.737 61.4997 270.586 60.4954C273.177 61.3497 273.061 59.4537 273.684 58.0161C274.484 56.1617 272.955 56.9493 272.297 56.7201C271.906 55.2783 270.541 54.6533 269.421 53.9199C268.314 53.1907 268.119 52.4573 268.688 51.4113C270.079 49.1528 269.706 46.6318 269.866 44.1982C269.874 44.0774 269.417 43.9274 269.097 43.7857C269.105 44.1066 269.114 44.4233 269.119 44.7441C268.728 44.5441 268.381 44.3483 268.448 44.1399C268.381 44.3483 268.732 44.5483 269.119 44.7441C269.11 44.4233 269.101 44.1066 269.097 43.7857C269.097 43.7732 269.097 43.7607 269.097 43.7524L268.981 43.7357C271.599 36.7226 276.226 30.5804 279.737 23.5882C278.257 23.6424 277.96 24.1216 277.604 24.5841C275.142 27.7885 272.288 30.7846 270.888 34.5849C270.181 36.5018 267.963 36.8476 267.016 38.9353C265.607 42.0522 263.652 45.7109 259.06 46.2776C258.398 43.9232 259.038 41.7939 260.691 40.0479C261.896 38.7811 260.874 37.9936 260.34 37.0893C259.918 36.3768 259.145 36.3643 258.469 36.7643C257.513 37.3268 256.602 38.0769 257.367 39.2228C258.762 41.323 256.998 42.4898 255.98 43.9024C253.691 43.9691 252.117 44.6941 252.513 47.2235C250.86 46.1192 248.726 43.2982 249.064 48.3111C249.144 49.4945 247.415 50.0737 245.979 49.8612C244.819 49.6904 243.686 49.3862 242.539 49.1403C242.85 48.2736 243.966 47.086 241.988 46.886C239.974 46.6818 238.841 48.1902 238.383 49.6487C237.974 50.953 239.41 50.3321 240.112 50.3904L240.228 50.6279C240.25 51.5197 240.272 52.4156 240.294 53.3073C237.245 54.0532 239.507 55.9159 239.343 57.2743C238.294 57.541 237.245 57.8077 236.196 58.0702C236.441 57.0868 236.685 56.0992 236.925 55.1158C237.049 54.8658 237.329 54.5616 237.258 54.3783C237.063 53.8824 236.627 53.9282 236.205 54.1907C233.907 55.9909 234.143 59.2078 231.862 61.0163C227.218 60.8538 228.76 63.729 229.076 66.0001C228.235 66.9418 227.462 67.9502 226.542 68.8128C225.182 70.0837 223.506 71.5505 221.644 70.1379C219.772 68.7128 221.702 67.121 222.235 65.6375C222.542 64.7875 223.115 64.4958 224.088 64.4291C224.964 64.3666 225.902 63.4957 225.333 62.8206C223.542 60.6871 224.715 58.6036 224.986 56.4659C225.075 55.7867 225.333 54.2991 223.631 55.4575C222.751 54.9158 222.844 54.0199 222.697 53.2073C223.866 51.2405 225.133 49.3195 226.191 47.3027C229.596 40.8188 234.623 35.1892 237.441 28.4053C238.894 26.3384 240.219 24.2216 240.552 21.6839C238.992 23.2507 237.681 24.93 237.134 27.0301C236.005 27.6344 233.423 27.2885 234.049 29.0261C235.009 31.6889 233.022 32.9223 232.067 34.7058C229.844 38.8478 226.151 41.9189 223.155 45.49C221.35 47.6402 219.63 49.6862 216.274 49.1862C215.95 48.6569 215.625 48.1319 215.297 47.6027C223.079 34.4641 232.031 21.9214 239.107 7.77437C237.37 8.25774 237.107 9.07447 236.703 9.73703C232.814 16.1042 228.889 22.4548 225.089 28.8678C219.284 38.6728 212.136 47.6819 205.985 57.2785C205.745 57.6535 205.242 57.9077 205.078 58.2953C203.513 61.9747 199.051 63.204 197.668 67.6419C195.406 74.8925 188.841 80.1762 184.694 86.6643C182.12 90.6896 178.751 94.3983 176.973 98.6945C175.498 102.27 174.195 101.22 172.008 99.9529C173.769 97.5652 175.355 95.1775 177.196 92.9732C181.538 87.7644 183.792 81.468 187.525 75.9134C190.886 70.913 193.726 65.4917 194.548 59.4287C196.673 57.4327 196.779 54.5074 198.304 52.2364C196.753 50.2529 200.309 46.3943 195.535 45.5442C195.49 45.5359 195.482 44.6566 195.682 44.2983C196.246 43.2857 195.575 42.5564 195.135 41.7897C193.281 38.5436 191.401 35.3142 189.534 32.0806C183.463 21.5505 177.387 11.0246 171.293 0.473755C169.937 1.21132 169.639 2.36975 169.088 3.33233C146.3 42.7856 123.524 82.2514 100.754 121.713C76.0627 164.508 51.3762 207.312 26.6853 250.107C18.0845 265.021 9.52383 279.951 0.825328 294.815C-0.712578 297.444 -0.139197 298.053 2.8655 297.907C6.23022 297.749 9.61717 297.903 12.9908 297.924C14.1198 298.52 15.0887 298.465 15.7999 297.332C17.9201 297.811 20.0714 297.982 22.2404 297.853C23.7784 297.761 25.4096 298.278 26.8319 297.478C28.4632 296.557 27.6587 294.815 27.8676 293.411C30.1656 294.123 28.5299 295.998 29.2988 297.169C33.2858 293.548 34.7615 291.248 35.4416 287.819C35.4727 287.673 35.8105 287.577 36.006 287.46C36.0016 287.464 35.9349 287.535 35.9349 287.535C35.9705 287.519 35.9972 287.51 36.0283 287.498C36.0194 287.485 36.0149 287.473 36.006 287.46C37.0061 286.531 34.7882 283.006 38.7485 284.456C38.8329 284.147 39.0552 283.81 38.9841 283.539C38.0418 280.08 42.6377 277.055 38.8818 273.284C41.8643 273.834 42.2955 275.438 42.9533 276.868C43.2244 277.459 43.3089 278.376 44.2334 278.247C45.0957 278.126 45.1935 277.322 44.9623 276.659C44.3845 274.976 45.6735 274.797 46.8425 274.488C46.8425 274.488 47.0692 274.701 47.0647 274.701C47.1403 275.347 45.9002 276.401 47.3848 276.559C48.9938 276.734 49.4872 274.947 49.336 274.209C48.8204 271.63 50.4428 270.992 53.5008 270.638C50.9051 269.609 50.9406 268.234 51.514 267.004C52.1407 265.667 53.3053 265.988 54.492 266.588C55.7944 267.246 56.0699 266.163 56.4922 265.367C57.0211 264.375 56.31 263.158 57.1234 262.229C57.0834 262.208 57.0434 262.179 57.0033 262.158C57.0434 262.183 57.0834 262.208 57.1234 262.229L57.1278 262.233C59.0435 262.879 59.0924 261.496 59.2524 260.425C59.488 258.866 59.5013 257.279 59.7458 255.724C59.9191 254.603 60.8392 253.428 61.786 254.741C64.4706 258.458 65.0129 254.908 65.3063 253.712C65.973 250.991 66.0397 248.144 66.3508 245.348C66.6353 245.336 66.9242 245.319 67.2086 245.307C69.7555 244.736 69.3377 241.206 69.6977 241.211C74.3604 241.273 72.2935 236.131 75.2982 235.135C75.1915 230.726 79.2763 228.359 81.4587 225.272C83.8678 221.859 86.3747 218.542 88.2237 214.812C90.6862 209.845 92.2996 204.578 94.2687 199.407C95.1132 199.895 94.5176 201.278 95.6555 201.27C96.6511 201.261 96.7978 200.232 97.1311 199.549C97.5845 198.628 97.9179 197.657 98.3401 196.719C100.269 192.465 102.38 189.623 105.27 187.839C102.563 194.24 101.318 200.474 97.4734 205.874C91.8107 213.821 87.9882 222.692 83.5256 231.239C83.1744 231.914 82.8322 232.893 83.0944 233.497C83.9745 235.502 82.9655 236.789 81.7965 238.314C80.7698 239.656 79.3519 241.511 82.4366 242.506C82.4544 242.844 82.4721 243.182 82.4899 243.519C79.5474 245.019 77.9962 247.486 76.9295 250.353C76.5872 251.278 75.8538 252.086 75.2449 252.912C72.1157 257.141 69.64 261.566 70.3245 266.967C67.022 266.171 66.1997 267.667 66.7197 270.4C67.0309 271.53 67.342 272.655 67.7954 274.292C69.7955 271.517 71.8135 269.588 72.7558 266.934C73.2314 265.588 74.4048 264.429 76.0849 265.346C78.054 266.421 77.0939 267.817 76.0849 269.046C75.7205 269.488 75.2849 269.892 74.8271 270.25C72.6091 271.967 71.6046 274.405 70.4311 276.734C68.2843 280.993 69.3866 286.123 66.6842 290.144C65.2574 292.269 66.6975 294.673 65.084 296.682C64.4173 297.515 64.8396 297.811 71.5246 297.878C73.0891 297.894 74.6582 297.869 76.2227 297.882C76.8183 297.886 77.8629 297.799 77.9473 298.015C79.1519 301.128 80.672 299.04 81.921 298.194C84.3301 296.569 84.6412 299.836 86.4458 299.803C87.2414 299.786 87.9081 301.053 87.4237 301.678C85.4502 304.241 86.0902 307.654 84.0989 310.17C84.2856 310.32 84.4679 310.47 84.6501 310.621C87.1392 309.795 87.5926 311.291 87.6859 313.042C87.9215 317.417 86.5569 321.721 84.2367 325.155C80.6364 330.485 77.4273 336.06 73.3736 341.156C69.7111 345.757 66.7286 350.836 63.4661 355.712C62.6883 356.874 62.4883 358.158 63.795 359.05C65.0485 359.9 66.3552 359.608 67.2531 358.395C72.6713 351.111 77.2673 343.307 81.8721 335.606C86.668 327.576 96.1755 317.734 106.083 314.146C103.776 318.354 101.7 322.017 97.5401 324.205C97.2778 322.78 96.3489 322.63 95.3399 323.426C94.282 324.263 93.602 325.322 95.3621 326.247C95.1843 327.539 93.8109 327.522 93.0019 328.109C89.5616 330.597 89.5838 331.931 93.1841 334.502C92.8197 336.106 90.0683 335.135 90.0061 337.198C89.8816 341.24 87.2192 344.44 84.6145 347.044C82.4588 349.195 82.441 351.674 80.7787 353.857C82.8722 354.137 83.0411 352.72 83.6634 351.895C89.9305 343.569 95.5799 334.81 103.225 327.447C103.932 327.222 104.638 327.001 105.35 326.776C104.643 327.001 103.932 327.222 103.221 327.451C102.958 328.822 102.189 330.205 103.354 331.531C103.389 332.418 103.327 333.464 104.825 332.872C105.91 332.443 107.003 332.193 108.172 332.256C108.714 333.839 106.505 334.718 106.981 336.289C108.377 336.723 109.674 337.052 109.372 334.848C109.225 333.772 109.23 332.677 109.168 331.589C109.892 331.689 110.337 331.364 110.581 330.735C110.821 330.772 111.061 330.81 111.306 330.847C112.741 332.606 114.546 332.885 116.524 331.66C116.893 331.906 117.262 332.151 117.631 332.397C118.831 333.006 119.995 333.268 121.155 332.156C119.982 331.189 118.986 331.801 117.991 332.089C117.795 331.218 117.617 330.33 116.293 330.968C115.813 330.931 115.328 330.893 114.844 330.86C116.017 329.58 117.191 328.301 118.364 327.022C119.413 325.863 122.035 327.109 122.307 324.755C123.138 323.988 124.685 324.522 125.48 323.126C124.24 322.801 123.004 323.259 122.511 321.196C121.991 319 124.116 318.896 124.085 318.346C123.902 315 125.947 316.058 127.814 316.279C128.485 316.358 129.592 316.767 129.929 315.638C130.209 314.692 129.689 314.162 128.725 313.946L128.64 313.875C128.636 313.654 128.645 313.437 128.676 313.217C129.618 312.116 131.312 311.608 131.57 309.975C132.539 310.266 132.97 309.437 133.636 309.1C134.543 309.787 135.45 310.475 136.357 311.162C136.979 311.921 136.557 312.687 136.308 313.412C134.388 319.038 130.987 323.909 127.378 328.664C126.685 329.576 125.582 330.322 126.289 331.614C126.876 332.681 127.911 333.393 129.16 333.427C130.623 333.468 131.143 332.297 131.503 331.201C132.072 329.476 132.476 327.809 134.957 327.48C136.179 327.318 136.992 325.988 136.641 324.834C135.654 321.592 137.69 319.784 139.93 317.996C140.473 317.563 141.384 317.229 141.517 316.713C142.882 311.458 147.655 309.954 152.114 308.137C154.5 307.166 156.314 305.624 158.074 303.866C161.554 300.407 165.812 298.374 171.377 298.203C169.048 304.983 165.679 311.046 163.883 317.617C164.768 317.842 165.172 317.738 165.546 317.359C165.892 317.009 166.048 316.338 166.795 316.525C167.67 317.613 165.19 319.43 167.515 319.98C169.213 320.384 169.662 318.534 170.6 317.642C172.715 315.642 172.711 311.733 176.902 311.541C177.133 311.529 177.56 310.541 177.471 310.079C177.182 308.616 177.756 307.204 176.809 305.608C175.853 303.999 175.978 300.47 177.396 300.128C181.094 299.232 181.414 296.732 182.32 294.223C182.645 293.327 182.983 292.302 184.414 292.198C185.97 292.081 186.045 293.29 186.556 294.069C187.112 294.923 187.534 295.861 187.934 296.794C188.139 297.265 187.939 298.265 188.677 298.044C190.943 297.361 194.201 298.286 195.193 295.398C196.522 291.527 199.1 288.019 198.917 283.685C198.815 281.339 199.037 278.964 199.304 276.622C199.446 275.384 200.411 274.517 201.824 274.734C203.14 274.934 203.282 276.043 203.34 277.109C203.433 278.772 202.442 280.135 201.998 281.647C201.678 282.731 201.398 283.947 202.362 284.86C203.344 285.793 204.358 284.881 205.371 284.693C208.109 284.185 209.767 282.56 210.625 280.222C212.687 274.613 218.163 270.834 219.817 265.021C219.875 264.812 220.066 264.633 220.217 264.458C221.484 263 222.995 262.175 224.924 263.271C226.902 264.4 226.715 266.083 225.809 267.725C224.906 269.359 223.395 270.5 221.87 271.638C218.875 273.872 216.794 276.58 216.039 280.268C215.332 283.71 213.288 286.81 213.376 290.548C213.416 292.211 213.559 294.378 212.763 295.665C211.216 298.174 212.985 297.815 214.354 297.844C217.972 297.911 221.599 297.707 225.204 297.911C227.52 298.044 228.564 297.399 229.231 295.253C230.587 290.894 231.591 286.198 234.098 282.443C237.676 277.118 240.09 271.221 244.21 266.192ZM243.201 124.201C243.201 124.217 243.192 124.234 243.192 124.255C243.192 124.238 243.201 124.222 243.201 124.201ZM251.188 130.78L251.162 130.797C251.157 130.801 251.157 130.801 251.153 130.805C251.148 130.81 251.188 130.776 251.188 130.78C251.682 130.48 252.082 130.114 252.335 129.643C252.082 130.118 251.682 130.485 251.188 130.78ZM255.655 125.301C255.66 126.147 255.362 126.826 254.784 127.364C255.362 126.83 255.664 126.147 255.655 125.301C256.549 125.268 257.447 125.238 258.34 125.205C257.447 125.238 256.549 125.272 255.655 125.301ZM265.647 147.865C265.647 147.874 265.643 147.878 265.643 147.886C265.643 147.878 265.643 147.874 265.647 147.865ZM265.554 148.34C265.55 148.374 265.541 148.407 265.536 148.44C265.536 148.407 265.55 148.374 265.554 148.34ZM260.371 116.333L260.389 116.35C260.38 116.346 260.376 116.338 260.371 116.333ZM239.516 57.4702C239.814 57.6744 240.108 57.8744 240.405 58.0786C240.57 58.2619 240.734 58.4453 240.899 58.6245C240.734 58.4411 240.57 58.2578 240.405 58.0786C240.112 57.8744 239.814 57.6702 239.516 57.4702C239.516 57.4702 239.499 57.4452 239.472 57.4202L239.516 57.4702ZM39.4819 245.515C39.5841 245.436 39.6863 245.353 39.7886 245.273C39.6863 245.353 39.5797 245.436 39.4819 245.515ZM114.564 319.525C114.564 319.525 114.564 319.521 114.568 319.521C114.568 319.525 114.564 319.525 114.564 319.525ZM109.154 331.551C109.154 331.556 109.154 331.556 109.154 331.56C109.15 331.56 109.154 331.556 109.154 331.551ZM118.751 322.709C118.506 322.026 118.586 321.238 118.244 320.584C118.586 321.238 118.502 322.026 118.751 322.709ZM208.683 267.521C208.172 268.475 207.954 269.567 207.98 270.767C207.954 269.567 208.167 268.475 208.683 267.521ZM211.158 265.092C211.154 265.092 211.154 265.092 211.158 265.092C211.163 265.071 211.172 265.046 211.181 265.025C211.172 265.05 211.163 265.071 211.158 265.092C211.181 265.079 211.194 265.067 211.216 265.054C211.194 265.067 211.176 265.079 211.158 265.092ZM221.386 57.3993C221.368 57.316 221.35 57.2327 221.328 57.1535C221.35 57.2327 221.373 57.316 221.386 57.3993ZM221.239 56.8868C221.213 56.8243 221.186 56.7618 221.15 56.7076C221.181 56.7618 221.213 56.8243 221.239 56.8868ZM221.373 58.2619C221.39 58.2452 221.408 58.2328 221.426 58.2161C221.408 58.2328 221.39 58.2494 221.373 58.2619ZM220.964 56.4743C220.924 56.4368 220.888 56.3993 220.844 56.3659C220.888 56.3993 220.928 56.4368 220.964 56.4743ZM220.759 56.3201C220.719 56.2951 220.679 56.2701 220.635 56.2534C220.679 56.2743 220.719 56.2993 220.759 56.3201ZM220.488 56.2117C220.453 56.1992 220.417 56.1867 220.373 56.1826C220.417 56.1867 220.453 56.2034 220.488 56.2117Z" fill="#FBE7FF"/>
<path fill-rule="evenodd" clip-rule="evenodd" d="M80.7166 304.524C79.0275 303.611 79.5876 305.587 79.1475 306.27C76.6762 310.112 77.3785 314.883 75.0005 318.867C77.4229 316.442 78.7164 313.337 81.3166 311.104C82.2856 310.27 82.6234 308.783 82.9745 307.441C83.4768 305.512 81.5833 304.991 80.7166 304.524Z" fill="#FBE7FF"/>
<path fill-rule="evenodd" clip-rule="evenodd" d="M124.858 334.51C122.538 334.564 122.267 336.718 121.871 338.152C121.502 339.494 122.782 340.877 124.334 340.865C126.898 340.848 126.347 338.556 126.961 336.902C126.943 335.718 126.463 334.468 124.858 334.51Z" fill="#FBE7FF"/>
<path fill-rule="evenodd" clip-rule="evenodd" d="M180.027 321.555C181.863 318.688 183.947 315.912 184.005 311.691C180.422 314.625 180.329 318.129 180.027 321.555Z" fill="#FBE7FF"/>
<path fill-rule="evenodd" clip-rule="evenodd" d="M118.257 335.618C117.155 334.147 115.066 335.193 113.55 334.531C113.19 335.318 114.097 335.668 114.23 336.289C114.19 336.364 114.15 336.439 114.11 336.514C114.15 336.439 114.19 336.368 114.23 336.289C114.635 336.506 115.15 336.639 115.417 336.96C115.902 337.539 115.608 339.127 117.164 338.181C118.08 337.623 118.924 336.51 118.257 335.618Z" fill="#FBE7FF"/>
<path fill-rule="evenodd" clip-rule="evenodd" d="M110.292 347.136C109.381 347.406 108.67 347.977 108.701 348.986C108.728 349.861 109.35 350.49 110.301 350.415C111.359 350.328 111.999 349.632 111.972 348.607C111.955 347.694 111.341 347.223 110.292 347.136Z" fill="#FBE7FF"/>
<path fill-rule="evenodd" clip-rule="evenodd" d="M106.963 336.318C106.981 336.314 107.003 336.314 107.021 336.31C107.017 336.297 107.017 336.285 107.012 336.272C106.994 336.268 106.977 336.26 106.959 336.256C106.959 336.277 106.959 336.297 106.963 336.318Z" fill="#FBE7FF"/>
<path fill-rule="evenodd" clip-rule="evenodd" d="M106.319 338.585C107.359 338.243 107.052 337.168 106.963 336.318C105.976 336.447 104.99 336.581 104.003 336.706C104.95 337.277 104.883 339.052 106.319 338.585Z" fill="#FBE7FF"/>
<path fill-rule="evenodd" clip-rule="evenodd" d="M120.471 346.286C118.928 347.261 117.977 348.582 117.719 350.323C119.315 349.44 120.004 347.94 120.8 346.515C121.893 346.015 122.738 345.361 122.689 343.873C120.942 344.102 120.72 345.206 120.471 346.286Z" fill="#FBE7FF"/>
<path fill-rule="evenodd" clip-rule="evenodd" d="M84.0458 311.474C84.4281 311.653 84.6637 311.049 84.677 310.612C84.4948 310.462 84.3081 310.312 84.1259 310.162C83.7792 310.595 83.3747 311.162 84.0458 311.474Z" fill="#FBE7FF"/>
<path fill-rule="evenodd" clip-rule="evenodd" d="M36.5616 287.927C36.5349 287.594 36.4149 287.369 36.0371 287.498C36.1749 287.735 36.3082 287.972 36.446 288.214C36.4904 288.118 36.5705 288.018 36.5616 287.927Z" fill="#FBE7FF"/>
</svg>
