<svg width="158" height="294" viewBox="0 0 158 294" fill="none" xmlns="http://www.w3.org/2000/svg">
<g clip-path="url(#clip0_2_2448)">
<path d="M0.366034 111.67L-48.2522 120.902L-15.9447 158.385L0.366034 111.67L-48.2522 120.902L-15.9447 158.385L0.366034 111.67Z" fill="#FBE7FF"/>
<path d="M-14.6414 165.572L-63.252 174.813L-30.9521 212.288L-14.6414 165.572L-63.252 174.813L-30.9521 212.288L-14.6414 165.572Z" fill="#FBE7FF"/>
<path d="M64.5311 97.3327L15.9204 106.573L48.2279 144.057L64.5311 97.3327L15.9204 106.573L48.2279 144.057L64.5311 97.3327Z" fill="#FBE7FF"/>
<path d="M121.073 91.62L72.4628 100.861L104.77 138.344L121.073 91.62L72.4628 100.861L104.77 138.344L121.073 91.62Z" fill="#FBE7FF"/>
<path d="M106.074 145.531L57.4554 154.763L89.7628 192.247L106.074 145.531L57.4554 154.763L89.7628 192.247L106.074 145.531Z" fill="#FBE7FF"/>
</g>
<defs>
<clipPath id="clip0_2_2448">
<rect width="176.735" height="244.373" fill="white" transform="translate(42.1055) rotate(49.2417)"/>
</clipPath>
</defs>
</svg>
