<svg width="131" height="83" viewBox="0 0 131 83" fill="none" xmlns="http://www.w3.org/2000/svg">
<g clip-path="url(#clip0_2_2441)">
<path d="M99.0488 63.375C116.695 63.375 131 49.9435 131 33.375C131 16.8065 116.695 3.375 99.0488 3.375C81.4026 3.375 67.0976 16.8065 67.0976 33.375C67.0976 49.9435 81.4026 63.375 99.0488 63.375Z" fill="#FBE7FF"/>
<path d="M12.7805 24.375C19.839 24.375 25.561 19.0024 25.561 12.375C25.561 5.74758 19.839 0.375 12.7805 0.375C5.72202 0.375 0 5.74758 0 12.375C0 19.0024 5.72202 24.375 12.7805 24.375Z" fill="#FBE7FF"/>
<path d="M31.9512 82.875C43.4212 82.875 52.7195 74.1446 52.7195 63.375C52.7195 52.6054 43.4212 43.875 31.9512 43.875C20.4812 43.875 11.1829 52.6054 11.1829 63.375C11.1829 74.1446 20.4812 82.875 31.9512 82.875Z" fill="#FBE7FF"/>
</g>
<defs>
<clipPath id="clip0_2_2441">
<rect width="131" height="82.5" fill="white" transform="translate(0 0.375)"/>
</clipPath>
</defs>
</svg>
