<svg width="115" height="158" viewBox="0 0 115 158" fill="none" xmlns="http://www.w3.org/2000/svg">
<g clip-path="url(#clip0_2_2331)">
<path d="M75.5834 75.8831C89.5507 64.2589 91.5921 43.3086 80.1429 29.0892C68.6938 14.8699 48.0897 12.7661 34.1224 24.3903C20.1551 36.0145 18.1138 56.9648 29.5629 71.1841C41.0121 85.4035 61.6162 87.5072 75.5834 75.8831Z" fill="#FBE7FF"/>
<path d="M35.9493 136.818C45.028 129.262 46.3549 115.644 38.9129 106.402C31.471 97.1593 18.0783 95.7918 8.99961 103.348C-0.0791231 110.903 -1.406 124.521 6.03594 133.764C13.4779 143.006 26.8705 144.374 35.9493 136.818Z" fill="#FBE7FF"/>
</g>
<defs>
<clipPath id="clip0_2_2331">
<rect width="134.901" height="90.9011" fill="white" transform="matrix(0.768633 -0.63969 0.627153 0.778896 -46.3496 87.0627)"/>
</clipPath>
</defs>
</svg>
