<svg width="342" height="518" viewBox="0 0 342 518" fill="none" xmlns="http://www.w3.org/2000/svg">
<rect opacity="0.92" x="49.5898" y="326.5" width="22.88" height="7.92" transform="rotate(134 49.5898 326.5)" fill="#1B00C3" fill-opacity="0.3"/>
<rect opacity="0.92" x="49.5898" y="390.5" width="22.88" height="7.92" transform="rotate(134 49.5898 390.5)" fill="#1B00C3" fill-opacity="0.3"/>
<rect x="29" y="212.332" width="18.98" height="6.57" transform="rotate(103 29 212.332)" fill="#1B00C3" fill-opacity="0.3"/>
<rect opacity="0.7" x="312.301" y="64" width="15.6" height="5.4" transform="rotate(79 312.301 64)" fill="#1B00C3" fill-opacity="0.3"/>
<rect opacity="0.77" x="152.332" y="295.668" width="15.86" height="5.49" transform="rotate(125 152.332 295.668)" fill="#1B00C3" fill-opacity="0.3"/>
<rect opacity="0.77" x="82.5938" y="355.148" width="15.86" height="5.49" transform="rotate(125 82.5938 355.148)" fill="#1B00C3" fill-opacity="0.3"/>
<rect opacity="0.94" x="241.668" y="311.668" width="21.32" height="7.38" transform="rotate(-75 241.668 311.668)" fill="#1B00C3" fill-opacity="0.3"/>
<rect opacity="0.78" x="90.4727" y="285.477" width="23.14" height="8.01" transform="rotate(159 90.4727 285.477)" fill="#FF6E48" fill-opacity="0.4"/>
<rect opacity="0.78" x="90.4727" y="421.477" width="23.14" height="8.01" transform="rotate(159 90.4727 421.477)" fill="#FF6E48" fill-opacity="0.4"/>
<rect opacity="0.78" x="250.473" y="429.477" width="23.14" height="8.01" transform="rotate(159 250.473 429.477)" fill="#FF6E48" fill-opacity="0.4"/>
<rect opacity="0.94" x="244" y="353.879" width="25.74" height="8.91" transform="rotate(-25 244 353.879)" fill="#FF6E48" fill-opacity="0.4"/>
<rect opacity="0.96" x="299.973" y="264" width="24.44" height="8.46" transform="rotate(36 299.973 264)" fill="#FF6E48" fill-opacity="0.4"/>
<rect opacity="0.71" x="87" y="216.668" width="18.72" height="6.48" transform="rotate(-17 87 216.668)" fill="#FF6E48" fill-opacity="0.4"/>
<rect opacity="0.98" x="194.789" y="321" width="15.86" height="5.49" transform="rotate(19 194.789 321)" fill="#FF6E48" fill-opacity="0.4"/>
<rect opacity="0.94" x="236.667" y="241.667" width="19.24" height="6.66" transform="rotate(-87 236.667 241.667)" fill="#FF6E48" fill-opacity="0.4"/>
<rect opacity="0.7" x="195.227" y="221.656" width="27.82" height="9.63" transform="rotate(154 195.227 221.656)" fill="#FFE066" fill-opacity="0.5"/>
<rect opacity="0.71" x="130.516" y="149.848" width="26.52" height="9.18" transform="rotate(-102 130.516 149.848)" fill="#FFE066" fill-opacity="0.5"/>
<rect opacity="0.84" x="295.18" y="211.398" width="30.16" height="10.44" transform="rotate(-132 295.18 211.398)" fill="#FFE066" fill-opacity="0.5"/>
<rect opacity="0.84" x="312.18" y="476.398" width="30.16" height="10.44" transform="rotate(-132 312.18 476.398)" fill="#FFE066" fill-opacity="0.5"/>
<rect x="66" y="113.332" width="20.28" height="7.02" transform="rotate(118 66 113.332)" fill="#FFE066" fill-opacity="0.5"/>
<rect opacity="0.82" x="287" y="142.332" width="29.38" height="10.17" transform="rotate(-78 287 142.332)" fill="#FFE066" fill-opacity="0.5"/>
<rect opacity="0.72" x="120.43" y="385.102" width="17.42" height="6.03" transform="rotate(-131 120.43 385.102)" fill="#FFE066" fill-opacity="0.5"/>
<rect opacity="0.72" x="123.43" y="447.102" width="17.42" height="6.03" transform="rotate(-131 123.43 447.102)" fill="#FFE066" fill-opacity="0.5"/>
<rect opacity="0.71" x="268" y="469.473" width="18.72" height="6.48" transform="rotate(-17 268 469.473)" fill="#FF6E48" fill-opacity="0.4"/>
<rect opacity="0.72" x="136.43" y="473.102" width="17.42" height="6.03" transform="rotate(-131 136.43 473.102)" fill="#FFE066" fill-opacity="0.5"/>
<rect opacity="0.98" x="52.7891" y="458" width="15.86" height="5.49" transform="rotate(19 52.7891 458)" fill="#FF6E48" fill-opacity="0.4"/>
<rect opacity="0.94" x="197" y="478.594" width="21.32" height="7.38" transform="rotate(-75 197 478.594)" fill="#1B00C3" fill-opacity="0.3"/>
</svg>
