<svg width="340" height="280" viewBox="0 0 340 280" fill="none" xmlns="http://www.w3.org/2000/svg">
<g clip-path="url(#clip0_3_1627)">
<rect opacity="0.92" x="40" y="43" width="22.88" height="7.92" transform="rotate(134 40 43)" fill="#1B00C3" fill-opacity="0.3"/>
<rect opacity="0.82" x="148.333" y="43" width="21.06" height="7.29" transform="rotate(-78 148.333 43)" fill="#1B00C3" fill-opacity="0.3"/>
<rect x="29" y="212.332" width="18.98" height="6.57" transform="rotate(103 29 212.332)" fill="#1B00C3" fill-opacity="0.3"/>
<rect opacity="0.7" x="176.301" y="120" width="15.6" height="5.4" transform="rotate(79 176.301 120)" fill="#1B00C3" fill-opacity="0.3"/>
<rect opacity="0.78" x="64" y="6" width="23.14" height="8.01" transform="rotate(159 64 6)" fill="#FF6E48" fill-opacity="0.4"/>
<rect opacity="0.94" x="221.668" y="90" width="25.74" height="8.91" transform="rotate(-25 221.668 90)" fill="#FF6E48" fill-opacity="0.4"/>
<rect opacity="0.96" x="251.973" y="31" width="24.44" height="8.46" transform="rotate(36 251.973 31)" fill="#FF6E48" fill-opacity="0.4"/>
<rect opacity="0.71" x="87" y="216.668" width="18.72" height="6.48" transform="rotate(-17 87 216.668)" fill="#FF6E48" fill-opacity="0.4"/>
<rect opacity="0.98" x="153.332" y="269.668" width="15.86" height="5.49" transform="rotate(19 153.332 269.668)" fill="#FF6E48" fill-opacity="0.4"/>
<rect opacity="0.94" x="236.667" y="241.667" width="19.24" height="6.66" transform="rotate(-87 236.667 241.667)" fill="#FF6E48" fill-opacity="0.4"/>
<rect opacity="0.7" x="91" y="36" width="27.82" height="9.63" transform="rotate(154 91 36)" fill="#FFE066" fill-opacity="0.5"/>
<rect opacity="0.71" x="181" y="88" width="26.52" height="9.18" transform="rotate(-102 181 88)" fill="#FFE066" fill-opacity="0.5"/>
<rect x="66" y="113.332" width="20.28" height="7.02" transform="rotate(118 66 113.332)" fill="#FFE066" fill-opacity="0.5"/>
<rect opacity="0.82" x="287" y="142.332" width="29.38" height="10.17" transform="rotate(-78 287 142.332)" fill="#FFE066" fill-opacity="0.5"/>
<rect opacity="0.72" x="108" y="264.668" width="17.42" height="6.03" transform="rotate(-131 108 264.668)" fill="#FFE066" fill-opacity="0.5"/>
</g>
<defs>
<clipPath id="clip0_3_1627">
<rect width="340" height="280" fill="white"/>
</clipPath>
</defs>
</svg>
