<svg width="108" height="161" viewBox="0 0 108 161" fill="none" xmlns="http://www.w3.org/2000/svg">
<rect width="108" height="161" fill="#F5F5F5"/>
<g clip-path="url(#clip0_2_1382)">
<rect width="390" height="3050" transform="translate(-282 -538)" fill="#FFFCFC"/>
<path d="M130.544 -1.37591C124.612 8.51535 115.846 10.1575 108.799 11.4664C102.525 12.6304 97.5666 13.5632 94.0525 19.4232C90.5385 25.2832 92.0185 30.1515 93.905 36.3028C96.0231 43.2136 98.6418 51.801 92.7141 61.708C86.7864 71.615 78.0163 73.2414 70.9847 74.5464C64.7114 75.7104 59.7526 76.6431 56.2385 82.5032C52.7244 88.3632 54.2045 93.2315 56.091 99.3827C58.209 106.294 60.8278 114.881 54.8963 124.772C48.9648 134.663 40.1985 136.306 33.1513 137.615C26.8781 138.778 21.9193 139.711 18.4052 145.571C16.9349 148.045 13.7599 148.845 11.3391 147.352C8.92211 145.875 8.15266 142.664 9.62669 140.206C15.5544 130.299 24.3245 128.672 31.3561 127.367C37.6294 126.203 42.5882 125.271 46.1022 119.411C49.6163 113.551 48.1363 108.682 46.2498 102.531C44.1317 95.6202 41.513 87.0329 47.4445 77.1416C53.3878 67.2307 62.1423 65.6082 69.1895 64.2992C75.4627 63.1353 80.4059 62.2064 83.9356 56.3425C87.4653 50.4785 85.9696 45.6142 84.0831 39.4629C81.9688 32.5678 79.3463 23.9647 85.2778 14.0735C91.2211 4.16253 99.9756 2.54006 107.007 1.23502C113.28 0.0710702 118.239 -0.861706 121.753 -6.72174C123.227 -9.17981 126.402 -9.98013 128.819 -8.50285C131.252 -7.02949 132.018 -3.83398 130.544 -1.37591Z" fill="#FBE7FF"/>
<path d="M150.544 9.80744C144.612 19.6987 135.846 21.3408 128.799 22.6498C122.525 23.8137 117.567 24.7465 114.053 30.6066C110.538 36.4666 112.019 41.3349 113.905 47.4861C116.023 54.3969 118.642 62.9843 112.714 72.8913C106.786 82.7983 98.0163 84.4247 90.9847 85.7298C84.7114 86.8937 79.7526 87.8265 76.2385 93.6865C72.7244 99.5466 74.2045 104.415 76.091 110.566C78.209 117.477 80.8278 126.064 74.8963 135.956C68.9648 145.847 60.1985 147.489 53.1513 148.798C46.8781 149.962 41.9193 150.895 38.4052 156.755C36.9349 159.228 33.7599 160.029 31.3391 158.536C28.9221 157.058 28.1527 153.847 29.6267 151.389C35.5544 141.482 44.3245 139.856 51.3561 138.551C57.6294 137.387 62.5882 136.454 66.1022 130.594C69.6163 124.734 68.1363 119.866 66.2498 113.714C64.1317 106.804 61.513 98.2162 67.4445 88.3249C73.3878 78.414 82.1423 76.7915 89.1895 75.4826C95.4627 74.3186 100.406 73.3898 103.936 67.5258C107.465 61.6619 105.97 56.7975 104.083 50.6463C101.969 43.7512 99.3463 35.1481 105.278 25.2568C111.221 15.3459 119.976 13.7234 127.007 12.4184C133.28 11.2544 138.239 10.3216 141.753 4.46161C143.227 2.00354 146.402 1.20322 148.819 2.6805C151.252 4.15386 152.018 7.34937 150.544 9.80744Z" fill="#FBE7FF"/>
<path d="M-256.5 52.58V50.4H-246.52V52.58H-256.5ZM-248.04 45H-245.68V59H-248.04V45ZM-257.44 45H-255.08V59H-257.44V45ZM-243.437 54.4C-243.437 53.4533 -243.224 52.62 -242.797 51.9C-242.357 51.18 -241.764 50.62 -241.017 50.22C-240.271 49.8067 -239.424 49.6 -238.477 49.6C-237.531 49.6 -236.691 49.8067 -235.957 50.22C-235.211 50.62 -234.617 51.18 -234.177 51.9C-233.737 52.62 -233.517 53.4533 -233.517 54.4C-233.517 55.3333 -233.737 56.1667 -234.177 56.9C-234.617 57.62 -235.211 58.1867 -235.957 58.6C-236.691 59 -237.531 59.2 -238.477 59.2C-239.424 59.2 -240.271 59 -241.017 58.6C-241.764 58.1867 -242.357 57.62 -242.797 56.9C-243.224 56.1667 -243.437 55.3333 -243.437 54.4ZM-241.217 54.4C-241.217 54.9733 -241.097 55.48 -240.857 55.92C-240.617 56.3467 -240.291 56.6867 -239.877 56.94C-239.464 57.18 -238.997 57.3 -238.477 57.3C-237.971 57.3 -237.511 57.18 -237.097 56.94C-236.671 56.6867 -236.337 56.3467 -236.097 55.92C-235.857 55.48 -235.737 54.9733 -235.737 54.4C-235.737 53.8267 -235.857 53.32 -236.097 52.88C-236.337 52.44 -236.671 52.1 -237.097 51.86C-237.511 51.62 -237.971 51.5 -238.477 51.5C-238.997 51.5 -239.464 51.62 -239.877 51.86C-240.291 52.1 -240.617 52.44 -240.857 52.88C-241.097 53.32 -241.217 53.8267 -241.217 54.4ZM-233.141 49.8H-230.801L-228.641 55.28L-226.101 49.1L-223.401 55.3L-221.241 49.8H-218.901L-223.201 59.66L-226.081 53.44L-228.841 59.66L-233.141 49.8ZM-198.366 53.16V59H-200.526V53.4C-200.526 52.7067 -200.653 52.1933 -200.906 51.86C-201.146 51.5133 -201.533 51.34 -202.066 51.34C-202.426 51.34 -202.746 51.42 -203.026 51.58C-203.293 51.74 -203.506 51.9733 -203.666 52.28C-203.813 52.5867 -203.886 52.96 -203.886 53.4V59H-206.046V53.4C-206.046 52.7067 -206.173 52.1933 -206.426 51.86C-206.666 51.5133 -207.053 51.34 -207.586 51.34C-207.96 51.34 -208.286 51.42 -208.566 51.58C-208.833 51.74 -209.04 51.9733 -209.186 52.28C-209.333 52.5867 -209.406 52.96 -209.406 53.4V59H-211.526V49.8H-209.406V51.14C-209.14 50.6333 -208.793 50.2533 -208.366 50C-207.926 49.7333 -207.413 49.6 -206.826 49.6C-206.146 49.6 -205.586 49.74 -205.146 50.02C-204.693 50.3 -204.366 50.7067 -204.166 51.24C-203.846 50.7067 -203.446 50.3 -202.966 50.02C-202.473 49.74 -201.913 49.6 -201.286 49.6C-200.633 49.6 -200.093 49.74 -199.666 50.02C-199.226 50.2867 -198.9 50.6867 -198.686 51.22C-198.473 51.7533 -198.366 52.4 -198.366 53.16ZM-193.388 55.4C-193.388 56.0533 -193.248 56.56 -192.968 56.92C-192.688 57.28 -192.262 57.46 -191.688 57.46C-191.275 57.46 -190.915 57.38 -190.608 57.22C-190.302 57.0467 -190.062 56.8067 -189.888 56.5C-189.715 56.18 -189.628 55.8133 -189.628 55.4V49.8H-187.468V59H-189.628V57.58C-189.922 58.1133 -190.302 58.52 -190.768 58.8C-191.222 59.0667 -191.768 59.2 -192.408 59.2C-193.435 59.2 -194.228 58.88 -194.788 58.24C-195.335 57.6 -195.608 56.7333 -195.608 55.64V49.8H-193.388V55.4ZM-183.27 54.4C-183.27 54.9867 -183.143 55.5 -182.89 55.94C-182.637 56.3667 -182.297 56.7067 -181.87 56.96C-181.43 57.2133 -180.943 57.34 -180.41 57.34C-179.97 57.34 -179.55 57.2733 -179.15 57.14C-178.75 57.0067 -178.397 56.82 -178.09 56.58C-177.783 56.34 -177.557 56.0733 -177.41 55.78V58.16C-177.73 58.48 -178.163 58.7333 -178.71 58.92C-179.257 59.1067 -179.857 59.2 -180.51 59.2C-181.457 59.2 -182.31 59 -183.07 58.6C-183.817 58.1867 -184.41 57.62 -184.85 56.9C-185.277 56.1667 -185.49 55.3333 -185.49 54.4C-185.49 53.4533 -185.277 52.62 -184.85 51.9C-184.41 51.18 -183.817 50.62 -183.07 50.22C-182.31 49.8067 -181.457 49.6 -180.51 49.6C-179.857 49.6 -179.257 49.6933 -178.71 49.88C-178.163 50.0667 -177.73 50.32 -177.41 50.64V53.02C-177.557 52.7133 -177.79 52.4467 -178.11 52.22C-178.417 51.98 -178.77 51.7933 -179.17 51.66C-179.57 51.5267 -179.983 51.46 -180.41 51.46C-180.943 51.46 -181.43 51.5867 -181.87 51.84C-182.297 52.0933 -182.637 52.44 -182.89 52.88C-183.143 53.32 -183.27 53.8267 -183.27 54.4ZM-172.862 43.4V59H-175.022V43.4H-172.862ZM-169.102 53.4C-169.102 52.72 -169.242 52.2067 -169.522 51.86C-169.789 51.5133 -170.222 51.34 -170.822 51.34C-171.222 51.34 -171.576 51.4267 -171.882 51.6C-172.189 51.7733 -172.429 52.0133 -172.602 52.32C-172.776 52.6267 -172.862 52.9867 -172.862 53.4H-173.382C-173.382 52.6667 -173.249 52.0133 -172.982 51.44C-172.716 50.8667 -172.342 50.4067 -171.862 50.06C-171.369 49.7133 -170.776 49.54 -170.082 49.54C-169.402 49.54 -168.829 49.6733 -168.362 49.94C-167.882 50.2067 -167.522 50.6067 -167.282 51.14C-167.042 51.66 -166.922 52.3133 -166.922 53.1V59H-169.102V53.4ZM-159.466 49.8H-154.246V51.7H-159.466V49.8ZM-157.926 46.6H-155.786V59H-157.926V46.6ZM-152.837 46.14C-152.837 45.7667 -152.703 45.4533 -152.437 45.2C-152.157 44.9467 -151.837 44.82 -151.477 44.82C-151.09 44.82 -150.77 44.9467 -150.517 45.2C-150.25 45.4533 -150.117 45.7667 -150.117 46.14C-150.117 46.5 -150.25 46.8133 -150.517 47.08C-150.77 47.3333 -151.09 47.46 -151.477 47.46C-151.837 47.46 -152.157 47.3333 -152.437 47.08C-152.703 46.8133 -152.837 46.5 -152.837 46.14ZM-152.537 49.8H-150.417V59H-152.537V49.8ZM-134.284 53.16V59H-136.444V53.4C-136.444 52.7067 -136.571 52.1933 -136.824 51.86C-137.064 51.5133 -137.451 51.34 -137.984 51.34C-138.344 51.34 -138.664 51.42 -138.944 51.58C-139.211 51.74 -139.424 51.9733 -139.584 52.28C-139.731 52.5867 -139.804 52.96 -139.804 53.4V59H-141.964V53.4C-141.964 52.7067 -142.091 52.1933 -142.344 51.86C-142.584 51.5133 -142.971 51.34 -143.504 51.34C-143.878 51.34 -144.204 51.42 -144.484 51.58C-144.751 51.74 -144.958 51.9733 -145.104 52.28C-145.251 52.5867 -145.324 52.96 -145.324 53.4V59H-147.444V49.8H-145.324V51.14C-145.058 50.6333 -144.711 50.2533 -144.284 50C-143.844 49.7333 -143.331 49.6 -142.744 49.6C-142.064 49.6 -141.504 49.74 -141.064 50.02C-140.611 50.3 -140.284 50.7067 -140.084 51.24C-139.764 50.7067 -139.364 50.3 -138.884 50.02C-138.391 49.74 -137.831 49.6 -137.204 49.6C-136.551 49.6 -136.011 49.74 -135.584 50.02C-135.144 50.2867 -134.818 50.6867 -134.604 51.22C-134.391 51.7533 -134.284 52.4 -134.284 53.16ZM-127.526 59.2C-128.46 59.2 -129.286 59 -130.006 58.6C-130.713 58.2 -131.26 57.64 -131.646 56.92C-132.033 56.2 -132.226 55.36 -132.226 54.4C-132.226 53.4267 -132.033 52.58 -131.646 51.86C-131.246 51.14 -130.686 50.5867 -129.966 50.2C-129.246 49.8 -128.4 49.6 -127.426 49.6C-126.453 49.6 -125.626 49.7867 -124.946 50.16C-124.266 50.5333 -123.746 51.0733 -123.386 51.78C-123.013 52.4733 -122.826 53.3133 -122.826 54.3C-122.826 54.4067 -122.833 54.52 -122.846 54.64C-122.846 54.76 -122.853 54.8467 -122.866 54.9H-130.946V53.42H-124.706L-125.366 54.34C-125.326 54.26 -125.286 54.1533 -125.246 54.02C-125.193 53.8733 -125.166 53.7533 -125.166 53.66C-125.166 53.1667 -125.266 52.74 -125.466 52.38C-125.653 52.02 -125.92 51.74 -126.266 51.54C-126.6 51.34 -126.993 51.24 -127.446 51.24C-127.993 51.24 -128.46 51.36 -128.846 51.6C-129.233 51.84 -129.526 52.1867 -129.726 52.64C-129.926 53.0933 -130.033 53.6533 -130.046 54.32C-130.046 54.9867 -129.946 55.5533 -129.746 56.02C-129.546 56.4733 -129.253 56.82 -128.866 57.06C-128.466 57.3 -127.986 57.42 -127.426 57.42C-126.84 57.42 -126.326 57.3 -125.886 57.06C-125.446 56.82 -125.08 56.4533 -124.786 55.96L-122.926 56.72C-123.406 57.5467 -124.026 58.1667 -124.786 58.58C-125.546 58.9933 -126.46 59.2 -127.526 59.2ZM-107.848 43.4H-105.668V59H-107.848V43.4ZM-115.468 54.4C-115.468 53.3867 -115.262 52.5267 -114.848 51.82C-114.435 51.1 -113.888 50.5533 -113.208 50.18C-112.515 49.7933 -111.775 49.6 -110.988 49.6C-110.215 49.6 -109.542 49.7933 -108.968 50.18C-108.382 50.5667 -107.922 51.12 -107.588 51.84C-107.242 52.5467 -107.068 53.4 -107.068 54.4C-107.068 55.3867 -107.242 56.24 -107.588 56.96C-107.922 57.68 -108.382 58.2333 -108.968 58.62C-109.542 59.0067 -110.215 59.2 -110.988 59.2C-111.775 59.2 -112.515 59.0133 -113.208 58.64C-113.888 58.2533 -114.435 57.7 -114.848 56.98C-115.262 56.26 -115.468 55.4 -115.468 54.4ZM-113.228 54.4C-113.228 55.0133 -113.102 55.54 -112.848 55.98C-112.595 56.42 -112.262 56.7533 -111.848 56.98C-111.422 57.2067 -110.962 57.32 -110.468 57.32C-110.055 57.32 -109.648 57.2067 -109.248 56.98C-108.835 56.7533 -108.502 56.4267 -108.248 56C-107.982 55.56 -107.848 55.0267 -107.848 54.4C-107.848 53.7733 -107.982 53.2467 -108.248 52.82C-108.502 52.38 -108.835 52.0467 -109.248 51.82C-109.648 51.5933 -110.055 51.48 -110.468 51.48C-110.962 51.48 -111.422 51.5933 -111.848 51.82C-112.262 52.0467 -112.595 52.38 -112.848 52.82C-113.102 53.26 -113.228 53.7867 -113.228 54.4ZM-103.691 54.4C-103.691 53.4533 -103.478 52.62 -103.051 51.9C-102.611 51.18 -102.018 50.62 -101.271 50.22C-100.524 49.8067 -99.6778 49.6 -98.7311 49.6C-97.7844 49.6 -96.9444 49.8067 -96.2111 50.22C-95.4644 50.62 -94.8711 51.18 -94.4311 51.9C-93.9911 52.62 -93.7711 53.4533 -93.7711 54.4C-93.7711 55.3333 -93.9911 56.1667 -94.4311 56.9C-94.8711 57.62 -95.4644 58.1867 -96.2111 58.6C-96.9444 59 -97.7844 59.2 -98.7311 59.2C-99.6778 59.2 -100.524 59 -101.271 58.6C-102.018 58.1867 -102.611 57.62 -103.051 56.9C-103.478 56.1667 -103.691 55.3333 -103.691 54.4ZM-101.471 54.4C-101.471 54.9733 -101.351 55.48 -101.111 55.92C-100.871 56.3467 -100.544 56.6867 -100.131 56.94C-99.7178 57.18 -99.2511 57.3 -98.7311 57.3C-98.2244 57.3 -97.7644 57.18 -97.3511 56.94C-96.9244 56.6867 -96.5911 56.3467 -96.3511 55.92C-96.1111 55.48 -95.9911 54.9733 -95.9911 54.4C-95.9911 53.8267 -96.1111 53.32 -96.3511 52.88C-96.5911 52.44 -96.9244 52.1 -97.3511 51.86C-97.7644 51.62 -98.2244 51.5 -98.7311 51.5C-99.2511 51.5 -99.7178 51.62 -100.131 51.86C-100.544 52.1 -100.871 52.44 -101.111 52.88C-101.351 53.32 -101.471 53.8267 -101.471 54.4ZM-77.5855 49.8L-83.5855 63.4H-85.8855L-83.4855 57.92L-87.1855 49.8H-84.7055L-81.7655 57.08L-82.7855 57.02L-79.9055 49.8H-77.5855ZM-77.2848 54.4C-77.2848 53.4533 -77.0715 52.62 -76.6448 51.9C-76.2048 51.18 -75.6115 50.62 -74.8648 50.22C-74.1182 49.8067 -73.2715 49.6 -72.3248 49.6C-71.3782 49.6 -70.5382 49.8067 -69.8048 50.22C-69.0582 50.62 -68.4648 51.18 -68.0248 51.9C-67.5848 52.62 -67.3648 53.4533 -67.3648 54.4C-67.3648 55.3333 -67.5848 56.1667 -68.0248 56.9C-68.4648 57.62 -69.0582 58.1867 -69.8048 58.6C-70.5382 59 -71.3782 59.2 -72.3248 59.2C-73.2715 59.2 -74.1182 59 -74.8648 58.6C-75.6115 58.1867 -76.2048 57.62 -76.6448 56.9C-77.0715 56.1667 -77.2848 55.3333 -77.2848 54.4ZM-75.0648 54.4C-75.0648 54.9733 -74.9448 55.48 -74.7048 55.92C-74.4648 56.3467 -74.1382 56.6867 -73.7248 56.94C-73.3115 57.18 -72.8448 57.3 -72.3248 57.3C-71.8182 57.3 -71.3582 57.18 -70.9448 56.94C-70.5182 56.6867 -70.1848 56.3467 -69.9448 55.92C-69.7048 55.48 -69.5848 54.9733 -69.5848 54.4C-69.5848 53.8267 -69.7048 53.32 -69.9448 52.88C-70.1848 52.44 -70.5182 52.1 -70.9448 51.86C-71.3582 51.62 -71.8182 51.5 -72.3248 51.5C-72.8448 51.5 -73.3115 51.62 -73.7248 51.86C-74.1382 52.1 -74.4648 52.44 -74.7048 52.88C-74.9448 53.32 -75.0648 53.8267 -75.0648 54.4ZM-63.0953 55.4C-63.0953 56.0533 -62.9553 56.56 -62.6753 56.92C-62.3953 57.28 -61.9686 57.46 -61.3953 57.46C-60.982 57.46 -60.622 57.38 -60.3153 57.22C-60.0086 57.0467 -59.7686 56.8067 -59.5953 56.5C-59.422 56.18 -59.3353 55.8133 -59.3353 55.4V49.8H-57.1753V59H-59.3353V57.58C-59.6286 58.1133 -60.0086 58.52 -60.4753 58.8C-60.9286 59.0667 -61.4753 59.2 -62.1153 59.2C-63.142 59.2 -63.9353 58.88 -64.4953 58.24C-65.042 57.6 -65.3153 56.7333 -65.3153 55.64V49.8H-63.0953V55.4ZM-46.2608 43.4V59H-48.4208V43.4H-46.2608ZM-42.5008 53.4C-42.5008 52.72 -42.6408 52.2067 -42.9208 51.86C-43.1874 51.5133 -43.6208 51.34 -44.2208 51.34C-44.6208 51.34 -44.9741 51.4267 -45.2808 51.6C-45.5874 51.7733 -45.8274 52.0133 -46.0008 52.32C-46.1741 52.6267 -46.2608 52.9867 -46.2608 53.4H-46.7808C-46.7808 52.6667 -46.6474 52.0133 -46.3808 51.44C-46.1141 50.8667 -45.7408 50.4067 -45.2608 50.06C-44.7674 49.7133 -44.1741 49.54 -43.4808 49.54C-42.8008 49.54 -42.2274 49.6733 -41.7608 49.94C-41.2808 50.2067 -40.9208 50.6067 -40.6808 51.14C-40.4408 51.66 -40.3208 52.3133 -40.3208 53.1V59H-42.5008V53.4ZM-36.2209 56.14C-36.2209 56.4467 -36.1476 56.7133 -36.0009 56.94C-35.8543 57.1533 -35.6543 57.3133 -35.4009 57.42C-35.1343 57.5267 -34.8343 57.58 -34.5009 57.58C-34.0743 57.58 -33.6876 57.4933 -33.3409 57.32C-32.9809 57.1467 -32.6943 56.8933 -32.4809 56.56C-32.2543 56.2133 -32.1409 55.8133 -32.1409 55.36L-31.8209 56.56C-31.8209 57.1467 -31.9943 57.64 -32.3409 58.04C-32.6743 58.4267 -33.1009 58.72 -33.6209 58.92C-34.1276 59.1067 -34.6476 59.2 -35.1809 59.2C-35.7543 59.2 -36.2876 59.0867 -36.7809 58.86C-37.2743 58.6333 -37.6676 58.3 -37.9609 57.86C-38.2543 57.42 -38.4009 56.8867 -38.4009 56.26C-38.4009 55.3667 -38.0876 54.66 -37.4609 54.14C-36.8343 53.6067 -35.9476 53.34 -34.8009 53.34C-34.1876 53.34 -33.6609 53.4067 -33.2209 53.54C-32.7676 53.6733 -32.3943 53.8333 -32.1009 54.02C-31.8076 54.1933 -31.6009 54.3533 -31.4809 54.5V55.6C-31.8943 55.3067 -32.3343 55.0933 -32.8009 54.96C-33.2676 54.8267 -33.7609 54.76 -34.2809 54.76C-34.7343 54.76 -35.1009 54.82 -35.3809 54.94C-35.6609 55.0467 -35.8743 55.2 -36.0209 55.4C-36.1543 55.6 -36.2209 55.8467 -36.2209 56.14ZM-36.9009 52.2L-37.7809 50.68C-37.3676 50.4267 -36.8343 50.18 -36.1809 49.94C-35.5143 49.7 -34.7543 49.58 -33.9009 49.58C-33.1409 49.58 -32.4743 49.6933 -31.9009 49.92C-31.3143 50.1467 -30.8543 50.4733 -30.5209 50.9C-30.1876 51.3133 -30.0209 51.8267 -30.0209 52.44V59H-32.1409V52.86C-32.1409 52.5667 -32.1943 52.3267 -32.3009 52.14C-32.3943 51.9533 -32.5276 51.8 -32.7009 51.68C-32.8743 51.56 -33.0809 51.4733 -33.3209 51.42C-33.5609 51.3667 -33.8209 51.34 -34.1009 51.34C-34.5276 51.34 -34.9343 51.3933 -35.3209 51.5C-35.6943 51.5933 -36.0209 51.7133 -36.3009 51.86C-36.5676 51.9933 -36.7676 52.1067 -36.9009 52.2ZM-29.0005 49.8H-26.6405L-24.2405 55.74L-21.8405 49.8H-19.4605L-24.2405 59.84L-29.0005 49.8ZM-14.4012 59.2C-15.3346 59.2 -16.1612 59 -16.8812 58.6C-17.5879 58.2 -18.1346 57.64 -18.5212 56.92C-18.9079 56.2 -19.1012 55.36 -19.1012 54.4C-19.1012 53.4267 -18.9079 52.58 -18.5212 51.86C-18.1212 51.14 -17.5612 50.5867 -16.8413 50.2C-16.1212 49.8 -15.2746 49.6 -14.3012 49.6C-13.3279 49.6 -12.5012 49.7867 -11.8212 50.16C-11.1412 50.5333 -10.6212 51.0733 -10.2612 51.78C-9.88792 52.4733 -9.70125 53.3133 -9.70125 54.3C-9.70125 54.4067 -9.70792 54.52 -9.72125 54.64C-9.72125 54.76 -9.72792 54.8467 -9.74125 54.9H-17.8212V53.42H-11.5812L-12.2412 54.34C-12.2012 54.26 -12.1612 54.1533 -12.1212 54.02C-12.0679 53.8733 -12.0412 53.7533 -12.0412 53.66C-12.0412 53.1667 -12.1412 52.74 -12.3412 52.38C-12.5279 52.02 -12.7946 51.74 -13.1412 51.54C-13.4746 51.34 -13.8679 51.24 -14.3212 51.24C-14.8679 51.24 -15.3346 51.36 -15.7212 51.6C-16.1079 51.84 -16.4012 52.1867 -16.6012 52.64C-16.8012 53.0933 -16.9079 53.6533 -16.9212 54.32C-16.9212 54.9867 -16.8212 55.5533 -16.6212 56.02C-16.4212 56.4733 -16.1279 56.82 -15.7412 57.06C-15.3412 57.3 -14.8612 57.42 -14.3012 57.42C-13.7146 57.42 -13.2012 57.3 -12.7612 57.06C-12.3212 56.82 -11.9546 56.4533 -11.6612 55.96L-9.80125 56.72C-10.2812 57.5467 -10.9012 58.1667 -11.6612 58.58C-12.4212 58.9933 -13.3346 59.2 -14.4012 59.2ZM-0.659531 49C-0.659531 48.4933 -0.772864 48.0667 -0.999531 47.72C-1.21286 47.3733 -1.51953 47.1067 -1.91953 46.92C-2.3062 46.7333 -2.77953 46.64 -3.33953 46.64C-3.97953 46.64 -4.55286 46.7933 -5.05953 47.1C-5.5662 47.3933 -5.9862 47.8067 -6.31953 48.34L-7.91953 47.16C-7.5462 46.6667 -7.1462 46.24 -6.71953 45.88C-6.27953 45.5067 -5.77286 45.22 -5.19953 45.02C-4.61286 44.82 -3.9262 44.72 -3.13953 44.72C-2.49953 44.72 -1.89953 44.8267 -1.33953 45.04C-0.779531 45.24 -0.286197 45.5333 0.140469 45.92C0.580469 46.2933 0.920469 46.74 1.16047 47.26C1.40047 47.78 1.52047 48.36 1.52047 49C1.52047 49.7733 1.3138 50.4667 0.900469 51.08C0.500469 51.6933 -0.0195309 52.1933 -0.659531 52.58C-1.29953 52.9533 -1.99286 53.1733 -2.73953 53.24L-2.85953 55.36H-4.55953L-4.95953 51.82H-4.37953C-3.57953 51.82 -2.9062 51.68 -2.35953 51.4C-1.79953 51.1067 -1.37953 50.7467 -1.09953 50.32C-0.806198 49.88 -0.659531 49.44 -0.659531 49ZM-5.07953 58.06C-5.07953 57.6867 -4.9462 57.3733 -4.67953 57.12C-4.39953 56.8533 -4.0662 56.72 -3.67953 56.72C-3.2662 56.72 -2.9262 56.8533 -2.65953 57.12C-2.39286 57.3733 -2.25953 57.6867 -2.25953 58.06C-2.25953 58.4067 -2.39286 58.7133 -2.65953 58.98C-2.9262 59.2467 -3.2662 59.38 -3.67953 59.38C-4.0662 59.38 -4.39953 59.2467 -4.67953 58.98C-4.9462 58.7133 -5.07953 58.4067 -5.07953 58.06Z" fill="#292524"/>
</g>
<defs>
<clipPath id="clip0_2_1382">
<rect width="390" height="3050" fill="white" transform="translate(-282 -538)"/>
</clipPath>
</defs>
</svg>
