<svg width="20" height="20" viewBox="0 0 20 20" fill="none" xmlns="http://www.w3.org/2000/svg">
<g id="arrow">
<path id="Vector" d="M17.2063 10.3312L11.5813 15.9562C11.4924 16.039 11.3749 16.0841 11.2534 16.082C11.132 16.0798 11.0161 16.0306 10.9302 15.9448C10.8444 15.8589 10.7952 15.743 10.793 15.6216C10.7909 15.5001 10.8359 15.3826 10.9187 15.2937L15.743 10.4687H3.125C3.00068 10.4687 2.88145 10.4194 2.79354 10.3315C2.70564 10.2435 2.65625 10.1243 2.65625 10C2.65625 9.87568 2.70564 9.75645 2.79354 9.66854C2.88145 9.58063 3.00068 9.53125 3.125 9.53125H15.743L10.9187 4.70625C10.8359 4.61739 10.7909 4.49986 10.793 4.37842C10.7952 4.25698 10.8444 4.14112 10.9302 4.05523C11.0161 3.96935 11.132 3.92015 11.2534 3.91801C11.3749 3.91587 11.4924 3.96095 11.5813 4.04375L17.2063 9.66875C17.294 9.75664 17.3433 9.87578 17.3433 10C17.3433 10.1242 17.294 10.2434 17.2063 10.3312Z" fill="#3350E9"/>
</g>
</svg>
