<svg width="33" height="32" viewBox="0 0 33 32" fill="none" xmlns="http://www.w3.org/2000/svg">
<g id="car" clip-path="url(#clip0_855_419)">
<path id="Vector" d="M30.5 14H26.9137L21.5 8.58626C21.315 8.39973 21.0947 8.25185 20.852 8.15121C20.6093 8.05057 20.349 7.99917 20.0863 8.00001H6.035C5.70649 8.00062 5.38319 8.08214 5.09367 8.23736C4.80415 8.39259 4.55732 8.61674 4.375 8.89001L0.6675 14.445C0.558565 14.6096 0.500326 14.8026 0.5 15L0.5 21C0.5 21.5304 0.710714 22.0392 1.08579 22.4142C1.46086 22.7893 1.96957 23 2.5 23H4.625C4.8453 23.8604 5.3457 24.623 6.04731 25.1676C6.74892 25.7122 7.61183 26.0079 8.5 26.0079C9.38817 26.0079 10.2511 25.7122 10.9527 25.1676C11.6543 24.623 12.1547 23.8604 12.375 23H20.625C20.8453 23.8604 21.3457 24.623 22.0473 25.1676C22.7489 25.7122 23.6118 26.0079 24.5 26.0079C25.3882 26.0079 26.2511 25.7122 26.9527 25.1676C27.6543 24.623 28.1547 23.8604 28.375 23H30.5C31.0304 23 31.5391 22.7893 31.9142 22.4142C32.2893 22.0392 32.5 21.5304 32.5 21V16C32.5 15.4696 32.2893 14.9609 31.9142 14.5858C31.5391 14.2107 31.0304 14 30.5 14ZM6.035 10H20.0863L24.0863 14H3.375L6.035 10ZM8.5 24C8.10444 24 7.71776 23.8827 7.38886 23.6629C7.05996 23.4432 6.80362 23.1308 6.65224 22.7654C6.50087 22.3999 6.46126 21.9978 6.53843 21.6098C6.6156 21.2219 6.80608 20.8655 7.08579 20.5858C7.36549 20.3061 7.72186 20.1156 8.10982 20.0384C8.49778 19.9613 8.89991 20.0009 9.26537 20.1523C9.63082 20.3036 9.94318 20.56 10.1629 20.8889C10.3827 21.2178 10.5 21.6044 10.5 22C10.5 22.5304 10.2893 23.0392 9.91421 23.4142C9.53914 23.7893 9.03043 24 8.5 24ZM24.5 24C24.1044 24 23.7178 23.8827 23.3889 23.6629C23.06 23.4432 22.8036 23.1308 22.6522 22.7654C22.5009 22.3999 22.4613 21.9978 22.5384 21.6098C22.6156 21.2219 22.8061 20.8655 23.0858 20.5858C23.3655 20.3061 23.7219 20.1156 24.1098 20.0384C24.4978 19.9613 24.8999 20.0009 25.2654 20.1523C25.6308 20.3036 25.9432 20.56 26.1629 20.8889C26.3827 21.2178 26.5 21.6044 26.5 22C26.5 22.5304 26.2893 23.0392 25.9142 23.4142C25.5391 23.7893 25.0304 24 24.5 24ZM30.5 21H28.375C28.1547 20.1396 27.6543 19.377 26.9527 18.8324C26.2511 18.2878 25.3882 17.9922 24.5 17.9922C23.6118 17.9922 22.7489 18.2878 22.0473 18.8324C21.3457 19.377 20.8453 20.1396 20.625 21H12.375C12.1547 20.1396 11.6543 19.377 10.9527 18.8324C10.2511 18.2878 9.38817 17.9922 8.5 17.9922C7.61183 17.9922 6.74892 18.2878 6.04731 18.8324C5.3457 19.377 4.8453 20.1396 4.625 21H2.5V16H30.5V21Z" fill="#3350E9"/>
</g>
<defs>
<clipPath id="clip0_855_419">
<rect width="32" height="32" fill="white" transform="translate(0.5)"/>
</clipPath>
</defs>
</svg>
