<svg width="24" height="25" viewBox="0 0 24 25" fill="none" xmlns="http://www.w3.org/2000/svg">
<g id="home">
<path id="Vector" d="M21 11.3328V20C21 20.3978 20.842 20.7793 20.5607 21.0607C20.2794 21.342 19.8978 21.5 19.5 21.5H15.75C15.3522 21.5 14.9706 21.342 14.6893 21.0607C14.408 20.7793 14.25 20.3978 14.25 20V16.25C14.25 16.0511 14.171 15.8603 14.0303 15.7197C13.8897 15.579 13.6989 15.5 13.5 15.5H10.5C10.3011 15.5 10.1103 15.579 9.96967 15.7197C9.82902 15.8603 9.75 16.0511 9.75 16.25V20C9.75 20.3978 9.59196 20.7793 9.31066 21.0607C9.02936 21.342 8.64782 21.5 8.25 21.5H4.5C4.10218 21.5 3.72064 21.342 3.43934 21.0607C3.15804 20.7793 3 20.3978 3 20V11.3328C2.99997 11.1252 3.04303 10.9199 3.12646 10.7298C3.20989 10.5397 3.33187 10.3689 3.48469 10.2284L10.9847 3.15218L10.995 3.14187C11.2711 2.89074 11.631 2.75159 12.0042 2.75159C12.3775 2.75159 12.7373 2.89074 13.0134 3.14187C13.0166 3.14554 13.0201 3.14898 13.0238 3.15218L20.5238 10.2284C20.675 10.3697 20.7954 10.5407 20.8774 10.7308C20.9594 10.9209 21.0011 11.1258 21 11.3328Z" fill="white"/>
</g>
</svg>
