<svg width="24" height="25" viewBox="0 0 24 25" fill="none" xmlns="http://www.w3.org/2000/svg">
<path d="M20.7938 17.1816C20.2735 16.248 19.5 13.6064 19.5 10.1562C19.5 8.08425 18.7098 6.09711 17.3033 4.63198C15.8968 3.16685 13.9891 2.34375 12 2.34375C10.0109 2.34375 8.10323 3.16685 6.69671 4.63198C5.29019 6.09711 4.50001 8.08425 4.50001 10.1562C4.50001 13.6074 3.72564 16.248 3.20532 17.1816C3.07245 17.419 3.00201 17.6886 3.00111 17.9634C3.0002 18.2381 3.06886 18.5083 3.20017 18.7466C3.33147 18.9849 3.52077 19.1829 3.74899 19.3206C3.9772 19.4584 4.23625 19.5311 4.50001 19.5312H8.32595C8.49899 20.4132 8.95916 21.2059 9.62864 21.7752C10.2981 22.3444 11.1358 22.6554 12 22.6554C12.8642 22.6554 13.7019 22.3444 14.3714 21.7752C15.0409 21.2059 15.501 20.4132 15.6741 19.5312H19.5C19.7637 19.5309 20.0226 19.4581 20.2507 19.3203C20.4788 19.1824 20.668 18.9844 20.7992 18.7462C20.9303 18.5079 20.9989 18.2378 20.998 17.9631C20.997 17.6885 20.9266 17.4189 20.7938 17.1816ZM12 21.0938C11.5348 21.0936 11.0812 20.9433 10.7014 20.6635C10.3216 20.3836 10.0344 19.9881 9.87939 19.5312H14.1206C13.9656 19.9881 13.6784 20.3836 13.2986 20.6635C12.9189 20.9433 12.4652 21.0936 12 21.0938ZM4.50001 17.9688C5.22189 16.6758 6.00001 13.6797 6.00001 10.1562C6.00001 8.49865 6.63215 6.90894 7.75737 5.73683C8.88259 4.56473 10.4087 3.90625 12 3.90625C13.5913 3.90625 15.1174 4.56473 16.2427 5.73683C17.3679 6.90894 18 8.49865 18 10.1562C18 13.6768 18.7763 16.6729 19.5 17.9688H4.50001Z" fill="white"/>
</svg>
