<svg width="60" height="54" viewBox="0 0 60 54" fill="none" xmlns="http://www.w3.org/2000/svg">
<path id="Vector" d="M59.7022 31.7031L56.5147 6.20313C56.3205 4.66219 55.5705 3.24512 54.4055 2.21803C53.2405 1.19093 51.7406 0.624467 50.1875 0.625H4.5C3.37283 0.625 2.29183 1.07277 1.4948 1.8698C0.697766 2.66683 0.25 3.74783 0.25 4.875V28.25C0.25 29.3772 0.697766 30.4582 1.4948 31.2552C2.29183 32.0522 3.37283 32.5 4.5 32.5H15.9378L25.9731 52.5759C26.1498 52.929 26.4213 53.2258 26.7572 53.4332C27.0932 53.6406 27.4802 53.7503 27.875 53.75C30.6929 53.75 33.3954 52.6306 35.388 50.638C37.3806 48.6454 38.5 45.9429 38.5 43.125V38.875H53.375C54.2796 38.8753 55.174 38.6831 55.9986 38.3111C56.8232 37.9391 57.5592 37.3959 58.1577 36.7175C58.7562 36.0391 59.2034 35.2411 59.4697 34.3766C59.736 33.512 59.8153 32.6007 59.7022 31.7031ZM15.125 28.25H4.5V4.875H15.125V28.25ZM54.9688 33.9052C54.7707 34.133 54.5257 34.3152 54.2507 34.4395C53.9756 34.5637 53.6768 34.627 53.375 34.625H36.375C35.8114 34.625 35.2709 34.8489 34.8724 35.2474C34.4739 35.6459 34.25 36.1864 34.25 36.75V43.125C34.2504 44.5989 33.7401 46.0274 32.8059 47.1674C31.8717 48.3075 30.5713 49.0886 29.1261 49.3778L19.375 29.873V4.875H50.1875C50.7052 4.87482 51.2052 5.06364 51.5935 5.40601C51.9818 5.74837 52.2318 6.22073 52.2966 6.73438L55.4841 32.2344C55.5239 32.5336 55.4984 32.8378 55.4095 33.1262C55.3205 33.4146 55.1702 33.6804 54.9688 33.9052Z" fill="#3350E9"/>
</svg>
