<svg width="60" height="54" viewBox="0 0 60 54" fill="none" xmlns="http://www.w3.org/2000/svg">
<path id="Vector" d="M58.1562 17.2819C57.5579 16.6038 56.8221 16.0608 55.9977 15.6889C55.1734 15.317 54.2793 15.1248 53.375 15.125H38.5V10.875C38.5 8.05708 37.3806 5.35457 35.388 3.36199C33.3954 1.36942 30.6929 0.250001 27.875 0.250001C27.4802 0.249718 27.0932 0.359414 26.7572 0.566789C26.4213 0.774163 26.1498 1.07102 25.9731 1.42406L15.9378 21.5H4.5C3.37283 21.5 2.29183 21.9478 1.4948 22.7448C0.697766 23.5418 0.25 24.6228 0.25 25.75V49.125C0.25 50.2522 0.697766 51.3332 1.4948 52.1302C2.29183 52.9272 3.37283 53.375 4.5 53.375H50.1875C51.7406 53.3755 53.2405 52.8091 54.4055 51.782C55.5705 50.7549 56.3205 49.3378 56.5147 47.7969L59.7022 22.2969C59.8152 21.3991 59.7357 20.4876 59.4692 19.6229C59.2026 18.7582 58.7551 17.9602 58.1562 17.2819ZM4.5 25.75H15.125V49.125H4.5V25.75ZM55.4841 21.7656L52.2966 47.2656C52.2318 47.7793 51.9818 48.2516 51.5935 48.594C51.2052 48.9364 50.7052 49.1252 50.1875 49.125H19.375V24.127L29.1261 4.62219C30.5713 4.91144 31.8717 5.69254 32.8059 6.83257C33.7401 7.97259 34.2504 9.4011 34.25 10.875V17.25C34.25 17.8136 34.4739 18.3541 34.8724 18.7526C35.2709 19.1511 35.8114 19.375 36.375 19.375H53.375C53.6765 19.3749 53.9747 19.439 54.2495 19.563C54.5244 19.687 54.7697 19.868 54.9692 20.0942C55.1687 20.3203 55.3178 20.5863 55.4066 20.8745C55.4953 21.1627 55.5218 21.4664 55.4841 21.7656Z" fill="#3350E9"/>
</svg>
